<?xml version="1.0" encoding="utf-8" standalone="no"?>
<!DOCTYPE svg PUBLIC "-//W3C//DTD SVG 1.1//EN"
  "http://www.w3.org/Graphics/SVG/1.1/DTD/svg11.dtd">
<svg xmlns:xlink="http://www.w3.org/1999/xlink" width="618.550937pt" height="380.458563pt" viewBox="0 0 618.550937 380.458563" xmlns="http://www.w3.org/2000/svg" version="1.1">
 <metadata>
  <rdf:RDF xmlns:dc="http://purl.org/dc/elements/1.1/" xmlns:cc="http://creativecommons.org/ns#" xmlns:rdf="http://www.w3.org/1999/02/22-rdf-syntax-ns#">
   <cc:Work>
    <dc:type rdf:resource="http://purl.org/dc/dcmitype/StillImage"/>
    <dc:date>2026-08-17T12:18:57.925000</dc:date>
    <dc:format>image/svg+xml</dc:format>
    <dc:creator>
     <cc:Agent>
      <dc:title>Matplotlib v3.9.0, https://matplotlib.org/</dc:title>
     </cc:Agent>
    </dc:creator>
   </cc:Work>
  </rdf:RDF>
 </metadata>
 <defs>
  <style type="text/css">*{stroke-linejoin: round; stroke-linecap: butt}</style>
 </defs>
 <g id="figure_1">
  <g id="patch_1">
   <path d="M -0 380.458563 
L 618.550937 380.458563 
L 618.550937 0 
L -0 0 
z
" style="fill: #ffffff"/>
  </g>
  <g id="axes_1">
   <g id="patch_2">
    <path d="M 42.190937 343.870125 
L 611.350937 343.870125 
L 611.350937 22.318125 
L 42.190937 22.318125 
z
" style="fill: #ffffff"/>
   </g>
   <g id="matplotlib.axis_1">
    <g id="xtick_1">
     <g id="line2d_1">
      <path d="M 68.061847 343.870125 
L 68.061847 22.318125 
" clip-path="url(#p4603c4f0e9)" style="fill: none; stroke: #b0b0b0; stroke-opacity: 0.16; stroke-width: 0.6; stroke-linecap: square"/>
     </g>
     <g id="line2d_2">
      <defs>
       <path id="m477a7f6771" d="M 0 0 
L 0 3.5 
" style="stroke: #000000; stroke-width: 0.8"/>
      </defs>
      <g>
       <use xlink:href="#m477a7f6771" x="68.061847" y="343.870125" style="stroke: #000000; stroke-width: 0.8"/>
      </g>
     </g>
     <g id="text_1">
      <!-- 0 -->
      <g transform="translate(65.198722 357.708719) scale(0.09 -0.09)">
       <defs>
        <path id="DejaVuSans-30" d="M 2034 4250 
Q 1547 4250 1301 3770 
Q 1056 3291 1056 2328 
Q 1056 1369 1301 889 
Q 1547 409 2034 409 
Q 2525 409 2770 889 
Q 3016 1369 3016 2328 
Q 3016 3291 2770 3770 
Q 2525 4250 2034 4250 
z
M 2034 4750 
Q 2819 4750 3233 4129 
Q 3647 3509 3647 2328 
Q 3647 1150 3233 529 
Q 2819 -91 2034 -91 
Q 1250 -91 836 529 
Q 422 1150 422 2328 
Q 422 3509 836 4129 
Q 1250 4750 2034 4750 
z
" transform="scale(0.015625)"/>
       </defs>
       <use xlink:href="#DejaVuSans-30"/>
      </g>
     </g>
    </g>
    <g id="xtick_2">
     <g id="line2d_3">
      <path d="M 154.29821 343.870125 
L 154.29821 22.318125 
" clip-path="url(#p4603c4f0e9)" style="fill: none; stroke: #b0b0b0; stroke-opacity: 0.16; stroke-width: 0.6; stroke-linecap: square"/>
     </g>
     <g id="line2d_4">
      <g>
       <use xlink:href="#m477a7f6771" x="154.29821" y="343.870125" style="stroke: #000000; stroke-width: 0.8"/>
      </g>
     </g>
     <g id="text_2">
      <!-- 50 -->
      <g transform="translate(148.57196 357.708719) scale(0.09 -0.09)">
       <defs>
        <path id="DejaVuSans-35" d="M 691 4666 
L 3169 4666 
L 3169 4134 
L 1269 4134 
L 1269 2991 
Q 1406 3038 1543 3061 
Q 1681 3084 1819 3084 
Q 2600 3084 3056 2656 
Q 3513 2228 3513 1497 
Q 3513 744 3044 326 
Q 2575 -91 1722 -91 
Q 1428 -91 1123 -41 
Q 819 9 494 109 
L 494 744 
Q 775 591 1075 516 
Q 1375 441 1709 441 
Q 2250 441 2565 725 
Q 2881 1009 2881 1497 
Q 2881 1984 2565 2268 
Q 2250 2553 1709 2553 
Q 1456 2553 1204 2497 
Q 953 2441 691 2322 
L 691 4666 
z
" transform="scale(0.015625)"/>
       </defs>
       <use xlink:href="#DejaVuSans-35"/>
       <use xlink:href="#DejaVuSans-30" x="63.623047"/>
      </g>
     </g>
    </g>
    <g id="xtick_3">
     <g id="line2d_5">
      <path d="M 240.534574 343.870125 
L 240.534574 22.318125 
" clip-path="url(#p4603c4f0e9)" style="fill: none; stroke: #b0b0b0; stroke-opacity: 0.16; stroke-width: 0.6; stroke-linecap: square"/>
     </g>
     <g id="line2d_6">
      <g>
       <use xlink:href="#m477a7f6771" x="240.534574" y="343.870125" style="stroke: #000000; stroke-width: 0.8"/>
      </g>
     </g>
     <g id="text_3">
      <!-- 100 -->
      <g transform="translate(231.945199 357.708719) scale(0.09 -0.09)">
       <defs>
        <path id="DejaVuSans-31" d="M 794 531 
L 1825 531 
L 1825 4091 
L 703 3866 
L 703 4441 
L 1819 4666 
L 2450 4666 
L 2450 531 
L 3481 531 
L 3481 0 
L 794 0 
L 794 531 
z
" transform="scale(0.015625)"/>
       </defs>
       <use xlink:href="#DejaVuSans-31"/>
       <use xlink:href="#DejaVuSans-30" x="63.623047"/>
       <use xlink:href="#DejaVuSans-30" x="127.246094"/>
      </g>
     </g>
    </g>
    <g id="xtick_4">
     <g id="line2d_7">
      <path d="M 326.770937 343.870125 
L 326.770937 22.318125 
" clip-path="url(#p4603c4f0e9)" style="fill: none; stroke: #b0b0b0; stroke-opacity: 0.16; stroke-width: 0.6; stroke-linecap: square"/>
     </g>
     <g id="line2d_8">
      <g>
       <use xlink:href="#m477a7f6771" x="326.770937" y="343.870125" style="stroke: #000000; stroke-width: 0.8"/>
      </g>
     </g>
     <g id="text_4">
      <!-- 150 -->
      <g transform="translate(318.181562 357.708719) scale(0.09 -0.09)">
       <use xlink:href="#DejaVuSans-31"/>
       <use xlink:href="#DejaVuSans-35" x="63.623047"/>
       <use xlink:href="#DejaVuSans-30" x="127.246094"/>
      </g>
     </g>
    </g>
    <g id="xtick_5">
     <g id="line2d_9">
      <path d="M 413.007301 343.870125 
L 413.007301 22.318125 
" clip-path="url(#p4603c4f0e9)" style="fill: none; stroke: #b0b0b0; stroke-opacity: 0.16; stroke-width: 0.6; stroke-linecap: square"/>
     </g>
     <g id="line2d_10">
      <g>
       <use xlink:href="#m477a7f6771" x="413.007301" y="343.870125" style="stroke: #000000; stroke-width: 0.8"/>
      </g>
     </g>
     <g id="text_5">
      <!-- 200 -->
      <g transform="translate(404.417926 357.708719) scale(0.09 -0.09)">
       <defs>
        <path id="DejaVuSans-32" d="M 1228 531 
L 3431 531 
L 3431 0 
L 469 0 
L 469 531 
Q 828 903 1448 1529 
Q 2069 2156 2228 2338 
Q 2531 2678 2651 2914 
Q 2772 3150 2772 3378 
Q 2772 3750 2511 3984 
Q 2250 4219 1831 4219 
Q 1534 4219 1204 4116 
Q 875 4013 500 3803 
L 500 4441 
Q 881 4594 1212 4672 
Q 1544 4750 1819 4750 
Q 2544 4750 2975 4387 
Q 3406 4025 3406 3419 
Q 3406 3131 3298 2873 
Q 3191 2616 2906 2266 
Q 2828 2175 2409 1742 
Q 1991 1309 1228 531 
z
" transform="scale(0.015625)"/>
       </defs>
       <use xlink:href="#DejaVuSans-32"/>
       <use xlink:href="#DejaVuSans-30" x="63.623047"/>
       <use xlink:href="#DejaVuSans-30" x="127.246094"/>
      </g>
     </g>
    </g>
    <g id="xtick_6">
     <g id="line2d_11">
      <path d="M 499.243665 343.870125 
L 499.243665 22.318125 
" clip-path="url(#p4603c4f0e9)" style="fill: none; stroke: #b0b0b0; stroke-opacity: 0.16; stroke-width: 0.6; stroke-linecap: square"/>
     </g>
     <g id="line2d_12">
      <g>
       <use xlink:href="#m477a7f6771" x="499.243665" y="343.870125" style="stroke: #000000; stroke-width: 0.8"/>
      </g>
     </g>
     <g id="text_6">
      <!-- 250 -->
      <g transform="translate(490.65429 357.708719) scale(0.09 -0.09)">
       <use xlink:href="#DejaVuSans-32"/>
       <use xlink:href="#DejaVuSans-35" x="63.623047"/>
       <use xlink:href="#DejaVuSans-30" x="127.246094"/>
      </g>
     </g>
    </g>
    <g id="xtick_7">
     <g id="line2d_13">
      <path d="M 585.480028 343.870125 
L 585.480028 22.318125 
" clip-path="url(#p4603c4f0e9)" style="fill: none; stroke: #b0b0b0; stroke-opacity: 0.16; stroke-width: 0.6; stroke-linecap: square"/>
     </g>
     <g id="line2d_14">
      <g>
       <use xlink:href="#m477a7f6771" x="585.480028" y="343.870125" style="stroke: #000000; stroke-width: 0.8"/>
      </g>
     </g>
     <g id="text_7">
      <!-- 300 -->
      <g transform="translate(576.890653 357.708719) scale(0.09 -0.09)">
       <defs>
        <path id="DejaVuSans-33" d="M 2597 2516 
Q 3050 2419 3304 2112 
Q 3559 1806 3559 1356 
Q 3559 666 3084 287 
Q 2609 -91 1734 -91 
Q 1441 -91 1130 -33 
Q 819 25 488 141 
L 488 750 
Q 750 597 1062 519 
Q 1375 441 1716 441 
Q 2309 441 2620 675 
Q 2931 909 2931 1356 
Q 2931 1769 2642 2001 
Q 2353 2234 1838 2234 
L 1294 2234 
L 1294 2753 
L 1863 2753 
Q 2328 2753 2575 2939 
Q 2822 3125 2822 3475 
Q 2822 3834 2567 4026 
Q 2313 4219 1838 4219 
Q 1578 4219 1281 4162 
Q 984 4106 628 3988 
L 628 4550 
Q 988 4650 1302 4700 
Q 1616 4750 1894 4750 
Q 2613 4750 3031 4423 
Q 3450 4097 3450 3541 
Q 3450 3153 3228 2886 
Q 3006 2619 2597 2516 
z
" transform="scale(0.015625)"/>
       </defs>
       <use xlink:href="#DejaVuSans-33"/>
       <use xlink:href="#DejaVuSans-30" x="63.623047"/>
       <use xlink:href="#DejaVuSans-30" x="127.246094"/>
      </g>
     </g>
    </g>
    <g id="text_8">
     <!-- Apparent molecular weight (kDa) -->
     <g transform="translate(243.631875 371.178875) scale(0.1 -0.1)">
      <defs>
       <path id="DejaVuSans-41" d="M 2188 4044 
L 1331 1722 
L 3047 1722 
L 2188 4044 
z
M 1831 4666 
L 2547 4666 
L 4325 0 
L 3669 0 
L 3244 1197 
L 1141 1197 
L 716 0 
L 50 0 
L 1831 4666 
z
" transform="scale(0.015625)"/>
       <path id="DejaVuSans-70" d="M 1159 525 
L 1159 -1331 
L 581 -1331 
L 581 3500 
L 1159 3500 
L 1159 2969 
Q 1341 3281 1617 3432 
Q 1894 3584 2278 3584 
Q 2916 3584 3314 3078 
Q 3713 2572 3713 1747 
Q 3713 922 3314 415 
Q 2916 -91 2278 -91 
Q 1894 -91 1617 61 
Q 1341 213 1159 525 
z
M 3116 1747 
Q 3116 2381 2855 2742 
Q 2594 3103 2138 3103 
Q 1681 3103 1420 2742 
Q 1159 2381 1159 1747 
Q 1159 1113 1420 752 
Q 1681 391 2138 391 
Q 2594 391 2855 752 
Q 3116 1113 3116 1747 
z
" transform="scale(0.015625)"/>
       <path id="DejaVuSans-61" d="M 2194 1759 
Q 1497 1759 1228 1600 
Q 959 1441 959 1056 
Q 959 750 1161 570 
Q 1363 391 1709 391 
Q 2188 391 2477 730 
Q 2766 1069 2766 1631 
L 2766 1759 
L 2194 1759 
z
M 3341 1997 
L 3341 0 
L 2766 0 
L 2766 531 
Q 2569 213 2275 61 
Q 1981 -91 1556 -91 
Q 1019 -91 701 211 
Q 384 513 384 1019 
Q 384 1609 779 1909 
Q 1175 2209 1959 2209 
L 2766 2209 
L 2766 2266 
Q 2766 2663 2505 2880 
Q 2244 3097 1772 3097 
Q 1472 3097 1187 3025 
Q 903 2953 641 2809 
L 641 3341 
Q 956 3463 1253 3523 
Q 1550 3584 1831 3584 
Q 2591 3584 2966 3190 
Q 3341 2797 3341 1997 
z
" transform="scale(0.015625)"/>
       <path id="DejaVuSans-72" d="M 2631 2963 
Q 2534 3019 2420 3045 
Q 2306 3072 2169 3072 
Q 1681 3072 1420 2755 
Q 1159 2438 1159 1844 
L 1159 0 
L 581 0 
L 581 3500 
L 1159 3500 
L 1159 2956 
Q 1341 3275 1631 3429 
Q 1922 3584 2338 3584 
Q 2397 3584 2469 3576 
Q 2541 3569 2628 3553 
L 2631 2963 
z
" transform="scale(0.015625)"/>
       <path id="DejaVuSans-65" d="M 3597 1894 
L 3597 1613 
L 953 1613 
Q 991 1019 1311 708 
Q 1631 397 2203 397 
Q 2534 397 2845 478 
Q 3156 559 3463 722 
L 3463 178 
Q 3153 47 2828 -22 
Q 2503 -91 2169 -91 
Q 1331 -91 842 396 
Q 353 884 353 1716 
Q 353 2575 817 3079 
Q 1281 3584 2069 3584 
Q 2775 3584 3186 3129 
Q 3597 2675 3597 1894 
z
M 3022 2063 
Q 3016 2534 2758 2815 
Q 2500 3097 2075 3097 
Q 1594 3097 1305 2825 
Q 1016 2553 972 2059 
L 3022 2063 
z
" transform="scale(0.015625)"/>
       <path id="DejaVuSans-6e" d="M 3513 2113 
L 3513 0 
L 2938 0 
L 2938 2094 
Q 2938 2591 2744 2837 
Q 2550 3084 2163 3084 
Q 1697 3084 1428 2787 
Q 1159 2491 1159 1978 
L 1159 0 
L 581 0 
L 581 3500 
L 1159 3500 
L 1159 2956 
Q 1366 3272 1645 3428 
Q 1925 3584 2291 3584 
Q 2894 3584 3203 3211 
Q 3513 2838 3513 2113 
z
" transform="scale(0.015625)"/>
       <path id="DejaVuSans-74" d="M 1172 4494 
L 1172 3500 
L 2356 3500 
L 2356 3053 
L 1172 3053 
L 1172 1153 
Q 1172 725 1289 603 
Q 1406 481 1766 481 
L 2356 481 
L 2356 0 
L 1766 0 
Q 1100 0 847 248 
Q 594 497 594 1153 
L 594 3053 
L 172 3053 
L 172 3500 
L 594 3500 
L 594 4494 
L 1172 4494 
z
" transform="scale(0.015625)"/>
       <path id="DejaVuSans-20" transform="scale(0.015625)"/>
       <path id="DejaVuSans-6d" d="M 3328 2828 
Q 3544 3216 3844 3400 
Q 4144 3584 4550 3584 
Q 5097 3584 5394 3201 
Q 5691 2819 5691 2113 
L 5691 0 
L 5113 0 
L 5113 2094 
Q 5113 2597 4934 2840 
Q 4756 3084 4391 3084 
Q 3944 3084 3684 2787 
Q 3425 2491 3425 1978 
L 3425 0 
L 2847 0 
L 2847 2094 
Q 2847 2600 2669 2842 
Q 2491 3084 2119 3084 
Q 1678 3084 1418 2786 
Q 1159 2488 1159 1978 
L 1159 0 
L 581 0 
L 581 3500 
L 1159 3500 
L 1159 2956 
Q 1356 3278 1631 3431 
Q 1906 3584 2284 3584 
Q 2666 3584 2933 3390 
Q 3200 3197 3328 2828 
z
" transform="scale(0.015625)"/>
       <path id="DejaVuSans-6f" d="M 1959 3097 
Q 1497 3097 1228 2736 
Q 959 2375 959 1747 
Q 959 1119 1226 758 
Q 1494 397 1959 397 
Q 2419 397 2687 759 
Q 2956 1122 2956 1747 
Q 2956 2369 2687 2733 
Q 2419 3097 1959 3097 
z
M 1959 3584 
Q 2709 3584 3137 3096 
Q 3566 2609 3566 1747 
Q 3566 888 3137 398 
Q 2709 -91 1959 -91 
Q 1206 -91 779 398 
Q 353 888 353 1747 
Q 353 2609 779 3096 
Q 1206 3584 1959 3584 
z
" transform="scale(0.015625)"/>
       <path id="DejaVuSans-6c" d="M 603 4863 
L 1178 4863 
L 1178 0 
L 603 0 
L 603 4863 
z
" transform="scale(0.015625)"/>
       <path id="DejaVuSans-63" d="M 3122 3366 
L 3122 2828 
Q 2878 2963 2633 3030 
Q 2388 3097 2138 3097 
Q 1578 3097 1268 2742 
Q 959 2388 959 1747 
Q 959 1106 1268 751 
Q 1578 397 2138 397 
Q 2388 397 2633 464 
Q 2878 531 3122 666 
L 3122 134 
Q 2881 22 2623 -34 
Q 2366 -91 2075 -91 
Q 1284 -91 818 406 
Q 353 903 353 1747 
Q 353 2603 823 3093 
Q 1294 3584 2113 3584 
Q 2378 3584 2631 3529 
Q 2884 3475 3122 3366 
z
" transform="scale(0.015625)"/>
       <path id="DejaVuSans-75" d="M 544 1381 
L 544 3500 
L 1119 3500 
L 1119 1403 
Q 1119 906 1312 657 
Q 1506 409 1894 409 
Q 2359 409 2629 706 
Q 2900 1003 2900 1516 
L 2900 3500 
L 3475 3500 
L 3475 0 
L 2900 0 
L 2900 538 
Q 2691 219 2414 64 
Q 2138 -91 1772 -91 
Q 1169 -91 856 284 
Q 544 659 544 1381 
z
M 1991 3584 
L 1991 3584 
z
" transform="scale(0.015625)"/>
       <path id="DejaVuSans-77" d="M 269 3500 
L 844 3500 
L 1563 769 
L 2278 3500 
L 2956 3500 
L 3675 769 
L 4391 3500 
L 4966 3500 
L 4050 0 
L 3372 0 
L 2619 2869 
L 1863 0 
L 1184 0 
L 269 3500 
z
" transform="scale(0.015625)"/>
       <path id="DejaVuSans-69" d="M 603 3500 
L 1178 3500 
L 1178 0 
L 603 0 
L 603 3500 
z
M 603 4863 
L 1178 4863 
L 1178 4134 
L 603 4134 
L 603 4863 
z
" transform="scale(0.015625)"/>
       <path id="DejaVuSans-67" d="M 2906 1791 
Q 2906 2416 2648 2759 
Q 2391 3103 1925 3103 
Q 1463 3103 1205 2759 
Q 947 2416 947 1791 
Q 947 1169 1205 825 
Q 1463 481 1925 481 
Q 2391 481 2648 825 
Q 2906 1169 2906 1791 
z
M 3481 434 
Q 3481 -459 3084 -895 
Q 2688 -1331 1869 -1331 
Q 1566 -1331 1297 -1286 
Q 1028 -1241 775 -1147 
L 775 -588 
Q 1028 -725 1275 -790 
Q 1522 -856 1778 -856 
Q 2344 -856 2625 -561 
Q 2906 -266 2906 331 
L 2906 616 
Q 2728 306 2450 153 
Q 2172 0 1784 0 
Q 1141 0 747 490 
Q 353 981 353 1791 
Q 353 2603 747 3093 
Q 1141 3584 1784 3584 
Q 2172 3584 2450 3431 
Q 2728 3278 2906 2969 
L 2906 3500 
L 3481 3500 
L 3481 434 
z
" transform="scale(0.015625)"/>
       <path id="DejaVuSans-68" d="M 3513 2113 
L 3513 0 
L 2938 0 
L 2938 2094 
Q 2938 2591 2744 2837 
Q 2550 3084 2163 3084 
Q 1697 3084 1428 2787 
Q 1159 2491 1159 1978 
L 1159 0 
L 581 0 
L 581 4863 
L 1159 4863 
L 1159 2956 
Q 1366 3272 1645 3428 
Q 1925 3584 2291 3584 
Q 2894 3584 3203 3211 
Q 3513 2838 3513 2113 
z
" transform="scale(0.015625)"/>
       <path id="DejaVuSans-28" d="M 1984 4856 
Q 1566 4138 1362 3434 
Q 1159 2731 1159 2009 
Q 1159 1288 1364 580 
Q 1569 -128 1984 -844 
L 1484 -844 
Q 1016 -109 783 600 
Q 550 1309 550 2009 
Q 550 2706 781 3412 
Q 1013 4119 1484 4856 
L 1984 4856 
z
" transform="scale(0.015625)"/>
       <path id="DejaVuSans-6b" d="M 581 4863 
L 1159 4863 
L 1159 1991 
L 2875 3500 
L 3609 3500 
L 1753 1863 
L 3688 0 
L 2938 0 
L 1159 1709 
L 1159 0 
L 581 0 
L 581 4863 
z
" transform="scale(0.015625)"/>
       <path id="DejaVuSans-44" d="M 1259 4147 
L 1259 519 
L 2022 519 
Q 2988 519 3436 956 
Q 3884 1394 3884 2338 
Q 3884 3275 3436 3711 
Q 2988 4147 2022 4147 
L 1259 4147 
z
M 628 4666 
L 1925 4666 
Q 3281 4666 3915 4102 
Q 4550 3538 4550 2338 
Q 4550 1131 3912 565 
Q 3275 0 1925 0 
L 628 0 
L 628 4666 
z
" transform="scale(0.015625)"/>
       <path id="DejaVuSans-29" d="M 513 4856 
L 1013 4856 
Q 1481 4119 1714 3412 
Q 1947 2706 1947 2009 
Q 1947 1309 1714 600 
Q 1481 -109 1013 -844 
L 513 -844 
Q 928 -128 1133 580 
Q 1338 1288 1338 2009 
Q 1338 2731 1133 3434 
Q 928 4138 513 4856 
z
" transform="scale(0.015625)"/>
      </defs>
      <use xlink:href="#DejaVuSans-41"/>
      <use xlink:href="#DejaVuSans-70" x="68.408203"/>
      <use xlink:href="#DejaVuSans-70" x="131.884766"/>
      <use xlink:href="#DejaVuSans-61" x="195.361328"/>
      <use xlink:href="#DejaVuSans-72" x="256.640625"/>
      <use xlink:href="#DejaVuSans-65" x="295.503906"/>
      <use xlink:href="#DejaVuSans-6e" x="357.027344"/>
      <use xlink:href="#DejaVuSans-74" x="420.40625"/>
      <use xlink:href="#DejaVuSans-20" x="459.615234"/>
      <use xlink:href="#DejaVuSans-6d" x="491.402344"/>
      <use xlink:href="#DejaVuSans-6f" x="588.814453"/>
      <use xlink:href="#DejaVuSans-6c" x="649.996094"/>
      <use xlink:href="#DejaVuSans-65" x="677.779297"/>
      <use xlink:href="#DejaVuSans-63" x="739.302734"/>
      <use xlink:href="#DejaVuSans-75" x="794.283203"/>
      <use xlink:href="#DejaVuSans-6c" x="857.662109"/>
      <use xlink:href="#DejaVuSans-61" x="885.445312"/>
      <use xlink:href="#DejaVuSans-72" x="946.724609"/>
      <use xlink:href="#DejaVuSans-20" x="987.837891"/>
      <use xlink:href="#DejaVuSans-77" x="1019.625"/>
      <use xlink:href="#DejaVuSans-65" x="1101.412109"/>
      <use xlink:href="#DejaVuSans-69" x="1162.935547"/>
      <use xlink:href="#DejaVuSans-67" x="1190.71875"/>
      <use xlink:href="#DejaVuSans-68" x="1254.195312"/>
      <use xlink:href="#DejaVuSans-74" x="1317.574219"/>
      <use xlink:href="#DejaVuSans-20" x="1356.783203"/>
      <use xlink:href="#DejaVuSans-28" x="1388.570312"/>
      <use xlink:href="#DejaVuSans-6b" x="1427.583984"/>
      <use xlink:href="#DejaVuSans-44" x="1485.494141"/>
      <use xlink:href="#DejaVuSans-61" x="1562.496094"/>
      <use xlink:href="#DejaVuSans-29" x="1623.775391"/>
     </g>
    </g>
   </g>
   <g id="matplotlib.axis_2">
    <g id="ytick_1">
     <g id="line2d_15">
      <path d="M 42.190937 343.870125 
L 611.350937 343.870125 
" clip-path="url(#p4603c4f0e9)" style="fill: none; stroke: #b0b0b0; stroke-opacity: 0.16; stroke-width: 0.6; stroke-linecap: square"/>
     </g>
     <g id="line2d_16">
      <defs>
       <path id="m2cddfb2534" d="M 0 0 
L -3.5 0 
" style="stroke: #000000; stroke-width: 0.8"/>
      </defs>
      <g>
       <use xlink:href="#m2cddfb2534" x="42.190937" y="343.870125" style="stroke: #000000; stroke-width: 0.8"/>
      </g>
     </g>
     <g id="text_9">
      <!-- 0.0 -->
      <g transform="translate(20.878125 347.289422) scale(0.09 -0.09)">
       <defs>
        <path id="DejaVuSans-2e" d="M 684 794 
L 1344 794 
L 1344 0 
L 684 0 
L 684 794 
z
" transform="scale(0.015625)"/>
       </defs>
       <use xlink:href="#DejaVuSans-30"/>
       <use xlink:href="#DejaVuSans-2e" x="63.623047"/>
       <use xlink:href="#DejaVuSans-30" x="95.410156"/>
      </g>
     </g>
    </g>
    <g id="ytick_2">
     <g id="line2d_17">
      <path d="M 42.190937 279.559725 
L 611.350937 279.559725 
" clip-path="url(#p4603c4f0e9)" style="fill: none; stroke: #b0b0b0; stroke-opacity: 0.16; stroke-width: 0.6; stroke-linecap: square"/>
     </g>
     <g id="line2d_18">
      <g>
       <use xlink:href="#m2cddfb2534" x="42.190937" y="279.559725" style="stroke: #000000; stroke-width: 0.8"/>
      </g>
     </g>
     <g id="text_10">
      <!-- 0.2 -->
      <g transform="translate(20.878125 282.979022) scale(0.09 -0.09)">
       <use xlink:href="#DejaVuSans-30"/>
       <use xlink:href="#DejaVuSans-2e" x="63.623047"/>
       <use xlink:href="#DejaVuSans-32" x="95.410156"/>
      </g>
     </g>
    </g>
    <g id="ytick_3">
     <g id="line2d_19">
      <path d="M 42.190937 215.249325 
L 611.350937 215.249325 
" clip-path="url(#p4603c4f0e9)" style="fill: none; stroke: #b0b0b0; stroke-opacity: 0.16; stroke-width: 0.6; stroke-linecap: square"/>
     </g>
     <g id="line2d_20">
      <g>
       <use xlink:href="#m2cddfb2534" x="42.190937" y="215.249325" style="stroke: #000000; stroke-width: 0.8"/>
      </g>
     </g>
     <g id="text_11">
      <!-- 0.4 -->
      <g transform="translate(20.878125 218.668622) scale(0.09 -0.09)">
       <defs>
        <path id="DejaVuSans-34" d="M 2419 4116 
L 825 1625 
L 2419 1625 
L 2419 4116 
z
M 2253 4666 
L 3047 4666 
L 3047 1625 
L 3713 1625 
L 3713 1100 
L 3047 1100 
L 3047 0 
L 2419 0 
L 2419 1100 
L 313 1100 
L 313 1709 
L 2253 4666 
z
" transform="scale(0.015625)"/>
       </defs>
       <use xlink:href="#DejaVuSans-30"/>
       <use xlink:href="#DejaVuSans-2e" x="63.623047"/>
       <use xlink:href="#DejaVuSans-34" x="95.410156"/>
      </g>
     </g>
    </g>
    <g id="ytick_4">
     <g id="line2d_21">
      <path d="M 42.190937 150.938925 
L 611.350937 150.938925 
" clip-path="url(#p4603c4f0e9)" style="fill: none; stroke: #b0b0b0; stroke-opacity: 0.16; stroke-width: 0.6; stroke-linecap: square"/>
     </g>
     <g id="line2d_22">
      <g>
       <use xlink:href="#m2cddfb2534" x="42.190937" y="150.938925" style="stroke: #000000; stroke-width: 0.8"/>
      </g>
     </g>
     <g id="text_12">
      <!-- 0.6 -->
      <g transform="translate(20.878125 154.358222) scale(0.09 -0.09)">
       <defs>
        <path id="DejaVuSans-36" d="M 2113 2584 
Q 1688 2584 1439 2293 
Q 1191 2003 1191 1497 
Q 1191 994 1439 701 
Q 1688 409 2113 409 
Q 2538 409 2786 701 
Q 3034 994 3034 1497 
Q 3034 2003 2786 2293 
Q 2538 2584 2113 2584 
z
M 3366 4563 
L 3366 3988 
Q 3128 4100 2886 4159 
Q 2644 4219 2406 4219 
Q 1781 4219 1451 3797 
Q 1122 3375 1075 2522 
Q 1259 2794 1537 2939 
Q 1816 3084 2150 3084 
Q 2853 3084 3261 2657 
Q 3669 2231 3669 1497 
Q 3669 778 3244 343 
Q 2819 -91 2113 -91 
Q 1303 -91 875 529 
Q 447 1150 447 2328 
Q 447 3434 972 4092 
Q 1497 4750 2381 4750 
Q 2619 4750 2861 4703 
Q 3103 4656 3366 4563 
z
" transform="scale(0.015625)"/>
       </defs>
       <use xlink:href="#DejaVuSans-30"/>
       <use xlink:href="#DejaVuSans-2e" x="63.623047"/>
       <use xlink:href="#DejaVuSans-36" x="95.410156"/>
      </g>
     </g>
    </g>
    <g id="ytick_5">
     <g id="line2d_23">
      <path d="M 42.190937 86.628525 
L 611.350937 86.628525 
" clip-path="url(#p4603c4f0e9)" style="fill: none; stroke: #b0b0b0; stroke-opacity: 0.16; stroke-width: 0.6; stroke-linecap: square"/>
     </g>
     <g id="line2d_24">
      <g>
       <use xlink:href="#m2cddfb2534" x="42.190937" y="86.628525" style="stroke: #000000; stroke-width: 0.8"/>
      </g>
     </g>
     <g id="text_13">
      <!-- 0.8 -->
      <g transform="translate(20.878125 90.047822) scale(0.09 -0.09)">
       <defs>
        <path id="DejaVuSans-38" d="M 2034 2216 
Q 1584 2216 1326 1975 
Q 1069 1734 1069 1313 
Q 1069 891 1326 650 
Q 1584 409 2034 409 
Q 2484 409 2743 651 
Q 3003 894 3003 1313 
Q 3003 1734 2745 1975 
Q 2488 2216 2034 2216 
z
M 1403 2484 
Q 997 2584 770 2862 
Q 544 3141 544 3541 
Q 544 4100 942 4425 
Q 1341 4750 2034 4750 
Q 2731 4750 3128 4425 
Q 3525 4100 3525 3541 
Q 3525 3141 3298 2862 
Q 3072 2584 2669 2484 
Q 3125 2378 3379 2068 
Q 3634 1759 3634 1313 
Q 3634 634 3220 271 
Q 2806 -91 2034 -91 
Q 1263 -91 848 271 
Q 434 634 434 1313 
Q 434 1759 690 2068 
Q 947 2378 1403 2484 
z
M 1172 3481 
Q 1172 3119 1398 2916 
Q 1625 2713 2034 2713 
Q 2441 2713 2670 2916 
Q 2900 3119 2900 3481 
Q 2900 3844 2670 4047 
Q 2441 4250 2034 4250 
Q 1625 4250 1398 4047 
Q 1172 3844 1172 3481 
z
" transform="scale(0.015625)"/>
       </defs>
       <use xlink:href="#DejaVuSans-30"/>
       <use xlink:href="#DejaVuSans-2e" x="63.623047"/>
       <use xlink:href="#DejaVuSans-38" x="95.410156"/>
      </g>
     </g>
    </g>
    <g id="ytick_6">
     <g id="line2d_25">
      <path d="M 42.190937 22.318125 
L 611.350937 22.318125 
" clip-path="url(#p4603c4f0e9)" style="fill: none; stroke: #b0b0b0; stroke-opacity: 0.16; stroke-width: 0.6; stroke-linecap: square"/>
     </g>
     <g id="line2d_26">
      <g>
       <use xlink:href="#m2cddfb2534" x="42.190937" y="22.318125" style="stroke: #000000; stroke-width: 0.8"/>
      </g>
     </g>
     <g id="text_14">
      <!-- 1.0 -->
      <g transform="translate(20.878125 25.737422) scale(0.09 -0.09)">
       <use xlink:href="#DejaVuSans-31"/>
       <use xlink:href="#DejaVuSans-2e" x="63.623047"/>
       <use xlink:href="#DejaVuSans-30" x="95.410156"/>
      </g>
     </g>
    </g>
    <g id="text_15">
     <!-- Scale-free index -->
     <g transform="translate(14.798437 223.476938) rotate(-90) scale(0.1 -0.1)">
      <defs>
       <path id="DejaVuSans-53" d="M 3425 4513 
L 3425 3897 
Q 3066 4069 2747 4153 
Q 2428 4238 2131 4238 
Q 1616 4238 1336 4038 
Q 1056 3838 1056 3469 
Q 1056 3159 1242 3001 
Q 1428 2844 1947 2747 
L 2328 2669 
Q 3034 2534 3370 2195 
Q 3706 1856 3706 1288 
Q 3706 609 3251 259 
Q 2797 -91 1919 -91 
Q 1588 -91 1214 -16 
Q 841 59 441 206 
L 441 856 
Q 825 641 1194 531 
Q 1563 422 1919 422 
Q 2459 422 2753 634 
Q 3047 847 3047 1241 
Q 3047 1584 2836 1778 
Q 2625 1972 2144 2069 
L 1759 2144 
Q 1053 2284 737 2584 
Q 422 2884 422 3419 
Q 422 4038 858 4394 
Q 1294 4750 2059 4750 
Q 2388 4750 2728 4690 
Q 3069 4631 3425 4513 
z
" transform="scale(0.015625)"/>
       <path id="DejaVuSans-2d" d="M 313 2009 
L 1997 2009 
L 1997 1497 
L 313 1497 
L 313 2009 
z
" transform="scale(0.015625)"/>
       <path id="DejaVuSans-66" d="M 2375 4863 
L 2375 4384 
L 1825 4384 
Q 1516 4384 1395 4259 
Q 1275 4134 1275 3809 
L 1275 3500 
L 2222 3500 
L 2222 3053 
L 1275 3053 
L 1275 0 
L 697 0 
L 697 3053 
L 147 3053 
L 147 3500 
L 697 3500 
L 697 3744 
Q 697 4328 969 4595 
Q 1241 4863 1831 4863 
L 2375 4863 
z
" transform="scale(0.015625)"/>
       <path id="DejaVuSans-64" d="M 2906 2969 
L 2906 4863 
L 3481 4863 
L 3481 0 
L 2906 0 
L 2906 525 
Q 2725 213 2448 61 
Q 2172 -91 1784 -91 
Q 1150 -91 751 415 
Q 353 922 353 1747 
Q 353 2572 751 3078 
Q 1150 3584 1784 3584 
Q 2172 3584 2448 3432 
Q 2725 3281 2906 2969 
z
M 947 1747 
Q 947 1113 1208 752 
Q 1469 391 1925 391 
Q 2381 391 2643 752 
Q 2906 1113 2906 1747 
Q 2906 2381 2643 2742 
Q 2381 3103 1925 3103 
Q 1469 3103 1208 2742 
Q 947 2381 947 1747 
z
" transform="scale(0.015625)"/>
       <path id="DejaVuSans-78" d="M 3513 3500 
L 2247 1797 
L 3578 0 
L 2900 0 
L 1881 1375 
L 863 0 
L 184 0 
L 1544 1831 
L 300 3500 
L 978 3500 
L 1906 2253 
L 2834 3500 
L 3513 3500 
z
" transform="scale(0.015625)"/>
      </defs>
      <use xlink:href="#DejaVuSans-53"/>
      <use xlink:href="#DejaVuSans-63" x="63.476562"/>
      <use xlink:href="#DejaVuSans-61" x="118.457031"/>
      <use xlink:href="#DejaVuSans-6c" x="179.736328"/>
      <use xlink:href="#DejaVuSans-65" x="207.519531"/>
      <use xlink:href="#DejaVuSans-2d" x="269.042969"/>
      <use xlink:href="#DejaVuSans-66" x="305.126953"/>
      <use xlink:href="#DejaVuSans-72" x="340.332031"/>
      <use xlink:href="#DejaVuSans-65" x="379.195312"/>
      <use xlink:href="#DejaVuSans-65" x="440.71875"/>
      <use xlink:href="#DejaVuSans-20" x="502.242188"/>
      <use xlink:href="#DejaVuSans-69" x="534.029297"/>
      <use xlink:href="#DejaVuSans-6e" x="561.8125"/>
      <use xlink:href="#DejaVuSans-64" x="625.191406"/>
      <use xlink:href="#DejaVuSans-65" x="688.667969"/>
      <use xlink:href="#DejaVuSans-78" x="748.441406"/>
     </g>
    </g>
   </g>
   <g id="line2d_27">
    <path d="M 68.061847 51.923936 
L 68.493028 49.160727 
L 69.786574 45.015913 
L 70.217756 44.719855 
L 70.648937 43.27246 
L 71.942483 40.640832 
L 72.373665 38.667112 
L 72.804847 37.318402 
L 73.66721 36.890763 
L 74.098392 36.364437 
L 74.960756 33.897287 
L 75.823119 32.976217 
L 77.116665 32.186729 
L 77.547847 32.088043 
L 77.979028 31.857775 
L 78.841392 31.035391 
L 79.703756 30.706438 
L 80.566119 30.048531 
L 80.997301 29.555101 
L 82.290847 29.259043 
L 82.722028 29.160357 
L 83.15321 28.601136 
L 84.446756 27.614276 
L 85.309119 27.120845 
L 85.740301 26.232671 
L 86.171483 26.10109 
L 87.465028 24.949753 
L 90.052119 24.653695 
L 93.070392 24.357636 
L 93.932756 24.127369 
L 95.657483 23.666834 
L 96.088665 23.436567 
L 96.519847 23.337881 
L 97.38221 23.568148 
L 97.813392 23.633939 
L 98.244574 23.535253 
L 99.538119 22.811555 
L 101.694028 22.383916 
L 103.418756 23.008927 
L 104.281119 23.370776 
L 104.712301 23.304985 
L 105.143483 23.107613 
L 105.574665 22.77866 
L 107.299392 22.318125 
L 107.730574 22.416811 
L 108.161756 22.679974 
L 109.455301 24.094474 
L 110.317665 24.324741 
L 111.180028 24.160264 
L 112.042392 23.831311 
L 112.904756 23.140509 
L 113.335938 22.943137 
L 114.198301 22.844451 
L 115.923028 23.173404 
L 116.785392 23.601043 
L 117.647756 23.732625 
L 118.510119 23.864206 
L 119.803665 24.25895 
L 121.528392 24.818171 
L 122.821937 25.015543 
L 124.546665 25.245811 
L 125.84021 25.476078 
L 127.996119 25.739241 
L 128.858483 25.837927 
L 129.289665 25.772136 
L 130.152028 25.410287 
L 131.445574 25.147125 
L 132.739119 25.640555 
L 133.170301 25.870822 
L 137.050937 26.199776 
L 137.482119 26.462939 
L 137.913301 26.857683 
L 139.638028 27.219531 
L 140.500392 27.08795 
L 144.381028 26.298462 
L 146.105756 26.726101 
L 146.968119 26.528729 
L 147.830483 26.364252 
L 149.124028 26.923473 
L 149.55521 27.022159 
L 149.986392 27.252427 
L 155.160574 27.712962 
L 156.454119 28.140601 
L 160.334756 28.831403 
L 160.765938 29.061671 
L 161.628301 29.094566 
L 164.215392 28.798508 
L 165.077756 28.699822 
L 168.096028 27.844543 
L 168.958392 27.811648 
L 171.545483 28.50245 
L 171.976665 28.666927 
L 172.839028 29.193252 
L 175.857301 29.522206 
L 177.582028 29.686682 
L 178.01321 29.653787 
L 178.875574 29.785368 
L 180.169119 29.98274 
L 180.600301 30.147217 
L 181.462665 30.114322 
L 182.75621 29.884054 
L 183.187392 29.91695 
L 184.049756 30.213008 
L 193.104574 31.002496 
L 197.416392 31.594612 
L 200.003483 31.232764 
L 200.865847 31.463031 
L 201.297028 31.693298 
L 207.333574 32.252519 
L 207.764756 32.384101 
L 209.058301 32.285415 
L 209.920665 32.449891 
L 220.70021 33.370961 
L 222.424937 33.535438 
L 225.874392 33.7986 
L 226.736756 34.061763 
L 228.892665 34.324926 
L 229.755028 34.22624 
L 230.617392 34.489403 
L 231.479756 34.620984 
L 231.910937 34.752566 
L 232.342119 34.71967 
L 234.92921 33.831496 
L 235.791574 33.995973 
L 236.222756 34.094659 
L 236.653937 34.423612 
L 237.947483 34.917042 
L 238.809847 34.785461 
L 239.67221 34.653879 
L 240.534574 35.048624 
L 241.396937 35.542054 
L 242.259301 35.673635 
L 243.121665 35.476263 
L 243.984028 35.114414 
L 244.846392 34.949938 
L 252.176483 35.969693 
L 253.470028 35.805217 
L 254.763574 36.101275 
L 256.488301 36.496019 
L 257.350665 36.397333 
L 258.64421 36.068379 
L 259.937756 36.331542 
L 260.368938 36.528914 
L 269.423756 37.285507 
L 272.87321 38.0421 
L 273.735574 37.877623 
L 274.597937 37.647356 
L 275.460301 37.943414 
L 276.322665 38.765798 
L 277.61621 39.95003 
L 278.478574 39.653972 
L 279.340937 39.127646 
L 280.203301 38.831588 
L 281.065665 39.02896 
L 281.928028 39.621077 
L 282.35921 40.015821 
L 282.790392 40.147402 
L 283.221574 40.081611 
L 284.083937 39.226332 
L 284.515119 38.798693 
L 285.808665 38.107891 
L 286.671028 38.272367 
L 287.10221 38.403949 
L 287.533392 38.371053 
L 289.689301 37.417088 
L 290.120483 37.351298 
L 290.982847 37.581565 
L 293.569937 38.864484 
L 294.432301 39.259228 
L 295.725847 40.246088 
L 297.881756 40.805309 
L 298.744119 40.706623 
L 299.175301 40.476356 
L 300.037665 40.311879 
L 300.900028 39.818449 
L 301.33121 39.752658 
L 302.624756 40.213193 
L 303.055938 40.278984 
L 303.487119 40.180297 
L 305.211847 38.634216 
L 306.505392 38.239472 
L 306.936574 38.502635 
L 307.798937 38.700007 
L 309.523665 39.390809 
L 310.386028 39.522391 
L 311.248392 39.423705 
L 311.679574 39.555286 
L 312.541938 40.344774 
L 313.404301 40.903995 
L 314.697847 41.232949 
L 316.853756 40.8711 
L 317.284937 40.607937 
L 317.716119 40.509251 
L 318.147301 40.575042 
L 318.578483 40.838204 
L 320.30321 41.265844 
L 323.752665 41.594797 
L 325.908574 42.186914 
L 326.770937 42.482972 
L 328.064483 42.088228 
L 330.651574 41.792169 
L 331.513937 41.561902 
L 332.376301 41.726379 
L 333.238665 42.121123 
L 333.669847 42.647448 
L 334.53221 43.009297 
L 335.394574 43.042193 
L 336.688119 42.77903 
L 337.119301 42.581658 
L 337.981665 42.548762 
L 338.844028 42.811925 
L 339.27521 42.84482 
L 340.568756 42.450076 
L 341.431119 42.154018 
L 342.293483 42.35139 
L 343.155847 42.943506 
L 343.587028 43.107983 
L 346.605301 43.404041 
L 347.467665 44.292216 
L 347.898847 44.588274 
L 348.330028 44.654064 
L 349.192392 44.325111 
L 350.054756 43.700099 
L 350.917119 43.436937 
L 351.779483 43.732995 
L 353.50421 44.621169 
L 354.366574 44.423797 
L 355.660119 43.667204 
L 356.091301 43.634309 
L 357.384847 44.094844 
L 357.816028 44.029053 
L 359.109574 43.469832 
L 359.540756 43.371146 
L 359.971937 43.502727 
L 360.834301 44.061948 
L 361.265483 44.160634 
L 361.696665 44.390902 
L 362.99021 44.25932 
L 363.852574 44.68696 
L 365.577301 44.884332 
L 366.439665 44.917227 
L 367.73321 45.048809 
L 368.595574 45.509343 
L 369.457937 46.10146 
L 369.889119 46.068564 
L 370.320301 45.904088 
L 370.751483 45.608029 
L 371.613847 45.575134 
L 373.769756 46.792262 
L 374.632119 46.956739 
L 375.925665 47.318587 
L 376.788028 47.877808 
L 377.21921 48.108076 
L 378.512756 49.522576 
L 379.375119 49.98311 
L 382.393392 48.00939 
L 382.824574 47.844913 
L 384.118119 46.759367 
L 385.411665 46.035669 
L 385.842847 45.871192 
L 387.567574 46.397518 
L 388.429937 46.16725 
L 389.723483 45.67382 
L 390.154665 45.805402 
L 391.017028 45.640925 
L 391.44821 45.443553 
L 392.310574 45.279076 
L 393.172937 45.081704 
L 395.760028 45.377762 
L 396.19121 45.476448 
L 397.053574 46.364622 
L 398.347119 46.66068 
L 399.209483 46.529099 
L 400.503028 46.890948 
L 401.365392 47.417273 
L 401.796574 47.58175 
L 402.658937 47.548855 
L 403.521301 47.515959 
L 405.246028 48.50282 
L 405.67721 48.930459 
L 407.833119 49.555471 
L 409.557847 51.068657 
L 409.989028 51.167343 
L 411.713756 50.081796 
L 412.144937 50.048901 
L 412.576119 50.41075 
L 413.869665 52.285785 
L 414.300847 52.548947 
L 414.732028 52.680529 
L 415.594392 52.154203 
L 416.025574 51.627878 
L 416.456756 50.772599 
L 416.887938 50.673913 
L 417.750301 51.594982 
L 418.181483 51.693668 
L 418.612665 51.660773 
L 419.043847 51.266029 
L 419.475028 50.509436 
L 420.337392 49.719948 
L 421.199756 49.48968 
L 422.062119 49.851529 
L 422.924483 50.443645 
L 423.786847 51.364715 
L 424.64921 51.529192 
L 425.942756 51.233133 
L 426.373938 51.134447 
L 427.236301 50.608122 
L 427.667483 50.312064 
L 429.39221 48.371238 
L 429.823392 48.07518 
L 430.685756 47.779122 
L 431.116937 47.384378 
L 432.841665 46.858053 
L 434.13521 47.154111 
L 434.997574 47.351483 
L 435.428756 47.680436 
L 436.722301 48.042285 
L 437.153483 48.338343 
L 438.015847 49.390994 
L 438.447028 50.213378 
L 438.87821 51.298924 
L 439.309392 51.89104 
L 439.740574 52.252889 
L 440.602937 52.483157 
L 441.465301 52.581843 
L 442.327665 52.910796 
L 444.052392 53.930552 
L 444.914756 53.535808 
L 446.639483 52.351575 
L 447.501847 52.121308 
L 449.226574 51.956831 
L 450.520119 51.430506 
L 451.813665 50.180482 
L 452.244847 49.884424 
L 453.10721 49.029145 
L 453.538392 48.831773 
L 453.969574 48.469924 
L 454.831937 48.173866 
L 455.694301 48.272552 
L 457.419028 48.733087 
L 458.712574 48.634401 
L 459.143756 48.798878 
L 459.574938 49.094936 
L 460.868483 51.858145 
L 461.730847 52.647633 
L 462.59321 53.009482 
L 463.024392 53.075273 
L 463.886756 53.568703 
L 464.317937 53.996342 
L 464.749119 54.160819 
L 465.180301 54.127924 
L 465.611483 53.897656 
L 467.33621 52.417366 
L 467.767392 52.187099 
L 468.629756 51.496296 
L 469.060938 50.706808 
L 470.354483 49.456785 
L 470.785665 49.292308 
L 471.216847 49.325203 
L 473.372756 50.739703 
L 473.803937 50.871285 
L 474.235119 50.838389 
L 474.666301 51.101552 
L 475.528665 52.022622 
L 476.391028 53.371331 
L 476.82221 53.831866 
L 477.253392 54.029238 
L 478.978119 52.746319 
L 479.409301 52.81211 
L 479.840483 53.042377 
L 480.271665 53.404226 
L 481.134028 53.79897 
L 481.996392 53.470017 
L 482.427574 53.23975 
L 482.858756 53.141064 
L 483.721119 53.634494 
L 484.152301 54.22661 
L 485.014665 54.851621 
L 485.445847 54.950308 
L 485.877028 54.917412 
L 486.739392 54.555563 
L 487.170574 54.423982 
L 488.032938 54.588459 
L 489.326483 54.884517 
L 490.188847 54.654249 
L 490.620028 54.358191 
L 491.482392 54.062133 
L 491.913574 53.864761 
L 495.79421 54.752935 
L 497.518937 55.739796 
L 499.243665 56.233226 
L 499.674847 56.364807 
L 500.53721 56.956924 
L 501.399574 57.318772 
L 502.261937 57.483249 
L 503.124301 58.075365 
L 503.555483 58.601691 
L 503.986665 58.930644 
L 504.417847 58.766168 
L 504.849028 58.239842 
L 505.711392 56.825342 
L 506.142574 56.299017 
L 507.436119 55.805586 
L 508.298483 55.21347 
L 509.160847 54.983203 
L 510.454392 55.279261 
L 511.747937 55.608214 
L 513.041483 55.7069 
L 513.903847 56.101645 
L 514.335028 56.331912 
L 515.628574 58.667482 
L 516.059756 58.96354 
L 516.490937 58.634586 
L 517.784483 56.989819 
L 518.646847 56.496389 
L 519.078028 56.529284 
L 519.50921 56.792447 
L 519.940392 56.924028 
L 521.233938 57.779307 
L 521.665119 57.845098 
L 522.096301 57.680621 
L 522.958665 57.022714 
L 523.821028 56.463493 
L 524.25221 56.660865 
L 525.114574 57.581935 
L 525.976937 58.996435 
L 526.408119 59.45697 
L 526.839301 59.621447 
L 527.701665 59.259598 
L 528.99521 58.272737 
L 529.426392 58.206947 
L 529.857574 58.503005 
L 530.719938 60.147772 
L 531.151119 60.674098 
L 531.582301 60.87147 
L 532.875847 60.246458 
L 533.307028 60.410935 
L 534.169392 61.167528 
L 534.600574 61.529377 
L 535.031756 61.496481 
L 535.462937 61.134632 
L 536.325301 60.049086 
L 536.756483 59.851714 
L 537.187665 60.345144 
L 538.050028 62.384656 
L 538.912392 65.016283 
L 539.774756 66.364992 
L 541.068301 68.305818 
L 541.499483 67.318957 
L 542.793028 62.812295 
L 543.22421 62.647818 
L 543.655392 63.141248 
L 544.086574 63.338621 
L 544.517756 62.746504 
L 544.948937 61.825435 
L 545.380119 60.575412 
L 545.811301 58.568795 
L 546.242483 57.1214 
L 546.673665 56.397703 
L 547.536028 56.035854 
L 548.398392 55.772691 
L 549.260756 55.377947 
L 550.123119 55.14768 
L 550.554301 55.180575 
L 550.985483 55.345052 
L 551.847847 55.904273 
L 553.141392 56.62797 
L 553.572574 57.220086 
L 554.434937 58.700377 
L 554.866119 59.095121 
L 555.728483 59.062226 
L 556.159665 59.785923 
L 557.022028 62.220179 
L 557.45321 63.042562 
L 557.884392 63.404411 
L 558.746756 62.943876 
L 559.177937 62.549132 
L 560.040301 62.022807 
L 560.902665 61.101737 
L 561.765028 59.753028 
L 562.19621 58.799063 
L 562.627392 58.174051 
L 563.489756 57.647726 
L 563.920937 57.61483 
L 564.783301 57.910889 
L 565.214483 58.108261 
L 566.93921 59.555656 
L 567.370392 59.52276 
L 569.095119 58.141156 
L 569.526301 58.437214 
L 570.819847 60.706993 
L 571.251028 60.93726 
L 571.68221 60.805679 
L 572.544574 60.180667 
L 572.975756 59.9504 
L 573.406938 59.983295 
L 573.838119 60.279353 
L 574.700483 61.3649 
L 576.42521 64.424167 
L 576.856392 64.786016 
L 577.287574 64.522853 
L 578.149937 62.680714 
L 578.581119 63.108353 
L 579.012301 65.641295 
L 579.443483 70.279538 
L 579.874665 72.944061 
L 580.305847 73.075643 
L 580.737028 71.463771 
L 582.030574 64.654434 
L 582.461756 62.84519 
L 583.324119 61.200423 
L 584.186483 60.378039 
L 585.048847 59.720133 
L 585.480028 59.654342 
L 585.480028 59.654342 
" clip-path="url(#p4603c4f0e9)" style="fill: none; stroke: #1f77b4; stroke-width: 1.35; stroke-linecap: square"/>
   </g>
   <g id="line2d_28">
    <path d="M 68.061847 267.393046 
L 70.217756 255.120431 
L 71.511301 246.153474 
L 72.373665 239.80378 
L 73.66721 229.628513 
L 74.098392 227.01125 
L 75.391937 221.246855 
L 75.823119 218.072508 
L 76.254301 216.472999 
L 76.685483 214.316407 
L 77.116665 212.850886 
L 77.547847 208.648154 
L 78.41021 204.464278 
L 78.841392 201.033721 
L 79.272574 199.934865 
L 79.703756 199.259103 
L 80.997301 197.913532 
L 81.428483 196.928674 
L 82.290847 193.714344 
L 83.15321 192.756565 
L 84.015574 191.009026 
L 84.446756 190.288602 
L 85.309119 189.424829 
L 85.740301 188.77969 
L 86.171483 187.723748 
L 86.602665 185.502385 
L 87.89621 176.499754 
L 89.189756 162.670385 
L 89.620937 157.194927 
L 90.052119 150.110866 
L 90.483301 144.932371 
L 91.345665 130.807199 
L 93.070392 80.870921 
L 93.932756 50.314113 
L 94.363937 42.025068 
L 94.795119 38.662101 
L 95.226301 38.533457 
L 95.657483 39.237744 
L 96.088665 39.385154 
L 96.519847 43.687372 
L 97.38221 61.528359 
L 97.813392 69.504264 
L 98.675756 91.708583 
L 99.538119 116.304299 
L 99.969301 124.294662 
L 100.400483 128.188116 
L 100.831665 129.43234 
L 101.262847 128.816241 
L 101.694028 125.552528 
L 102.12521 121.419693 
L 103.418756 102.983275 
L 104.281119 91.992794 
L 104.712301 87.936513 
L 106.005847 71.744201 
L 106.437028 65.570837 
L 106.86821 51.019689 
L 107.299392 47.486169 
L 107.730574 42.273895 
L 108.592937 35.507811 
L 109.024119 34.415652 
L 109.455301 35.111793 
L 109.886483 37.455748 
L 110.317665 41.121396 
L 110.748847 46.865728 
L 111.61121 70.239055 
L 112.473574 86.62205 
L 112.904756 93.670762 
L 113.335938 97.096636 
L 113.767119 99.289471 
L 114.198301 100.300106 
L 114.629483 99.697007 
L 115.060665 98.688908 
L 115.491847 95.957995 
L 116.785392 84.22018 
L 118.941301 64.73195 
L 119.372483 63.057995 
L 119.803665 59.390735 
L 120.234847 58.204256 
L 120.666028 58.038164 
L 121.528392 72.072472 
L 122.390756 94.909253 
L 123.253119 113.700375 
L 123.684301 118.604529 
L 124.115483 118.317097 
L 124.546665 113.160789 
L 125.84021 83.753334 
L 126.702574 63.430837 
L 127.133756 48.001918 
L 127.996119 39.389869 
L 128.427301 37.227416 
L 128.858483 36.075906 
L 129.289665 39.254616 
L 129.720847 44.861925 
L 130.152028 52.788914 
L 131.014392 77.153575 
L 131.445574 97.974595 
L 131.876756 110.131722 
L 132.307937 118.935113 
L 132.739119 122.66731 
L 133.170301 127.693625 
L 133.601483 130.676316 
L 134.895028 147.280166 
L 135.757392 150.580611 
L 136.188574 150.433753 
L 136.619756 148.823695 
L 137.050937 145.597853 
L 137.482119 140.185194 
L 137.913301 132.208507 
L 138.344483 118.895547 
L 140.06921 87.915451 
L 140.500392 81.491749 
L 140.931574 72.977604 
L 141.793937 65.110655 
L 142.225119 67.057929 
L 142.656301 79.140902 
L 143.518665 92.864023 
L 146.105756 137.941676 
L 146.536937 141.840547 
L 146.968119 144.676227 
L 147.399301 145.361655 
L 147.830483 143.921503 
L 148.261665 145.776393 
L 148.692847 146.629174 
L 149.124028 146.182516 
L 149.55521 145.493465 
L 149.986392 144.330533 
L 150.417574 142.061608 
L 151.279937 132.743098 
L 151.711119 117.463939 
L 152.573483 98.876867 
L 154.729392 58.84326 
L 155.160574 54.329334 
L 155.591756 52.447917 
L 156.022937 55.5528 
L 156.454119 60.989129 
L 156.885301 71.015128 
L 157.316483 84.989517 
L 157.747665 91.221442 
L 158.178847 92.088607 
L 158.610028 90.341179 
L 159.472392 77.868081 
L 160.765938 58.267947 
L 161.197119 54.946408 
L 161.628301 55.777803 
L 162.059483 59.348916 
L 163.353028 76.501766 
L 165.077756 99.429692 
L 165.508938 107.576518 
L 167.664847 159.863042 
L 168.096028 161.754454 
L 168.52721 159.127941 
L 168.958392 153.677456 
L 169.389574 149.899375 
L 171.114301 138.300502 
L 171.545483 135.041381 
L 172.407847 130.104438 
L 172.839028 129.015103 
L 173.27021 128.935765 
L 174.132574 130.730353 
L 174.563756 133.193134 
L 174.994937 138.454361 
L 175.857301 156.293681 
L 176.288483 160.104357 
L 176.719665 161.671905 
L 177.150847 161.596065 
L 177.582028 159.370797 
L 178.01321 154.786111 
L 178.875574 140.747765 
L 179.737937 121.361467 
L 181.031483 89.960149 
L 181.893847 86.806951 
L 182.325028 86.82703 
L 182.75621 88.488204 
L 183.187392 88.706902 
L 183.618574 88.040031 
L 184.480937 85.942848 
L 184.912119 83.924144 
L 185.343301 84.791684 
L 186.205665 88.281187 
L 186.636847 88.569934 
L 187.068028 88.008808 
L 187.49921 85.126599 
L 187.930392 79.987291 
L 188.792756 61.77807 
L 189.223937 59.745166 
L 189.655119 56.099169 
L 190.086301 54.60496 
L 190.517483 53.55039 
L 190.948665 54.206927 
L 191.379847 60.358155 
L 192.24221 77.404914 
L 192.673392 89.223282 
L 193.535756 123.085578 
L 193.966937 132.237246 
L 194.398119 137.039624 
L 194.829301 137.918614 
L 195.691665 135.55646 
L 196.122847 134.523153 
L 196.554028 135.011923 
L 196.98521 135.7304 
L 197.416392 137.449944 
L 197.847574 140.41011 
L 198.278756 141.228887 
L 198.709937 141.501642 
L 199.141119 143.208897 
L 199.572301 144.098082 
L 200.434665 146.563707 
L 200.865847 147.591464 
L 203.021756 161.322709 
L 203.452937 161.269028 
L 203.884119 158.814102 
L 204.315301 152.071079 
L 206.040028 107.156027 
L 206.47121 98.068328 
L 207.764756 81.924759 
L 208.627119 74.654242 
L 209.058301 75.115738 
L 209.489483 79.15851 
L 210.783028 100.772443 
L 211.21421 104.072374 
L 211.645392 106.230424 
L 212.076574 106.176618 
L 213.370119 109.094185 
L 213.801301 111.455492 
L 214.232483 114.861277 
L 215.526028 127.489233 
L 217.250756 141.607282 
L 218.113119 155.305978 
L 218.975483 168.576626 
L 219.406665 171.974416 
L 219.837847 170.10523 
L 220.70021 157.153328 
L 221.131392 148.278522 
L 221.993756 137.767574 
L 222.424937 134.810929 
L 222.856119 133.120218 
L 223.287301 132.358304 
L 223.718483 132.824298 
L 224.149665 134.002589 
L 224.580847 135.845243 
L 225.44321 144.450485 
L 226.305574 160.708989 
L 226.736756 172.455891 
L 227.599119 184.677091 
L 228.030301 189.601881 
L 228.461483 193.18972 
L 228.892665 195.549749 
L 229.323847 196.07703 
L 229.755028 195.278855 
L 230.617392 187.892846 
L 231.048574 182.706795 
L 231.479756 175.775463 
L 232.342119 155.966694 
L 232.773301 147.991238 
L 233.204483 144.393572 
L 233.635665 143.499884 
L 234.066847 143.38438 
L 234.498028 145.539579 
L 234.92921 149.509394 
L 235.791574 165.708536 
L 236.222756 178.835449 
L 236.653937 186.485168 
L 237.085119 191.773449 
L 237.516301 195.536219 
L 237.947483 197.468103 
L 238.378665 197.656566 
L 238.809847 196.119739 
L 239.241028 193.586366 
L 240.965756 177.52355 
L 241.396937 176.435818 
L 243.121665 188.405889 
L 243.552847 190.390949 
L 243.984028 191.114933 
L 244.41521 190.61101 
L 244.846392 188.14362 
L 245.277574 183.144268 
L 245.708756 176.060912 
L 246.571119 149.739049 
L 247.433483 132.514873 
L 247.864665 128.335275 
L 248.295847 126.874322 
L 248.727028 127.203218 
L 249.589392 128.802904 
L 250.020574 130.65872 
L 250.451756 133.096388 
L 251.314119 140.989301 
L 252.176483 148.741732 
L 253.038847 154.296339 
L 253.470028 155.714312 
L 254.332392 156.36019 
L 254.763574 156.368333 
L 255.194756 155.994678 
L 255.625937 155.467316 
L 256.057119 154.475547 
L 256.488301 153.943312 
L 256.919483 153.212884 
L 257.350665 153.768284 
L 258.64421 159.665464 
L 259.075392 160.162847 
L 259.506574 161.043615 
L 260.368938 162.167062 
L 260.800119 163.408147 
L 261.231301 166.325001 
L 262.093665 177.954554 
L 262.524847 181.666314 
L 262.956028 184.136908 
L 263.38721 187.728034 
L 264.249574 192.862704 
L 264.680756 194.483903 
L 265.111937 194.663965 
L 265.543119 193.723577 
L 267.267847 184.472055 
L 268.13021 178.130864 
L 268.561392 176.47002 
L 268.992574 175.969335 
L 269.423756 178.31609 
L 270.286119 188.035129 
L 271.579665 201.404817 
L 272.442028 207.173872 
L 272.87321 208.776763 
L 273.304392 209.505604 
L 274.166756 210.451139 
L 274.597937 210.7851 
L 275.029119 210.204851 
L 275.460301 210.125255 
L 276.322665 210.952235 
L 277.61621 212.145767 
L 278.047392 212.197148 
L 278.478574 211.737968 
L 279.772119 208.70784 
L 280.203301 205.903493 
L 281.065665 196.517853 
L 281.496847 189.6425 
L 281.928028 180.545885 
L 282.35921 165.327784 
L 282.790392 154.380467 
L 283.652756 142.820715 
L 284.083937 140.905907 
L 284.515119 140.47512 
L 285.808665 146.537967 
L 286.671028 152.212919 
L 287.10221 155.203981 
L 287.964574 167.641987 
L 288.395756 177.346551 
L 289.258119 187.654642 
L 289.689301 191.221176 
L 290.120483 193.635775 
L 290.551665 194.314903 
L 290.982847 192.90339 
L 291.414028 190.019254 
L 291.84521 186.088956 
L 292.276392 180.449815 
L 293.138756 163.655161 
L 293.569937 157.097307 
L 294.001119 152.707652 
L 294.432301 150.484609 
L 294.863483 149.83969 
L 295.294665 151.126751 
L 295.725847 153.590419 
L 296.157028 158.311886 
L 297.881756 183.575449 
L 298.312937 184.553864 
L 298.744119 183.155802 
L 300.468847 152.600768 
L 300.900028 148.942088 
L 301.33121 147.244917 
L 301.762392 147.613265 
L 302.193574 150.363042 
L 302.624756 154.051621 
L 303.487119 169.695571 
L 303.918301 179.851542 
L 304.349483 185.061224 
L 304.780665 188.277719 
L 305.211847 189.826669 
L 305.643028 189.615379 
L 306.505392 185.170098 
L 307.367756 178.342664 
L 307.798937 177.560839 
L 308.230119 181.488988 
L 309.092483 191.064131 
L 309.954847 197.85288 
L 310.386028 198.270941 
L 310.81721 196.608445 
L 311.248392 192.797467 
L 311.679574 186.052834 
L 312.110756 173.460783 
L 312.973119 157.068974 
L 313.404301 152.823038 
L 313.835483 151.396665 
L 314.266665 152.118773 
L 314.697847 155.810702 
L 315.129028 161.228195 
L 315.56021 170.51619 
L 316.422574 195.803643 
L 316.853756 202.700219 
L 317.284937 207.589037 
L 318.147301 212.216352 
L 318.578483 213.688525 
L 319.440847 214.74424 
L 319.872028 215.5142 
L 320.30321 215.646328 
L 320.734392 215.471124 
L 322.027938 213.135847 
L 322.459119 211.322818 
L 323.321483 204.71049 
L 325.477392 181.234013 
L 325.908574 177.754944 
L 326.339756 179.754398 
L 328.064483 194.678102 
L 328.495665 197.39508 
L 328.926847 199.32706 
L 329.358028 199.156906 
L 329.78921 197.064678 
L 330.220392 193.911524 
L 331.945119 176.187048 
L 332.376301 174.010433 
L 332.807483 177.399886 
L 334.101028 193.264246 
L 335.394574 214.100967 
L 336.256937 229.715729 
L 336.688119 231.318975 
L 337.119301 230.896073 
L 337.981665 225.245421 
L 339.27521 218.44094 
L 339.706392 216.621467 
L 340.137574 213.686498 
L 341.431119 200.016306 
L 342.293483 186.269322 
L 342.724665 176.073739 
L 343.587028 163.005706 
L 344.01821 159.654085 
L 344.449392 157.963374 
L 344.880574 158.102139 
L 345.311756 159.501884 
L 345.742938 163.225219 
L 346.605301 176.628076 
L 347.036483 187.698573 
L 348.330028 205.187692 
L 348.76121 208.937736 
L 349.623574 218.152119 
L 350.485937 228.201312 
L 350.917119 229.576612 
L 351.348301 228.575081 
L 351.779483 226.595136 
L 352.210665 223.934203 
L 353.935392 197.608361 
L 354.366574 192.885146 
L 354.797756 189.613153 
L 355.228938 187.230248 
L 355.660119 185.933038 
L 356.091301 185.456991 
L 356.522483 186.749037 
L 356.953665 190.75981 
L 357.816028 205.739365 
L 358.24721 210.848019 
L 358.678392 213.677666 
L 359.109574 214.44798 
L 359.540756 211.964143 
L 359.971937 207.878567 
L 361.265483 186.067468 
L 361.696665 183.52207 
L 362.127847 182.109067 
L 362.559028 182.091032 
L 362.99021 182.494232 
L 363.421392 183.369869 
L 364.283756 183.708399 
L 364.714938 184.500018 
L 365.146119 186.451797 
L 365.577301 188.965436 
L 366.439665 201.152057 
L 368.164392 219.300956 
L 369.026756 231.87736 
L 369.457937 235.580671 
L 369.889119 238.106062 
L 370.320301 239.544172 
L 370.751483 239.009182 
L 371.182665 238.272279 
L 372.045028 233.700847 
L 372.907392 223.101629 
L 373.769756 210.864795 
L 374.200938 210.063107 
L 375.063301 212.607666 
L 375.494483 212.131362 
L 375.925665 212.251674 
L 376.356847 212.930382 
L 377.21921 215.797089 
L 377.650392 216.103875 
L 378.512756 212.99251 
L 379.375119 207.698616 
L 379.806301 206.1952 
L 380.237483 206.934625 
L 380.668665 206.768241 
L 381.099847 206.353789 
L 381.531028 209.907485 
L 384.118119 248.762159 
L 384.549301 253.446131 
L 384.980483 255.353536 
L 385.411665 254.657976 
L 386.274028 252.960579 
L 387.136392 249.305998 
L 387.998756 244.984057 
L 388.429937 242.313456 
L 388.861119 238.720695 
L 389.292301 233.577767 
L 389.723483 230.502107 
L 390.154665 228.419528 
L 390.585847 227.451118 
L 391.017028 226.950464 
L 391.44821 226.742461 
L 391.879392 226.787124 
L 392.741756 227.831957 
L 393.172937 229.507888 
L 393.604119 232.001794 
L 394.035301 237.042491 
L 394.897665 243.722681 
L 397.484756 259.522808 
L 397.915937 261.292745 
L 398.347119 262.004945 
L 398.778301 261.036535 
L 399.640665 257.131132 
L 403.090119 235.76712 
L 403.521301 233.924305 
L 403.952483 235.145382 
L 404.814847 240.215431 
L 405.67721 245.542827 
L 406.539574 249.25781 
L 406.970756 249.742015 
L 407.401938 249.140268 
L 408.264301 244.0525 
L 408.695483 239.188047 
L 409.126665 232.00834 
L 409.557847 228.09585 
L 410.42021 224.141105 
L 410.851392 222.948243 
L 411.282574 222.784902 
L 411.713756 223.512414 
L 412.576119 226.238994 
L 413.007301 227.981853 
L 413.438483 229.11474 
L 414.300847 230.581396 
L 414.732028 230.561405 
L 416.025574 229.769374 
L 416.456756 229.714214 
L 417.750301 230.395792 
L 418.181483 230.949332 
L 418.612665 232.051732 
L 419.043847 233.856972 
L 419.90621 241.23773 
L 421.199756 249.384711 
L 422.493301 256.953346 
L 422.924483 257.926437 
L 423.355665 257.740697 
L 424.218028 253.262899 
L 425.942756 242.575077 
L 427.236301 233.269401 
L 427.667483 231.873215 
L 428.098665 231.054105 
L 428.961028 230.303193 
L 429.39221 229.378309 
L 430.685756 225.422427 
L 431.548119 221.958975 
L 432.410483 221.046994 
L 432.841665 220.749665 
L 433.272847 220.713226 
L 434.13521 221.405435 
L 434.566392 222.072972 
L 435.428756 225.291982 
L 435.859938 225.906632 
L 436.291119 225.886641 
L 436.722301 225.329557 
L 437.584665 223.525453 
L 438.015847 222.757958 
L 438.447028 222.910667 
L 439.309392 225.762878 
L 439.740574 228.233248 
L 440.171756 231.650901 
L 440.602937 239.238391 
L 441.034119 244.588186 
L 443.190028 260.472958 
L 444.483574 266.795844 
L 444.914756 268.53643 
L 445.345937 269.617702 
L 445.777119 269.242814 
L 447.933028 258.390515 
L 449.226574 249.261083 
L 450.088937 241.693585 
L 450.520119 234.215412 
L 450.951301 229.242913 
L 451.382483 226.62565 
L 451.813665 224.753483 
L 452.244847 223.568845 
L 452.676028 223.083503 
L 453.10721 223.460799 
L 453.538392 224.257645 
L 454.400756 226.241537 
L 454.831937 226.896171 
L 455.263119 226.692847 
L 456.125483 224.944038 
L 456.556665 223.760536 
L 456.987847 222.955465 
L 457.419028 222.857916 
L 457.85021 223.423223 
L 458.281392 224.562062 
L 458.712574 226.270889 
L 459.143756 228.480368 
L 460.437301 240.967344 
L 460.868483 242.096688 
L 461.299665 241.73584 
L 462.162028 238.332227 
L 462.59321 236.249648 
L 463.024392 234.891038 
L 463.455574 236.217889 
L 464.317937 241.785048 
L 466.042665 252.503493 
L 467.33621 259.900698 
L 468.629756 265.963965 
L 469.923301 270.235031 
L 474.666301 270.677982 
L 475.097483 268.965241 
L 476.391028 262.178757 
L 477.684574 252.434095 
L 478.546938 241.925602 
L 479.409301 228.742387 
L 481.56521 196.659683 
L 481.996392 200.305717 
L 485.445847 252.260712 
L 486.739392 261.455104 
L 487.170574 263.164124 
L 487.601756 263.36073 
L 488.464119 260.735848 
L 488.895301 258.544225 
L 490.188847 249.406569 
L 491.05121 242.115273 
L 491.482392 234.979093 
L 491.913574 230.117047 
L 492.344756 227.920471 
L 492.775937 226.472535 
L 493.207119 225.651017 
L 493.638301 225.358368 
L 494.069483 226.107007 
L 494.500665 227.286965 
L 494.931847 229.321337 
L 495.363028 232.897651 
L 495.79421 239.700062 
L 496.225392 244.578555 
L 497.518937 254.120451 
L 498.381301 259.942683 
L 499.674847 266.757998 
L 500.106028 268.744163 
L 500.53721 269.656143 
L 500.968392 269.758373 
L 501.399574 269.111963 
L 502.261937 265.609664 
L 504.417847 253.713533 
L 506.142574 241.726074 
L 507.004937 234.882544 
L 507.867301 232.733039 
L 508.298483 232.569698 
L 508.729665 232.74835 
L 509.160847 232.776566 
L 509.592028 232.68724 
L 510.02321 232.439253 
L 510.454392 232.639033 
L 510.885574 233.465231 
L 511.316756 234.547639 
L 512.610301 242.867321 
L 513.472665 245.321243 
L 513.903847 245.008602 
L 514.76621 242.28543 
L 516.059756 236.468879 
L 516.490937 237.39149 
L 517.784483 244.966212 
L 520.802756 263.132206 
L 521.665119 267.392505 
L 522.527483 270.690345 
L 522.958665 271.893838 
L 523.389847 272.084258 
L 523.821028 272.018467 
L 524.683392 272.17472 
L 526.839301 272.807955 
L 527.701665 272.717493 
L 528.132847 272.415484 
L 528.564028 271.055737 
L 530.288756 263.653852 
L 531.151119 259.4792 
L 533.73821 242.91385 
L 534.600574 236.475696 
L 535.462937 234.737518 
L 535.894119 234.658823 
L 536.325301 234.994999 
L 536.756483 235.157204 
L 538.050028 234.997137 
L 538.912392 237.082988 
L 539.774756 243.766587 
L 541.068301 252.925235 
L 542.793028 262.076336 
L 543.655392 265.596219 
L 544.086574 266.121544 
L 544.517756 264.968665 
L 545.380119 260.406491 
L 546.673665 251.164604 
L 547.96721 242.852009 
L 548.829574 235.084731 
L 549.260756 233.40412 
L 549.691937 232.260601 
L 550.554301 231.662398 
L 550.985483 231.597744 
L 551.847847 231.949096 
L 552.279028 232.323984 
L 552.71021 233.255956 
L 553.141392 234.933023 
L 554.866119 248.665748 
L 557.45321 264.884019 
L 557.884392 267.301502 
L 559.177937 272.164819 
L 559.609119 272.160139 
L 560.040301 271.239935 
L 562.19621 259.803744 
L 563.920937 246.285975 
L 564.352119 241.550831 
L 564.783301 234.724884 
L 565.214483 230.173072 
L 566.076847 226.395707 
L 566.508028 225.709314 
L 566.93921 226.039539 
L 567.370392 227.036165 
L 567.801574 228.585195 
L 568.232756 231.069741 
L 568.663937 235.897755 
L 569.095119 243.35012 
L 569.957483 251.334761 
L 571.251028 260.814275 
L 573.406938 271.258925 
L 573.838119 272.655111 
L 574.269301 273.09579 
L 575.994028 273.80304 
L 576.856392 274.099098 
L 577.287574 274.033307 
L 578.149937 273.572772 
L 578.581119 273.679682 
L 579.012301 274.312917 
L 579.443483 275.472478 
L 579.874665 276.138609 
L 580.305847 276.171504 
L 580.737028 275.768536 
L 582.030574 274.066202 
L 582.461756 273.13791 
L 583.324119 269.765055 
L 584.186483 265.963154 
L 585.480028 258.90694 
L 585.480028 258.90694 
" clip-path="url(#p4603c4f0e9)" style="fill: none; stroke: #ff7f0e; stroke-width: 1.65; stroke-linecap: square"/>
   </g>
   <g id="line2d_29">
    <path d="M 68.061847 98.795204 
L 70.217756 111.067819 
L 71.511301 120.034776 
L 72.373665 126.38447 
L 73.66721 136.559737 
L 74.098392 139.177 
L 75.391937 144.941395 
L 75.823119 148.115742 
L 76.254301 149.715251 
L 76.685483 151.871843 
L 77.116665 153.337364 
L 77.547847 157.540096 
L 78.41021 161.723972 
L 78.841392 165.154529 
L 79.272574 166.253385 
L 79.703756 166.929147 
L 80.997301 168.274718 
L 81.428483 169.259576 
L 82.290847 172.473906 
L 83.15321 173.431685 
L 84.015574 175.179224 
L 84.446756 175.899648 
L 85.309119 176.763421 
L 85.740301 177.40856 
L 86.171483 178.464502 
L 86.602665 180.685865 
L 87.89621 189.688496 
L 89.189756 203.517865 
L 89.620937 208.993323 
L 90.052119 216.077384 
L 90.483301 221.255879 
L 91.345665 235.381051 
L 93.070392 285.317329 
L 93.932756 315.874137 
L 94.363937 324.163182 
L 94.795119 327.526149 
L 95.226301 327.654793 
L 95.657483 326.950506 
L 96.088665 326.803096 
L 96.519847 322.500878 
L 97.38221 304.659891 
L 97.813392 296.683986 
L 98.675756 274.479667 
L 99.538119 249.883951 
L 99.969301 241.893588 
L 100.400483 238.000134 
L 100.831665 236.75591 
L 101.262847 237.372009 
L 101.694028 240.635722 
L 102.12521 244.768557 
L 103.418756 263.204975 
L 104.281119 274.195456 
L 104.712301 278.251737 
L 106.005847 294.444049 
L 106.437028 300.617413 
L 106.86821 315.168561 
L 107.299392 318.702081 
L 107.730574 323.914355 
L 108.592937 330.680439 
L 109.024119 331.772598 
L 109.455301 331.076457 
L 109.886483 328.732502 
L 110.317665 325.066854 
L 110.748847 319.322522 
L 111.61121 295.949195 
L 112.473574 279.5662 
L 112.904756 272.517488 
L 113.335938 269.091614 
L 113.767119 266.898779 
L 114.198301 265.888144 
L 114.629483 266.491243 
L 115.060665 267.499342 
L 115.491847 270.230255 
L 116.785392 281.96807 
L 118.941301 301.4563 
L 119.372483 303.130255 
L 119.803665 306.797515 
L 120.234847 307.983994 
L 120.666028 308.150086 
L 121.528392 294.115778 
L 122.390756 271.278997 
L 123.253119 252.487875 
L 123.684301 247.583721 
L 124.115483 247.871153 
L 124.546665 253.027461 
L 125.84021 282.434916 
L 126.702574 302.757413 
L 127.133756 318.186332 
L 127.996119 326.798381 
L 128.427301 328.960834 
L 128.858483 330.112344 
L 129.289665 326.933634 
L 129.720847 321.326325 
L 130.152028 313.399336 
L 131.014392 289.034675 
L 131.445574 268.213655 
L 131.876756 256.056528 
L 132.307937 247.253137 
L 132.739119 243.52094 
L 133.170301 238.494625 
L 133.601483 235.511934 
L 134.895028 218.908084 
L 135.757392 215.607639 
L 136.188574 215.754497 
L 136.619756 217.364555 
L 137.050937 220.590397 
L 137.482119 226.003056 
L 137.913301 233.979743 
L 138.344483 247.292703 
L 140.06921 278.272799 
L 140.500392 284.696501 
L 140.931574 293.210646 
L 141.793937 301.077595 
L 142.225119 299.130321 
L 142.656301 287.047348 
L 143.518665 273.324227 
L 146.105756 228.246574 
L 146.536937 224.347703 
L 146.968119 221.512023 
L 147.399301 220.826595 
L 147.830483 222.266747 
L 148.261665 220.411857 
L 148.692847 219.559076 
L 149.124028 220.005734 
L 149.55521 220.694785 
L 149.986392 221.857717 
L 150.417574 224.126642 
L 151.279937 233.445152 
L 151.711119 248.724311 
L 152.573483 267.311383 
L 154.729392 307.34499 
L 155.160574 311.858916 
L 155.591756 313.740333 
L 156.022937 310.63545 
L 156.454119 305.199121 
L 156.885301 295.173122 
L 157.316483 281.198733 
L 157.747665 274.966808 
L 158.178847 274.099643 
L 158.610028 275.847071 
L 159.472392 288.320169 
L 160.765938 307.920303 
L 161.197119 311.241842 
L 161.628301 310.410447 
L 162.059483 306.839334 
L 163.353028 289.686484 
L 165.077756 266.758558 
L 165.508938 258.611732 
L 167.664847 206.325208 
L 168.096028 204.433796 
L 168.52721 207.060309 
L 168.958392 212.510794 
L 169.389574 216.288875 
L 171.114301 227.887748 
L 171.545483 231.146869 
L 172.407847 236.083812 
L 172.839028 237.173147 
L 173.27021 237.252485 
L 174.132574 235.457897 
L 174.563756 232.995116 
L 174.994937 227.733889 
L 175.857301 209.894569 
L 176.288483 206.083893 
L 176.719665 204.516345 
L 177.150847 204.592185 
L 177.582028 206.817453 
L 178.01321 211.402139 
L 178.875574 225.440485 
L 179.737937 244.826783 
L 181.031483 276.228101 
L 181.893847 279.381299 
L 182.325028 279.36122 
L 182.75621 277.700046 
L 183.187392 277.481348 
L 183.618574 278.148219 
L 184.480937 280.245402 
L 184.912119 282.264106 
L 185.343301 281.396566 
L 186.205665 277.907063 
L 186.636847 277.618316 
L 187.068028 278.179442 
L 187.49921 281.061651 
L 187.930392 286.200959 
L 188.792756 304.41018 
L 189.223937 306.443084 
L 189.655119 310.089081 
L 190.086301 311.58329 
L 190.517483 312.63786 
L 190.948665 311.981323 
L 191.379847 305.830095 
L 192.24221 288.783336 
L 192.673392 276.964968 
L 193.535756 243.102672 
L 193.966937 233.951004 
L 194.398119 229.148626 
L 194.829301 228.269636 
L 195.691665 230.63179 
L 196.122847 231.665097 
L 196.554028 231.176327 
L 196.98521 230.45785 
L 197.416392 228.738306 
L 197.847574 225.77814 
L 198.278756 224.959363 
L 198.709937 224.686608 
L 199.141119 222.979353 
L 199.572301 222.090168 
L 200.434665 219.624543 
L 200.865847 218.596786 
L 203.021756 204.865541 
L 203.452937 204.919222 
L 203.884119 207.374148 
L 204.315301 214.117171 
L 206.040028 259.032223 
L 206.47121 268.119922 
L 207.764756 284.263491 
L 208.627119 291.534008 
L 209.058301 291.072512 
L 209.489483 287.02974 
L 210.783028 265.415807 
L 211.21421 262.115876 
L 211.645392 259.957826 
L 212.076574 260.011632 
L 213.370119 257.094065 
L 213.801301 254.732758 
L 214.232483 251.326973 
L 215.526028 238.699017 
L 217.250756 224.580968 
L 218.113119 210.882272 
L 218.975483 197.611624 
L 219.406665 194.213834 
L 219.837847 196.08302 
L 220.70021 209.034922 
L 221.131392 217.909728 
L 221.993756 228.420676 
L 222.424937 231.377321 
L 222.856119 233.068032 
L 223.287301 233.829946 
L 223.718483 233.363952 
L 224.149665 232.185661 
L 224.580847 230.343007 
L 225.44321 221.737765 
L 226.305574 205.479261 
L 226.736756 193.732359 
L 227.599119 181.511159 
L 228.030301 176.586369 
L 228.461483 172.99853 
L 228.892665 170.638501 
L 229.323847 170.11122 
L 229.755028 170.909395 
L 230.617392 178.295404 
L 231.048574 183.481455 
L 231.479756 190.412787 
L 232.342119 210.221556 
L 232.773301 218.197012 
L 233.204483 221.794678 
L 233.635665 222.688366 
L 234.066847 222.80387 
L 234.498028 220.648671 
L 234.92921 216.678856 
L 235.791574 200.479714 
L 236.222756 187.352801 
L 236.653937 179.703082 
L 237.085119 174.414801 
L 237.516301 170.652031 
L 237.947483 168.720147 
L 238.378665 168.531684 
L 238.809847 170.068511 
L 239.241028 172.601884 
L 240.965756 188.6647 
L 241.396937 189.752432 
L 243.121665 177.782361 
L 243.552847 175.797301 
L 243.984028 175.073317 
L 244.41521 175.57724 
L 244.846392 178.04463 
L 245.277574 183.043982 
L 245.708756 190.127338 
L 246.571119 216.449201 
L 247.433483 233.673377 
L 247.864665 237.852975 
L 248.295847 239.313928 
L 248.727028 238.985032 
L 249.589392 237.385346 
L 250.020574 235.52953 
L 250.451756 233.091862 
L 251.314119 225.198949 
L 252.176483 217.446518 
L 253.038847 211.891911 
L 253.470028 210.473938 
L 254.332392 209.82806 
L 254.763574 209.819917 
L 255.194756 210.193572 
L 255.625937 210.720934 
L 256.057119 211.712703 
L 256.488301 212.244938 
L 256.919483 212.975366 
L 257.350665 212.419966 
L 258.64421 206.522786 
L 259.075392 206.025403 
L 259.506574 205.144635 
L 260.368938 204.021188 
L 260.800119 202.780103 
L 261.231301 199.863249 
L 262.093665 188.233696 
L 262.524847 184.521936 
L 262.956028 182.051342 
L 263.38721 178.460216 
L 264.249574 173.325546 
L 264.680756 171.704347 
L 265.111937 171.524285 
L 265.543119 172.464673 
L 267.267847 181.716195 
L 268.13021 188.057386 
L 268.561392 189.71823 
L 268.992574 190.218915 
L 269.423756 187.87216 
L 270.286119 178.153121 
L 271.579665 164.783433 
L 272.442028 159.014378 
L 272.87321 157.411487 
L 273.304392 156.682646 
L 274.166756 155.737111 
L 274.597937 155.40315 
L 275.029119 155.983399 
L 275.460301 156.062995 
L 276.322665 155.236015 
L 277.61621 154.042483 
L 278.047392 153.991102 
L 278.478574 154.450282 
L 279.772119 157.48041 
L 280.203301 160.284757 
L 281.065665 169.670397 
L 281.496847 176.54575 
L 281.928028 185.642365 
L 282.35921 200.860466 
L 282.790392 211.807783 
L 283.652756 223.367535 
L 284.083937 225.282343 
L 284.515119 225.71313 
L 285.808665 219.650283 
L 286.671028 213.975331 
L 287.10221 210.984269 
L 287.964574 198.546263 
L 288.395756 188.841699 
L 289.258119 178.533608 
L 289.689301 174.967074 
L 290.120483 172.552475 
L 290.551665 171.873347 
L 290.982847 173.28486 
L 291.414028 176.168996 
L 291.84521 180.099294 
L 292.276392 185.738435 
L 293.138756 202.533089 
L 293.569937 209.090943 
L 294.001119 213.480598 
L 294.432301 215.703641 
L 294.863483 216.34856 
L 295.294665 215.061499 
L 295.725847 212.597831 
L 296.157028 207.876364 
L 297.881756 182.612801 
L 298.312937 181.634386 
L 298.744119 183.032448 
L 300.468847 213.587482 
L 300.900028 217.246162 
L 301.33121 218.943333 
L 301.762392 218.574985 
L 302.193574 215.825208 
L 302.624756 212.136629 
L 303.487119 196.492679 
L 303.918301 186.336708 
L 304.349483 181.127026 
L 304.780665 177.910531 
L 305.211847 176.361581 
L 305.643028 176.572871 
L 306.505392 181.018152 
L 307.367756 187.845586 
L 307.798937 188.627411 
L 308.230119 184.699262 
L 309.092483 175.124119 
L 309.954847 168.33537 
L 310.386028 167.917309 
L 310.81721 169.579805 
L 311.248392 173.390783 
L 311.679574 180.135416 
L 312.110756 192.727467 
L 312.973119 209.119276 
L 313.404301 213.365212 
L 313.835483 214.791585 
L 314.266665 214.069477 
L 314.697847 210.377548 
L 315.129028 204.960055 
L 315.56021 195.67206 
L 316.422574 170.384607 
L 316.853756 163.488031 
L 317.284937 158.599213 
L 318.147301 153.971898 
L 318.578483 152.499725 
L 319.440847 151.44401 
L 319.872028 150.67405 
L 320.30321 150.541922 
L 320.734392 150.717126 
L 322.027938 153.052403 
L 322.459119 154.865432 
L 323.321483 161.47776 
L 325.477392 184.954237 
L 325.908574 188.433306 
L 326.339756 186.433852 
L 328.064483 171.510148 
L 328.495665 168.79317 
L 328.926847 166.86119 
L 329.358028 167.031344 
L 329.78921 169.123572 
L 330.220392 172.276726 
L 331.945119 190.001202 
L 332.376301 192.177817 
L 332.807483 188.788364 
L 334.101028 172.924004 
L 335.394574 152.087283 
L 336.256937 136.472521 
L 336.688119 134.869275 
L 337.119301 135.292177 
L 337.981665 140.942829 
L 339.27521 147.74731 
L 339.706392 149.566783 
L 340.137574 152.501752 
L 341.431119 166.171944 
L 342.293483 179.918928 
L 342.724665 190.114511 
L 343.587028 203.182544 
L 344.01821 206.534165 
L 344.449392 208.224876 
L 344.880574 208.086111 
L 345.311756 206.686366 
L 345.742938 202.963031 
L 346.605301 189.560174 
L 347.036483 178.489677 
L 348.330028 161.000558 
L 348.76121 157.250514 
L 349.623574 148.036131 
L 350.485937 137.986938 
L 350.917119 136.611638 
L 351.348301 137.613169 
L 351.779483 139.593114 
L 352.210665 142.254047 
L 353.935392 168.579889 
L 354.366574 173.303104 
L 354.797756 176.575097 
L 355.228938 178.958002 
L 355.660119 180.255212 
L 356.091301 180.731259 
L 356.522483 179.439213 
L 356.953665 175.42844 
L 357.816028 160.448885 
L 358.24721 155.340231 
L 358.678392 152.510584 
L 359.109574 151.74027 
L 359.540756 154.224107 
L 359.971937 158.309683 
L 361.265483 180.120782 
L 361.696665 182.66618 
L 362.127847 184.079183 
L 362.559028 184.097218 
L 362.99021 183.694018 
L 363.421392 182.818381 
L 364.283756 182.479851 
L 364.714938 181.688232 
L 365.146119 179.736453 
L 365.577301 177.222814 
L 366.439665 165.036193 
L 368.164392 146.887294 
L 369.026756 134.31089 
L 369.457937 130.607579 
L 369.889119 128.082188 
L 370.320301 126.644078 
L 370.751483 127.179068 
L 371.182665 127.915971 
L 372.045028 132.487403 
L 372.907392 143.086621 
L 373.769756 155.323455 
L 374.200938 156.125143 
L 375.063301 153.580584 
L 375.494483 154.056888 
L 375.925665 153.936576 
L 376.356847 153.257868 
L 377.21921 150.391161 
L 377.650392 150.084375 
L 378.512756 153.19574 
L 379.375119 158.489634 
L 379.806301 159.99305 
L 380.237483 159.253625 
L 380.668665 159.420009 
L 381.099847 159.834461 
L 381.531028 156.280765 
L 384.118119 117.426091 
L 384.549301 112.742119 
L 384.980483 110.834714 
L 385.411665 111.530274 
L 386.274028 113.227671 
L 387.136392 116.882252 
L 387.998756 121.204193 
L 388.429937 123.874794 
L 388.861119 127.467555 
L 389.292301 132.610483 
L 389.723483 135.686143 
L 390.154665 137.768722 
L 390.585847 138.737132 
L 391.017028 139.237786 
L 391.44821 139.445789 
L 391.879392 139.401126 
L 392.741756 138.356293 
L 393.172937 136.680362 
L 393.604119 134.186456 
L 394.035301 129.145759 
L 394.897665 122.465569 
L 397.484756 106.665442 
L 397.915937 104.895505 
L 398.347119 104.183305 
L 398.778301 105.151715 
L 399.640665 109.057118 
L 403.090119 130.42113 
L 403.521301 132.263945 
L 403.952483 131.042868 
L 404.814847 125.972819 
L 405.67721 120.645423 
L 406.539574 116.93044 
L 406.970756 116.446235 
L 407.401938 117.047982 
L 408.264301 122.13575 
L 408.695483 127.000203 
L 409.126665 134.17991 
L 409.557847 138.0924 
L 410.42021 142.047145 
L 410.851392 143.240007 
L 411.282574 143.403348 
L 411.713756 142.675836 
L 412.576119 139.949256 
L 413.007301 138.206397 
L 413.438483 137.07351 
L 414.300847 135.606854 
L 414.732028 135.626845 
L 416.025574 136.418876 
L 416.456756 136.474036 
L 417.750301 135.792458 
L 418.181483 135.238918 
L 418.612665 134.136518 
L 419.043847 132.331278 
L 419.90621 124.95052 
L 421.199756 116.803539 
L 422.493301 109.234904 
L 422.924483 108.261813 
L 423.355665 108.447553 
L 424.218028 112.925351 
L 425.942756 123.613173 
L 427.236301 132.918849 
L 427.667483 134.315035 
L 428.098665 135.134145 
L 428.961028 135.885057 
L 429.39221 136.809941 
L 430.685756 140.765823 
L 431.548119 144.229275 
L 432.410483 145.141256 
L 432.841665 145.438585 
L 433.272847 145.475024 
L 434.13521 144.782815 
L 434.566392 144.115278 
L 435.428756 140.896268 
L 435.859938 140.281618 
L 436.291119 140.301609 
L 436.722301 140.858693 
L 437.584665 142.662797 
L 438.015847 143.430292 
L 438.447028 143.277583 
L 439.309392 140.425372 
L 439.740574 137.955002 
L 440.171756 134.537349 
L 440.602937 126.949859 
L 441.034119 121.600064 
L 443.190028 105.715292 
L 444.483574 99.392406 
L 444.914756 97.65182 
L 445.345937 96.570548 
L 445.777119 96.945436 
L 447.933028 107.797735 
L 449.226574 116.927167 
L 450.088937 124.494665 
L 450.520119 131.972838 
L 450.951301 136.945337 
L 451.382483 139.5626 
L 451.813665 141.434767 
L 452.244847 142.619405 
L 452.676028 143.104747 
L 453.10721 142.727451 
L 453.538392 141.930605 
L 454.400756 139.946713 
L 454.831937 139.292079 
L 455.263119 139.495403 
L 456.125483 141.244212 
L 456.556665 142.427714 
L 456.987847 143.232785 
L 457.419028 143.330334 
L 457.85021 142.765027 
L 458.281392 141.626188 
L 458.712574 139.917361 
L 459.143756 137.707882 
L 460.437301 125.220906 
L 460.868483 124.091562 
L 461.299665 124.45241 
L 462.162028 127.856023 
L 462.59321 129.938602 
L 463.024392 131.297212 
L 463.455574 129.970361 
L 464.317937 124.403202 
L 466.042665 113.684757 
L 467.33621 106.287552 
L 468.629756 100.224285 
L 469.923301 95.953219 
L 474.666301 95.510268 
L 475.097483 97.223009 
L 476.391028 104.009493 
L 477.684574 113.754155 
L 478.546938 124.262648 
L 479.409301 137.445863 
L 481.56521 169.528567 
L 481.996392 165.882533 
L 485.445847 113.927538 
L 486.739392 104.733146 
L 487.170574 103.024126 
L 487.601756 102.82752 
L 488.464119 105.452402 
L 488.895301 107.644025 
L 490.188847 116.781681 
L 491.05121 124.072977 
L 491.482392 131.209157 
L 491.913574 136.071203 
L 492.344756 138.267779 
L 492.775937 139.715715 
L 493.207119 140.537233 
L 493.638301 140.829882 
L 494.069483 140.081243 
L 494.500665 138.901285 
L 494.931847 136.866913 
L 495.363028 133.290599 
L 495.79421 126.488188 
L 496.225392 121.609695 
L 497.518937 112.067799 
L 498.381301 106.245567 
L 499.674847 99.430252 
L 500.106028 97.444087 
L 500.53721 96.532107 
L 500.968392 96.429877 
L 501.399574 97.076287 
L 502.261937 100.578586 
L 504.417847 112.474717 
L 506.142574 124.462176 
L 507.004937 131.305706 
L 507.867301 133.455211 
L 508.298483 133.618552 
L 508.729665 133.4399 
L 509.160847 133.411684 
L 509.592028 133.50101 
L 510.02321 133.748997 
L 510.454392 133.549217 
L 510.885574 132.723019 
L 511.316756 131.640611 
L 512.610301 123.320929 
L 513.472665 120.867007 
L 513.903847 121.179648 
L 514.76621 123.90282 
L 516.059756 129.719371 
L 516.490937 128.79676 
L 517.784483 121.222038 
L 520.802756 103.056044 
L 521.665119 98.795745 
L 522.527483 95.497905 
L 522.958665 94.294412 
L 523.389847 94.103992 
L 523.821028 94.169783 
L 524.683392 94.01353 
L 526.839301 93.380295 
L 527.701665 93.470757 
L 528.132847 93.772766 
L 528.564028 95.132513 
L 530.288756 102.534398 
L 531.151119 106.70905 
L 533.73821 123.2744 
L 534.600574 129.712554 
L 535.462937 131.450732 
L 535.894119 131.529427 
L 536.325301 131.193251 
L 536.756483 131.031046 
L 538.050028 131.191113 
L 538.912392 129.105262 
L 539.774756 122.421663 
L 541.068301 113.263015 
L 542.793028 104.111914 
L 543.655392 100.592031 
L 544.086574 100.066706 
L 544.517756 101.219585 
L 545.380119 105.781759 
L 546.673665 115.023646 
L 547.96721 123.336241 
L 548.829574 131.103519 
L 549.260756 132.78413 
L 549.691937 133.927649 
L 550.554301 134.525852 
L 550.985483 134.590506 
L 551.847847 134.239154 
L 552.279028 133.864266 
L 552.71021 132.932294 
L 553.141392 131.255227 
L 554.866119 117.522502 
L 557.45321 101.304231 
L 557.884392 98.886748 
L 559.177937 94.023431 
L 559.609119 94.028111 
L 560.040301 94.948315 
L 562.19621 106.384506 
L 563.920937 119.902275 
L 564.352119 124.637419 
L 564.783301 131.463366 
L 565.214483 136.015178 
L 566.076847 139.792543 
L 566.508028 140.478936 
L 566.93921 140.148711 
L 567.370392 139.152085 
L 567.801574 137.603055 
L 568.232756 135.118509 
L 568.663937 130.290495 
L 569.095119 122.83813 
L 569.957483 114.853489 
L 571.251028 105.373975 
L 573.406938 94.929325 
L 573.838119 93.533139 
L 574.269301 93.09246 
L 575.994028 92.38521 
L 576.856392 92.089152 
L 577.287574 92.154943 
L 578.149937 92.615478 
L 578.581119 92.508568 
L 579.012301 91.875333 
L 579.443483 90.715772 
L 579.874665 90.049641 
L 580.305847 90.016746 
L 580.737028 90.419714 
L 582.030574 92.122048 
L 582.461756 93.05034 
L 583.324119 96.423195 
L 584.186483 100.225096 
L 585.480028 107.28131 
L 585.480028 107.28131 
" clip-path="url(#p4603c4f0e9)" style="fill: none; stroke: #2ca02c; stroke-opacity: 0.75; stroke-width: 1.15; stroke-linecap: square"/>
   </g>
   <g id="patch_3">
    <path d="M 42.190937 343.870125 
L 42.190937 22.318125 
" style="fill: none; stroke: #000000; stroke-width: 0.8; stroke-linejoin: miter; stroke-linecap: square"/>
   </g>
   <g id="patch_4">
    <path d="M 42.190937 343.870125 
L 611.350937 343.870125 
" style="fill: none; stroke: #000000; stroke-width: 0.8; stroke-linejoin: miter; stroke-linecap: square"/>
   </g>
   <g id="text_16">
    <!-- Identity ambiguity and annotation-aware audit context -->
    <g transform="translate(161.926563 16.318125) scale(0.12 -0.12)">
     <defs>
      <path id="DejaVuSans-49" d="M 628 4666 
L 1259 4666 
L 1259 0 
L 628 0 
L 628 4666 
z
" transform="scale(0.015625)"/>
      <path id="DejaVuSans-79" d="M 2059 -325 
Q 1816 -950 1584 -1140 
Q 1353 -1331 966 -1331 
L 506 -1331 
L 506 -850 
L 844 -850 
Q 1081 -850 1212 -737 
Q 1344 -625 1503 -206 
L 1606 56 
L 191 3500 
L 800 3500 
L 1894 763 
L 2988 3500 
L 3597 3500 
L 2059 -325 
z
" transform="scale(0.015625)"/>
      <path id="DejaVuSans-62" d="M 3116 1747 
Q 3116 2381 2855 2742 
Q 2594 3103 2138 3103 
Q 1681 3103 1420 2742 
Q 1159 2381 1159 1747 
Q 1159 1113 1420 752 
Q 1681 391 2138 391 
Q 2594 391 2855 752 
Q 3116 1113 3116 1747 
z
M 1159 2969 
Q 1341 3281 1617 3432 
Q 1894 3584 2278 3584 
Q 2916 3584 3314 3078 
Q 3713 2572 3713 1747 
Q 3713 922 3314 415 
Q 2916 -91 2278 -91 
Q 1894 -91 1617 61 
Q 1341 213 1159 525 
L 1159 0 
L 581 0 
L 581 4863 
L 1159 4863 
L 1159 2969 
z
" transform="scale(0.015625)"/>
     </defs>
     <use xlink:href="#DejaVuSans-49"/>
     <use xlink:href="#DejaVuSans-64" x="29.492188"/>
     <use xlink:href="#DejaVuSans-65" x="92.96875"/>
     <use xlink:href="#DejaVuSans-6e" x="154.492188"/>
     <use xlink:href="#DejaVuSans-74" x="217.871094"/>
     <use xlink:href="#DejaVuSans-69" x="257.080078"/>
     <use xlink:href="#DejaVuSans-74" x="284.863281"/>
     <use xlink:href="#DejaVuSans-79" x="324.072266"/>
     <use xlink:href="#DejaVuSans-20" x="383.251953"/>
     <use xlink:href="#DejaVuSans-61" x="415.039062"/>
     <use xlink:href="#DejaVuSans-6d" x="476.318359"/>
     <use xlink:href="#DejaVuSans-62" x="573.730469"/>
     <use xlink:href="#DejaVuSans-69" x="637.207031"/>
     <use xlink:href="#DejaVuSans-67" x="664.990234"/>
     <use xlink:href="#DejaVuSans-75" x="728.466797"/>
     <use xlink:href="#DejaVuSans-69" x="791.845703"/>
     <use xlink:href="#DejaVuSans-74" x="819.628906"/>
     <use xlink:href="#DejaVuSans-79" x="858.837891"/>
     <use xlink:href="#DejaVuSans-20" x="918.017578"/>
     <use xlink:href="#DejaVuSans-61" x="949.804688"/>
     <use xlink:href="#DejaVuSans-6e" x="1011.083984"/>
     <use xlink:href="#DejaVuSans-64" x="1074.462891"/>
     <use xlink:href="#DejaVuSans-20" x="1137.939453"/>
     <use xlink:href="#DejaVuSans-61" x="1169.726562"/>
     <use xlink:href="#DejaVuSans-6e" x="1231.005859"/>
     <use xlink:href="#DejaVuSans-6e" x="1294.384766"/>
     <use xlink:href="#DejaVuSans-6f" x="1357.763672"/>
     <use xlink:href="#DejaVuSans-74" x="1418.945312"/>
     <use xlink:href="#DejaVuSans-61" x="1458.154297"/>
     <use xlink:href="#DejaVuSans-74" x="1519.433594"/>
     <use xlink:href="#DejaVuSans-69" x="1558.642578"/>
     <use xlink:href="#DejaVuSans-6f" x="1586.425781"/>
     <use xlink:href="#DejaVuSans-6e" x="1647.607422"/>
     <use xlink:href="#DejaVuSans-2d" x="1710.986328"/>
     <use xlink:href="#DejaVuSans-61" x="1747.070312"/>
     <use xlink:href="#DejaVuSans-77" x="1808.349609"/>
     <use xlink:href="#DejaVuSans-61" x="1890.136719"/>
     <use xlink:href="#DejaVuSans-72" x="1951.416016"/>
     <use xlink:href="#DejaVuSans-65" x="1990.279297"/>
     <use xlink:href="#DejaVuSans-20" x="2051.802734"/>
     <use xlink:href="#DejaVuSans-61" x="2083.589844"/>
     <use xlink:href="#DejaVuSans-75" x="2144.869141"/>
     <use xlink:href="#DejaVuSans-64" x="2208.248047"/>
     <use xlink:href="#DejaVuSans-69" x="2271.724609"/>
     <use xlink:href="#DejaVuSans-74" x="2299.507812"/>
     <use xlink:href="#DejaVuSans-20" x="2338.716797"/>
     <use xlink:href="#DejaVuSans-63" x="2370.503906"/>
     <use xlink:href="#DejaVuSans-6f" x="2425.484375"/>
     <use xlink:href="#DejaVuSans-6e" x="2486.666016"/>
     <use xlink:href="#DejaVuSans-74" x="2550.044922"/>
     <use xlink:href="#DejaVuSans-65" x="2589.253906"/>
     <use xlink:href="#DejaVuSans-78" x="2649.027344"/>
     <use xlink:href="#DejaVuSans-74" x="2708.207031"/>
    </g>
   </g>
   <g id="legend_1">
    <g id="line2d_30">
     <path d="M 191.625937 332.206375 
L 199.625937 332.206375 
L 207.625937 332.206375 
" style="fill: none; stroke: #1f77b4; stroke-width: 1.35; stroke-linecap: square"/>
    </g>
    <g id="text_17">
     <!-- MW ambiguity percentile -->
     <g transform="translate(214.025937 335.006375) scale(0.08 -0.08)">
      <defs>
       <path id="DejaVuSans-4d" d="M 628 4666 
L 1569 4666 
L 2759 1491 
L 3956 4666 
L 4897 4666 
L 4897 0 
L 4281 0 
L 4281 4097 
L 3078 897 
L 2444 897 
L 1241 4097 
L 1241 0 
L 628 0 
L 628 4666 
z
" transform="scale(0.015625)"/>
       <path id="DejaVuSans-57" d="M 213 4666 
L 850 4666 
L 1831 722 
L 2809 4666 
L 3519 4666 
L 4500 722 
L 5478 4666 
L 6119 4666 
L 4947 0 
L 4153 0 
L 3169 4050 
L 2175 0 
L 1381 0 
L 213 4666 
z
" transform="scale(0.015625)"/>
      </defs>
      <use xlink:href="#DejaVuSans-4d"/>
      <use xlink:href="#DejaVuSans-57" x="86.279297"/>
      <use xlink:href="#DejaVuSans-20" x="185.15625"/>
      <use xlink:href="#DejaVuSans-61" x="216.943359"/>
      <use xlink:href="#DejaVuSans-6d" x="278.222656"/>
      <use xlink:href="#DejaVuSans-62" x="375.634766"/>
      <use xlink:href="#DejaVuSans-69" x="439.111328"/>
      <use xlink:href="#DejaVuSans-67" x="466.894531"/>
      <use xlink:href="#DejaVuSans-75" x="530.371094"/>
      <use xlink:href="#DejaVuSans-69" x="593.75"/>
      <use xlink:href="#DejaVuSans-74" x="621.533203"/>
      <use xlink:href="#DejaVuSans-79" x="660.742188"/>
      <use xlink:href="#DejaVuSans-20" x="719.921875"/>
      <use xlink:href="#DejaVuSans-70" x="751.708984"/>
      <use xlink:href="#DejaVuSans-65" x="815.185547"/>
      <use xlink:href="#DejaVuSans-72" x="876.708984"/>
      <use xlink:href="#DejaVuSans-63" x="915.572266"/>
      <use xlink:href="#DejaVuSans-65" x="970.552734"/>
      <use xlink:href="#DejaVuSans-6e" x="1032.076172"/>
      <use xlink:href="#DejaVuSans-74" x="1095.455078"/>
      <use xlink:href="#DejaVuSans-69" x="1134.664062"/>
      <use xlink:href="#DejaVuSans-6c" x="1162.447266"/>
      <use xlink:href="#DejaVuSans-65" x="1190.230469"/>
     </g>
    </g>
    <g id="line2d_31">
     <path d="M 330.167187 332.206375 
L 338.167187 332.206375 
L 346.167187 332.206375 
" style="fill: none; stroke: #ff7f0e; stroke-width: 1.65; stroke-linecap: square"/>
    </g>
    <g id="text_18">
     <!-- Contextual audit-burden index -->
     <g transform="translate(352.567187 335.006375) scale(0.08 -0.08)">
      <defs>
       <path id="DejaVuSans-43" d="M 4122 4306 
L 4122 3641 
Q 3803 3938 3442 4084 
Q 3081 4231 2675 4231 
Q 1875 4231 1450 3742 
Q 1025 3253 1025 2328 
Q 1025 1406 1450 917 
Q 1875 428 2675 428 
Q 3081 428 3442 575 
Q 3803 722 4122 1019 
L 4122 359 
Q 3791 134 3420 21 
Q 3050 -91 2638 -91 
Q 1578 -91 968 557 
Q 359 1206 359 2328 
Q 359 3453 968 4101 
Q 1578 4750 2638 4750 
Q 3056 4750 3426 4639 
Q 3797 4528 4122 4306 
z
" transform="scale(0.015625)"/>
      </defs>
      <use xlink:href="#DejaVuSans-43"/>
      <use xlink:href="#DejaVuSans-6f" x="69.824219"/>
      <use xlink:href="#DejaVuSans-6e" x="131.005859"/>
      <use xlink:href="#DejaVuSans-74" x="194.384766"/>
      <use xlink:href="#DejaVuSans-65" x="233.59375"/>
      <use xlink:href="#DejaVuSans-78" x="293.367188"/>
      <use xlink:href="#DejaVuSans-74" x="352.546875"/>
      <use xlink:href="#DejaVuSans-75" x="391.755859"/>
      <use xlink:href="#DejaVuSans-61" x="455.134766"/>
      <use xlink:href="#DejaVuSans-6c" x="516.414062"/>
      <use xlink:href="#DejaVuSans-20" x="544.197266"/>
      <use xlink:href="#DejaVuSans-61" x="575.984375"/>
      <use xlink:href="#DejaVuSans-75" x="637.263672"/>
      <use xlink:href="#DejaVuSans-64" x="700.642578"/>
      <use xlink:href="#DejaVuSans-69" x="764.119141"/>
      <use xlink:href="#DejaVuSans-74" x="791.902344"/>
      <use xlink:href="#DejaVuSans-2d" x="831.111328"/>
      <use xlink:href="#DejaVuSans-62" x="867.195312"/>
      <use xlink:href="#DejaVuSans-75" x="930.671875"/>
      <use xlink:href="#DejaVuSans-72" x="994.050781"/>
      <use xlink:href="#DejaVuSans-64" x="1033.414062"/>
      <use xlink:href="#DejaVuSans-65" x="1096.890625"/>
      <use xlink:href="#DejaVuSans-6e" x="1158.414062"/>
      <use xlink:href="#DejaVuSans-20" x="1221.792969"/>
      <use xlink:href="#DejaVuSans-69" x="1253.580078"/>
      <use xlink:href="#DejaVuSans-6e" x="1281.363281"/>
      <use xlink:href="#DejaVuSans-64" x="1344.742188"/>
      <use xlink:href="#DejaVuSans-65" x="1408.21875"/>
      <use xlink:href="#DejaVuSans-78" x="1467.992188"/>
     </g>
    </g>
    <g id="line2d_32">
     <path d="M 490.742188 332.206375 
L 498.742188 332.206375 
L 506.742188 332.206375 
" style="fill: none; stroke: #2ca02c; stroke-opacity: 0.75; stroke-width: 1.15; stroke-linecap: square"/>
    </g>
    <g id="text_19">
     <!-- Contextual auditability -->
     <g transform="translate(513.142187 335.006375) scale(0.08 -0.08)">
      <use xlink:href="#DejaVuSans-43"/>
      <use xlink:href="#DejaVuSans-6f" x="69.824219"/>
      <use xlink:href="#DejaVuSans-6e" x="131.005859"/>
      <use xlink:href="#DejaVuSans-74" x="194.384766"/>
      <use xlink:href="#DejaVuSans-65" x="233.59375"/>
      <use xlink:href="#DejaVuSans-78" x="293.367188"/>
      <use xlink:href="#DejaVuSans-74" x="352.546875"/>
      <use xlink:href="#DejaVuSans-75" x="391.755859"/>
      <use xlink:href="#DejaVuSans-61" x="455.134766"/>
      <use xlink:href="#DejaVuSans-6c" x="516.414062"/>
      <use xlink:href="#DejaVuSans-20" x="544.197266"/>
      <use xlink:href="#DejaVuSans-61" x="575.984375"/>
      <use xlink:href="#DejaVuSans-75" x="637.263672"/>
      <use xlink:href="#DejaVuSans-64" x="700.642578"/>
      <use xlink:href="#DejaVuSans-69" x="764.119141"/>
      <use xlink:href="#DejaVuSans-74" x="791.902344"/>
      <use xlink:href="#DejaVuSans-61" x="831.111328"/>
      <use xlink:href="#DejaVuSans-62" x="892.390625"/>
      <use xlink:href="#DejaVuSans-69" x="955.867188"/>
      <use xlink:href="#DejaVuSans-6c" x="983.650391"/>
      <use xlink:href="#DejaVuSans-69" x="1011.433594"/>
      <use xlink:href="#DejaVuSans-74" x="1039.216797"/>
      <use xlink:href="#DejaVuSans-79" x="1078.425781"/>
     </g>
    </g>
   </g>
  </g>
 </g>
 <defs>
  <clipPath id="p4603c4f0e9">
   <rect x="42.190937" y="22.318125" width="569.16" height="321.552"/>
  </clipPath>
 </defs>
</svg>
