<?xml version="1.0" encoding="utf-8" standalone="no"?>
<!DOCTYPE svg PUBLIC "-//W3C//DTD SVG 1.1//EN"
  "http://www.w3.org/Graphics/SVG/1.1/DTD/svg11.dtd">
<svg xmlns:xlink="http://www.w3.org/1999/xlink" width="618.550937pt" height="380.458563pt" viewBox="0 0 618.550937 380.458563" xmlns="http://www.w3.org/2000/svg" version="1.1">
 <metadata>
  <rdf:RDF xmlns:dc="http://purl.org/dc/elements/1.1/" xmlns:cc="http://creativecommons.org/ns#" xmlns:rdf="http://www.w3.org/1999/02/22-rdf-syntax-ns#">
   <cc:Work>
    <dc:type rdf:resource="http://purl.org/dc/dcmitype/StillImage"/>
    <dc:date>2026-08-17T10:40:36.348558</dc:date>
    <dc:format>image/svg+xml</dc:format>
    <dc:creator>
     <cc:Agent>
      <dc:title>Matplotlib v3.9.0, https://matplotlib.org/</dc:title>
     </cc:Agent>
    </dc:creator>
   </cc:Work>
  </rdf:RDF>
 </metadata>
 <defs>
  <style type="text/css">*{stroke-linejoin: round; stroke-linecap: butt}</style>
 </defs>
 <g id="figure_1">
  <g id="patch_1">
   <path d="M -0 380.458563 
L 618.550937 380.458563 
L 618.550937 0 
L -0 0 
z
" style="fill: #ffffff"/>
  </g>
  <g id="axes_1">
   <g id="patch_2">
    <path d="M 42.190937 343.870125 
L 611.350937 343.870125 
L 611.350937 22.318125 
L 42.190937 22.318125 
z
" style="fill: #ffffff"/>
   </g>
   <g id="matplotlib.axis_1">
    <g id="xtick_1">
     <g id="line2d_1">
      <path d="M 68.061847 343.870125 
L 68.061847 22.318125 
" clip-path="url(#p59f39162ea)" style="fill: none; stroke: #b0b0b0; stroke-opacity: 0.16; stroke-width: 0.6; stroke-linecap: square"/>
     </g>
     <g id="line2d_2">
      <defs>
       <path id="mf4cf0a633e" d="M 0 0 
L 0 3.5 
" style="stroke: #000000; stroke-width: 0.8"/>
      </defs>
      <g>
       <use xlink:href="#mf4cf0a633e" x="68.061847" y="343.870125" style="stroke: #000000; stroke-width: 0.8"/>
      </g>
     </g>
     <g id="text_1">
      <!-- 0 -->
      <g transform="translate(65.198722 357.708719) scale(0.09 -0.09)">
       <defs>
        <path id="DejaVuSans-30" d="M 2034 4250 
Q 1547 4250 1301 3770 
Q 1056 3291 1056 2328 
Q 1056 1369 1301 889 
Q 1547 409 2034 409 
Q 2525 409 2770 889 
Q 3016 1369 3016 2328 
Q 3016 3291 2770 3770 
Q 2525 4250 2034 4250 
z
M 2034 4750 
Q 2819 4750 3233 4129 
Q 3647 3509 3647 2328 
Q 3647 1150 3233 529 
Q 2819 -91 2034 -91 
Q 1250 -91 836 529 
Q 422 1150 422 2328 
Q 422 3509 836 4129 
Q 1250 4750 2034 4750 
z
" transform="scale(0.015625)"/>
       </defs>
       <use xlink:href="#DejaVuSans-30"/>
      </g>
     </g>
    </g>
    <g id="xtick_2">
     <g id="line2d_3">
      <path d="M 154.29821 343.870125 
L 154.29821 22.318125 
" clip-path="url(#p59f39162ea)" style="fill: none; stroke: #b0b0b0; stroke-opacity: 0.16; stroke-width: 0.6; stroke-linecap: square"/>
     </g>
     <g id="line2d_4">
      <g>
       <use xlink:href="#mf4cf0a633e" x="154.29821" y="343.870125" style="stroke: #000000; stroke-width: 0.8"/>
      </g>
     </g>
     <g id="text_2">
      <!-- 50 -->
      <g transform="translate(148.57196 357.708719) scale(0.09 -0.09)">
       <defs>
        <path id="DejaVuSans-35" d="M 691 4666 
L 3169 4666 
L 3169 4134 
L 1269 4134 
L 1269 2991 
Q 1406 3038 1543 3061 
Q 1681 3084 1819 3084 
Q 2600 3084 3056 2656 
Q 3513 2228 3513 1497 
Q 3513 744 3044 326 
Q 2575 -91 1722 -91 
Q 1428 -91 1123 -41 
Q 819 9 494 109 
L 494 744 
Q 775 591 1075 516 
Q 1375 441 1709 441 
Q 2250 441 2565 725 
Q 2881 1009 2881 1497 
Q 2881 1984 2565 2268 
Q 2250 2553 1709 2553 
Q 1456 2553 1204 2497 
Q 953 2441 691 2322 
L 691 4666 
z
" transform="scale(0.015625)"/>
       </defs>
       <use xlink:href="#DejaVuSans-35"/>
       <use xlink:href="#DejaVuSans-30" x="63.623047"/>
      </g>
     </g>
    </g>
    <g id="xtick_3">
     <g id="line2d_5">
      <path d="M 240.534574 343.870125 
L 240.534574 22.318125 
" clip-path="url(#p59f39162ea)" style="fill: none; stroke: #b0b0b0; stroke-opacity: 0.16; stroke-width: 0.6; stroke-linecap: square"/>
     </g>
     <g id="line2d_6">
      <g>
       <use xlink:href="#mf4cf0a633e" x="240.534574" y="343.870125" style="stroke: #000000; stroke-width: 0.8"/>
      </g>
     </g>
     <g id="text_3">
      <!-- 100 -->
      <g transform="translate(231.945199 357.708719) scale(0.09 -0.09)">
       <defs>
        <path id="DejaVuSans-31" d="M 794 531 
L 1825 531 
L 1825 4091 
L 703 3866 
L 703 4441 
L 1819 4666 
L 2450 4666 
L 2450 531 
L 3481 531 
L 3481 0 
L 794 0 
L 794 531 
z
" transform="scale(0.015625)"/>
       </defs>
       <use xlink:href="#DejaVuSans-31"/>
       <use xlink:href="#DejaVuSans-30" x="63.623047"/>
       <use xlink:href="#DejaVuSans-30" x="127.246094"/>
      </g>
     </g>
    </g>
    <g id="xtick_4">
     <g id="line2d_7">
      <path d="M 326.770937 343.870125 
L 326.770937 22.318125 
" clip-path="url(#p59f39162ea)" style="fill: none; stroke: #b0b0b0; stroke-opacity: 0.16; stroke-width: 0.6; stroke-linecap: square"/>
     </g>
     <g id="line2d_8">
      <g>
       <use xlink:href="#mf4cf0a633e" x="326.770937" y="343.870125" style="stroke: #000000; stroke-width: 0.8"/>
      </g>
     </g>
     <g id="text_4">
      <!-- 150 -->
      <g transform="translate(318.181562 357.708719) scale(0.09 -0.09)">
       <use xlink:href="#DejaVuSans-31"/>
       <use xlink:href="#DejaVuSans-35" x="63.623047"/>
       <use xlink:href="#DejaVuSans-30" x="127.246094"/>
      </g>
     </g>
    </g>
    <g id="xtick_5">
     <g id="line2d_9">
      <path d="M 413.007301 343.870125 
L 413.007301 22.318125 
" clip-path="url(#p59f39162ea)" style="fill: none; stroke: #b0b0b0; stroke-opacity: 0.16; stroke-width: 0.6; stroke-linecap: square"/>
     </g>
     <g id="line2d_10">
      <g>
       <use xlink:href="#mf4cf0a633e" x="413.007301" y="343.870125" style="stroke: #000000; stroke-width: 0.8"/>
      </g>
     </g>
     <g id="text_5">
      <!-- 200 -->
      <g transform="translate(404.417926 357.708719) scale(0.09 -0.09)">
       <defs>
        <path id="DejaVuSans-32" d="M 1228 531 
L 3431 531 
L 3431 0 
L 469 0 
L 469 531 
Q 828 903 1448 1529 
Q 2069 2156 2228 2338 
Q 2531 2678 2651 2914 
Q 2772 3150 2772 3378 
Q 2772 3750 2511 3984 
Q 2250 4219 1831 4219 
Q 1534 4219 1204 4116 
Q 875 4013 500 3803 
L 500 4441 
Q 881 4594 1212 4672 
Q 1544 4750 1819 4750 
Q 2544 4750 2975 4387 
Q 3406 4025 3406 3419 
Q 3406 3131 3298 2873 
Q 3191 2616 2906 2266 
Q 2828 2175 2409 1742 
Q 1991 1309 1228 531 
z
" transform="scale(0.015625)"/>
       </defs>
       <use xlink:href="#DejaVuSans-32"/>
       <use xlink:href="#DejaVuSans-30" x="63.623047"/>
       <use xlink:href="#DejaVuSans-30" x="127.246094"/>
      </g>
     </g>
    </g>
    <g id="xtick_6">
     <g id="line2d_11">
      <path d="M 499.243665 343.870125 
L 499.243665 22.318125 
" clip-path="url(#p59f39162ea)" style="fill: none; stroke: #b0b0b0; stroke-opacity: 0.16; stroke-width: 0.6; stroke-linecap: square"/>
     </g>
     <g id="line2d_12">
      <g>
       <use xlink:href="#mf4cf0a633e" x="499.243665" y="343.870125" style="stroke: #000000; stroke-width: 0.8"/>
      </g>
     </g>
     <g id="text_6">
      <!-- 250 -->
      <g transform="translate(490.65429 357.708719) scale(0.09 -0.09)">
       <use xlink:href="#DejaVuSans-32"/>
       <use xlink:href="#DejaVuSans-35" x="63.623047"/>
       <use xlink:href="#DejaVuSans-30" x="127.246094"/>
      </g>
     </g>
    </g>
    <g id="xtick_7">
     <g id="line2d_13">
      <path d="M 585.480028 343.870125 
L 585.480028 22.318125 
" clip-path="url(#p59f39162ea)" style="fill: none; stroke: #b0b0b0; stroke-opacity: 0.16; stroke-width: 0.6; stroke-linecap: square"/>
     </g>
     <g id="line2d_14">
      <g>
       <use xlink:href="#mf4cf0a633e" x="585.480028" y="343.870125" style="stroke: #000000; stroke-width: 0.8"/>
      </g>
     </g>
     <g id="text_7">
      <!-- 300 -->
      <g transform="translate(576.890653 357.708719) scale(0.09 -0.09)">
       <defs>
        <path id="DejaVuSans-33" d="M 2597 2516 
Q 3050 2419 3304 2112 
Q 3559 1806 3559 1356 
Q 3559 666 3084 287 
Q 2609 -91 1734 -91 
Q 1441 -91 1130 -33 
Q 819 25 488 141 
L 488 750 
Q 750 597 1062 519 
Q 1375 441 1716 441 
Q 2309 441 2620 675 
Q 2931 909 2931 1356 
Q 2931 1769 2642 2001 
Q 2353 2234 1838 2234 
L 1294 2234 
L 1294 2753 
L 1863 2753 
Q 2328 2753 2575 2939 
Q 2822 3125 2822 3475 
Q 2822 3834 2567 4026 
Q 2313 4219 1838 4219 
Q 1578 4219 1281 4162 
Q 984 4106 628 3988 
L 628 4550 
Q 988 4650 1302 4700 
Q 1616 4750 1894 4750 
Q 2613 4750 3031 4423 
Q 3450 4097 3450 3541 
Q 3450 3153 3228 2886 
Q 3006 2619 2597 2516 
z
" transform="scale(0.015625)"/>
       </defs>
       <use xlink:href="#DejaVuSans-33"/>
       <use xlink:href="#DejaVuSans-30" x="63.623047"/>
       <use xlink:href="#DejaVuSans-30" x="127.246094"/>
      </g>
     </g>
    </g>
    <g id="text_8">
     <!-- Apparent molecular weight (kDa) -->
     <g transform="translate(243.631875 371.178875) scale(0.1 -0.1)">
      <defs>
       <path id="DejaVuSans-41" d="M 2188 4044 
L 1331 1722 
L 3047 1722 
L 2188 4044 
z
M 1831 4666 
L 2547 4666 
L 4325 0 
L 3669 0 
L 3244 1197 
L 1141 1197 
L 716 0 
L 50 0 
L 1831 4666 
z
" transform="scale(0.015625)"/>
       <path id="DejaVuSans-70" d="M 1159 525 
L 1159 -1331 
L 581 -1331 
L 581 3500 
L 1159 3500 
L 1159 2969 
Q 1341 3281 1617 3432 
Q 1894 3584 2278 3584 
Q 2916 3584 3314 3078 
Q 3713 2572 3713 1747 
Q 3713 922 3314 415 
Q 2916 -91 2278 -91 
Q 1894 -91 1617 61 
Q 1341 213 1159 525 
z
M 3116 1747 
Q 3116 2381 2855 2742 
Q 2594 3103 2138 3103 
Q 1681 3103 1420 2742 
Q 1159 2381 1159 1747 
Q 1159 1113 1420 752 
Q 1681 391 2138 391 
Q 2594 391 2855 752 
Q 3116 1113 3116 1747 
z
" transform="scale(0.015625)"/>
       <path id="DejaVuSans-61" d="M 2194 1759 
Q 1497 1759 1228 1600 
Q 959 1441 959 1056 
Q 959 750 1161 570 
Q 1363 391 1709 391 
Q 2188 391 2477 730 
Q 2766 1069 2766 1631 
L 2766 1759 
L 2194 1759 
z
M 3341 1997 
L 3341 0 
L 2766 0 
L 2766 531 
Q 2569 213 2275 61 
Q 1981 -91 1556 -91 
Q 1019 -91 701 211 
Q 384 513 384 1019 
Q 384 1609 779 1909 
Q 1175 2209 1959 2209 
L 2766 2209 
L 2766 2266 
Q 2766 2663 2505 2880 
Q 2244 3097 1772 3097 
Q 1472 3097 1187 3025 
Q 903 2953 641 2809 
L 641 3341 
Q 956 3463 1253 3523 
Q 1550 3584 1831 3584 
Q 2591 3584 2966 3190 
Q 3341 2797 3341 1997 
z
" transform="scale(0.015625)"/>
       <path id="DejaVuSans-72" d="M 2631 2963 
Q 2534 3019 2420 3045 
Q 2306 3072 2169 3072 
Q 1681 3072 1420 2755 
Q 1159 2438 1159 1844 
L 1159 0 
L 581 0 
L 581 3500 
L 1159 3500 
L 1159 2956 
Q 1341 3275 1631 3429 
Q 1922 3584 2338 3584 
Q 2397 3584 2469 3576 
Q 2541 3569 2628 3553 
L 2631 2963 
z
" transform="scale(0.015625)"/>
       <path id="DejaVuSans-65" d="M 3597 1894 
L 3597 1613 
L 953 1613 
Q 991 1019 1311 708 
Q 1631 397 2203 397 
Q 2534 397 2845 478 
Q 3156 559 3463 722 
L 3463 178 
Q 3153 47 2828 -22 
Q 2503 -91 2169 -91 
Q 1331 -91 842 396 
Q 353 884 353 1716 
Q 353 2575 817 3079 
Q 1281 3584 2069 3584 
Q 2775 3584 3186 3129 
Q 3597 2675 3597 1894 
z
M 3022 2063 
Q 3016 2534 2758 2815 
Q 2500 3097 2075 3097 
Q 1594 3097 1305 2825 
Q 1016 2553 972 2059 
L 3022 2063 
z
" transform="scale(0.015625)"/>
       <path id="DejaVuSans-6e" d="M 3513 2113 
L 3513 0 
L 2938 0 
L 2938 2094 
Q 2938 2591 2744 2837 
Q 2550 3084 2163 3084 
Q 1697 3084 1428 2787 
Q 1159 2491 1159 1978 
L 1159 0 
L 581 0 
L 581 3500 
L 1159 3500 
L 1159 2956 
Q 1366 3272 1645 3428 
Q 1925 3584 2291 3584 
Q 2894 3584 3203 3211 
Q 3513 2838 3513 2113 
z
" transform="scale(0.015625)"/>
       <path id="DejaVuSans-74" d="M 1172 4494 
L 1172 3500 
L 2356 3500 
L 2356 3053 
L 1172 3053 
L 1172 1153 
Q 1172 725 1289 603 
Q 1406 481 1766 481 
L 2356 481 
L 2356 0 
L 1766 0 
Q 1100 0 847 248 
Q 594 497 594 1153 
L 594 3053 
L 172 3053 
L 172 3500 
L 594 3500 
L 594 4494 
L 1172 4494 
z
" transform="scale(0.015625)"/>
       <path id="DejaVuSans-20" transform="scale(0.015625)"/>
       <path id="DejaVuSans-6d" d="M 3328 2828 
Q 3544 3216 3844 3400 
Q 4144 3584 4550 3584 
Q 5097 3584 5394 3201 
Q 5691 2819 5691 2113 
L 5691 0 
L 5113 0 
L 5113 2094 
Q 5113 2597 4934 2840 
Q 4756 3084 4391 3084 
Q 3944 3084 3684 2787 
Q 3425 2491 3425 1978 
L 3425 0 
L 2847 0 
L 2847 2094 
Q 2847 2600 2669 2842 
Q 2491 3084 2119 3084 
Q 1678 3084 1418 2786 
Q 1159 2488 1159 1978 
L 1159 0 
L 581 0 
L 581 3500 
L 1159 3500 
L 1159 2956 
Q 1356 3278 1631 3431 
Q 1906 3584 2284 3584 
Q 2666 3584 2933 3390 
Q 3200 3197 3328 2828 
z
" transform="scale(0.015625)"/>
       <path id="DejaVuSans-6f" d="M 1959 3097 
Q 1497 3097 1228 2736 
Q 959 2375 959 1747 
Q 959 1119 1226 758 
Q 1494 397 1959 397 
Q 2419 397 2687 759 
Q 2956 1122 2956 1747 
Q 2956 2369 2687 2733 
Q 2419 3097 1959 3097 
z
M 1959 3584 
Q 2709 3584 3137 3096 
Q 3566 2609 3566 1747 
Q 3566 888 3137 398 
Q 2709 -91 1959 -91 
Q 1206 -91 779 398 
Q 353 888 353 1747 
Q 353 2609 779 3096 
Q 1206 3584 1959 3584 
z
" transform="scale(0.015625)"/>
       <path id="DejaVuSans-6c" d="M 603 4863 
L 1178 4863 
L 1178 0 
L 603 0 
L 603 4863 
z
" transform="scale(0.015625)"/>
       <path id="DejaVuSans-63" d="M 3122 3366 
L 3122 2828 
Q 2878 2963 2633 3030 
Q 2388 3097 2138 3097 
Q 1578 3097 1268 2742 
Q 959 2388 959 1747 
Q 959 1106 1268 751 
Q 1578 397 2138 397 
Q 2388 397 2633 464 
Q 2878 531 3122 666 
L 3122 134 
Q 2881 22 2623 -34 
Q 2366 -91 2075 -91 
Q 1284 -91 818 406 
Q 353 903 353 1747 
Q 353 2603 823 3093 
Q 1294 3584 2113 3584 
Q 2378 3584 2631 3529 
Q 2884 3475 3122 3366 
z
" transform="scale(0.015625)"/>
       <path id="DejaVuSans-75" d="M 544 1381 
L 544 3500 
L 1119 3500 
L 1119 1403 
Q 1119 906 1312 657 
Q 1506 409 1894 409 
Q 2359 409 2629 706 
Q 2900 1003 2900 1516 
L 2900 3500 
L 3475 3500 
L 3475 0 
L 2900 0 
L 2900 538 
Q 2691 219 2414 64 
Q 2138 -91 1772 -91 
Q 1169 -91 856 284 
Q 544 659 544 1381 
z
M 1991 3584 
L 1991 3584 
z
" transform="scale(0.015625)"/>
       <path id="DejaVuSans-77" d="M 269 3500 
L 844 3500 
L 1563 769 
L 2278 3500 
L 2956 3500 
L 3675 769 
L 4391 3500 
L 4966 3500 
L 4050 0 
L 3372 0 
L 2619 2869 
L 1863 0 
L 1184 0 
L 269 3500 
z
" transform="scale(0.015625)"/>
       <path id="DejaVuSans-69" d="M 603 3500 
L 1178 3500 
L 1178 0 
L 603 0 
L 603 3500 
z
M 603 4863 
L 1178 4863 
L 1178 4134 
L 603 4134 
L 603 4863 
z
" transform="scale(0.015625)"/>
       <path id="DejaVuSans-67" d="M 2906 1791 
Q 2906 2416 2648 2759 
Q 2391 3103 1925 3103 
Q 1463 3103 1205 2759 
Q 947 2416 947 1791 
Q 947 1169 1205 825 
Q 1463 481 1925 481 
Q 2391 481 2648 825 
Q 2906 1169 2906 1791 
z
M 3481 434 
Q 3481 -459 3084 -895 
Q 2688 -1331 1869 -1331 
Q 1566 -1331 1297 -1286 
Q 1028 -1241 775 -1147 
L 775 -588 
Q 1028 -725 1275 -790 
Q 1522 -856 1778 -856 
Q 2344 -856 2625 -561 
Q 2906 -266 2906 331 
L 2906 616 
Q 2728 306 2450 153 
Q 2172 0 1784 0 
Q 1141 0 747 490 
Q 353 981 353 1791 
Q 353 2603 747 3093 
Q 1141 3584 1784 3584 
Q 2172 3584 2450 3431 
Q 2728 3278 2906 2969 
L 2906 3500 
L 3481 3500 
L 3481 434 
z
" transform="scale(0.015625)"/>
       <path id="DejaVuSans-68" d="M 3513 2113 
L 3513 0 
L 2938 0 
L 2938 2094 
Q 2938 2591 2744 2837 
Q 2550 3084 2163 3084 
Q 1697 3084 1428 2787 
Q 1159 2491 1159 1978 
L 1159 0 
L 581 0 
L 581 4863 
L 1159 4863 
L 1159 2956 
Q 1366 3272 1645 3428 
Q 1925 3584 2291 3584 
Q 2894 3584 3203 3211 
Q 3513 2838 3513 2113 
z
" transform="scale(0.015625)"/>
       <path id="DejaVuSans-28" d="M 1984 4856 
Q 1566 4138 1362 3434 
Q 1159 2731 1159 2009 
Q 1159 1288 1364 580 
Q 1569 -128 1984 -844 
L 1484 -844 
Q 1016 -109 783 600 
Q 550 1309 550 2009 
Q 550 2706 781 3412 
Q 1013 4119 1484 4856 
L 1984 4856 
z
" transform="scale(0.015625)"/>
       <path id="DejaVuSans-6b" d="M 581 4863 
L 1159 4863 
L 1159 1991 
L 2875 3500 
L 3609 3500 
L 1753 1863 
L 3688 0 
L 2938 0 
L 1159 1709 
L 1159 0 
L 581 0 
L 581 4863 
z
" transform="scale(0.015625)"/>
       <path id="DejaVuSans-44" d="M 1259 4147 
L 1259 519 
L 2022 519 
Q 2988 519 3436 956 
Q 3884 1394 3884 2338 
Q 3884 3275 3436 3711 
Q 2988 4147 2022 4147 
L 1259 4147 
z
M 628 4666 
L 1925 4666 
Q 3281 4666 3915 4102 
Q 4550 3538 4550 2338 
Q 4550 1131 3912 565 
Q 3275 0 1925 0 
L 628 0 
L 628 4666 
z
" transform="scale(0.015625)"/>
       <path id="DejaVuSans-29" d="M 513 4856 
L 1013 4856 
Q 1481 4119 1714 3412 
Q 1947 2706 1947 2009 
Q 1947 1309 1714 600 
Q 1481 -109 1013 -844 
L 513 -844 
Q 928 -128 1133 580 
Q 1338 1288 1338 2009 
Q 1338 2731 1133 3434 
Q 928 4138 513 4856 
z
" transform="scale(0.015625)"/>
      </defs>
      <use xlink:href="#DejaVuSans-41"/>
      <use xlink:href="#DejaVuSans-70" x="68.408203"/>
      <use xlink:href="#DejaVuSans-70" x="131.884766"/>
      <use xlink:href="#DejaVuSans-61" x="195.361328"/>
      <use xlink:href="#DejaVuSans-72" x="256.640625"/>
      <use xlink:href="#DejaVuSans-65" x="295.503906"/>
      <use xlink:href="#DejaVuSans-6e" x="357.027344"/>
      <use xlink:href="#DejaVuSans-74" x="420.40625"/>
      <use xlink:href="#DejaVuSans-20" x="459.615234"/>
      <use xlink:href="#DejaVuSans-6d" x="491.402344"/>
      <use xlink:href="#DejaVuSans-6f" x="588.814453"/>
      <use xlink:href="#DejaVuSans-6c" x="649.996094"/>
      <use xlink:href="#DejaVuSans-65" x="677.779297"/>
      <use xlink:href="#DejaVuSans-63" x="739.302734"/>
      <use xlink:href="#DejaVuSans-75" x="794.283203"/>
      <use xlink:href="#DejaVuSans-6c" x="857.662109"/>
      <use xlink:href="#DejaVuSans-61" x="885.445312"/>
      <use xlink:href="#DejaVuSans-72" x="946.724609"/>
      <use xlink:href="#DejaVuSans-20" x="987.837891"/>
      <use xlink:href="#DejaVuSans-77" x="1019.625"/>
      <use xlink:href="#DejaVuSans-65" x="1101.412109"/>
      <use xlink:href="#DejaVuSans-69" x="1162.935547"/>
      <use xlink:href="#DejaVuSans-67" x="1190.71875"/>
      <use xlink:href="#DejaVuSans-68" x="1254.195312"/>
      <use xlink:href="#DejaVuSans-74" x="1317.574219"/>
      <use xlink:href="#DejaVuSans-20" x="1356.783203"/>
      <use xlink:href="#DejaVuSans-28" x="1388.570312"/>
      <use xlink:href="#DejaVuSans-6b" x="1427.583984"/>
      <use xlink:href="#DejaVuSans-44" x="1485.494141"/>
      <use xlink:href="#DejaVuSans-61" x="1562.496094"/>
      <use xlink:href="#DejaVuSans-29" x="1623.775391"/>
     </g>
    </g>
   </g>
   <g id="matplotlib.axis_2">
    <g id="ytick_1">
     <g id="line2d_15">
      <path d="M 42.190937 343.870125 
L 611.350937 343.870125 
" clip-path="url(#p59f39162ea)" style="fill: none; stroke: #b0b0b0; stroke-opacity: 0.16; stroke-width: 0.6; stroke-linecap: square"/>
     </g>
     <g id="line2d_16">
      <defs>
       <path id="mcd92e2349f" d="M 0 0 
L -3.5 0 
" style="stroke: #000000; stroke-width: 0.8"/>
      </defs>
      <g>
       <use xlink:href="#mcd92e2349f" x="42.190937" y="343.870125" style="stroke: #000000; stroke-width: 0.8"/>
      </g>
     </g>
     <g id="text_9">
      <!-- 0.0 -->
      <g transform="translate(20.878125 347.289422) scale(0.09 -0.09)">
       <defs>
        <path id="DejaVuSans-2e" d="M 684 794 
L 1344 794 
L 1344 0 
L 684 0 
L 684 794 
z
" transform="scale(0.015625)"/>
       </defs>
       <use xlink:href="#DejaVuSans-30"/>
       <use xlink:href="#DejaVuSans-2e" x="63.623047"/>
       <use xlink:href="#DejaVuSans-30" x="95.410156"/>
      </g>
     </g>
    </g>
    <g id="ytick_2">
     <g id="line2d_17">
      <path d="M 42.190937 279.559725 
L 611.350937 279.559725 
" clip-path="url(#p59f39162ea)" style="fill: none; stroke: #b0b0b0; stroke-opacity: 0.16; stroke-width: 0.6; stroke-linecap: square"/>
     </g>
     <g id="line2d_18">
      <g>
       <use xlink:href="#mcd92e2349f" x="42.190937" y="279.559725" style="stroke: #000000; stroke-width: 0.8"/>
      </g>
     </g>
     <g id="text_10">
      <!-- 0.2 -->
      <g transform="translate(20.878125 282.979022) scale(0.09 -0.09)">
       <use xlink:href="#DejaVuSans-30"/>
       <use xlink:href="#DejaVuSans-2e" x="63.623047"/>
       <use xlink:href="#DejaVuSans-32" x="95.410156"/>
      </g>
     </g>
    </g>
    <g id="ytick_3">
     <g id="line2d_19">
      <path d="M 42.190937 215.249325 
L 611.350937 215.249325 
" clip-path="url(#p59f39162ea)" style="fill: none; stroke: #b0b0b0; stroke-opacity: 0.16; stroke-width: 0.6; stroke-linecap: square"/>
     </g>
     <g id="line2d_20">
      <g>
       <use xlink:href="#mcd92e2349f" x="42.190937" y="215.249325" style="stroke: #000000; stroke-width: 0.8"/>
      </g>
     </g>
     <g id="text_11">
      <!-- 0.4 -->
      <g transform="translate(20.878125 218.668622) scale(0.09 -0.09)">
       <defs>
        <path id="DejaVuSans-34" d="M 2419 4116 
L 825 1625 
L 2419 1625 
L 2419 4116 
z
M 2253 4666 
L 3047 4666 
L 3047 1625 
L 3713 1625 
L 3713 1100 
L 3047 1100 
L 3047 0 
L 2419 0 
L 2419 1100 
L 313 1100 
L 313 1709 
L 2253 4666 
z
" transform="scale(0.015625)"/>
       </defs>
       <use xlink:href="#DejaVuSans-30"/>
       <use xlink:href="#DejaVuSans-2e" x="63.623047"/>
       <use xlink:href="#DejaVuSans-34" x="95.410156"/>
      </g>
     </g>
    </g>
    <g id="ytick_4">
     <g id="line2d_21">
      <path d="M 42.190937 150.938925 
L 611.350937 150.938925 
" clip-path="url(#p59f39162ea)" style="fill: none; stroke: #b0b0b0; stroke-opacity: 0.16; stroke-width: 0.6; stroke-linecap: square"/>
     </g>
     <g id="line2d_22">
      <g>
       <use xlink:href="#mcd92e2349f" x="42.190937" y="150.938925" style="stroke: #000000; stroke-width: 0.8"/>
      </g>
     </g>
     <g id="text_12">
      <!-- 0.6 -->
      <g transform="translate(20.878125 154.358222) scale(0.09 -0.09)">
       <defs>
        <path id="DejaVuSans-36" d="M 2113 2584 
Q 1688 2584 1439 2293 
Q 1191 2003 1191 1497 
Q 1191 994 1439 701 
Q 1688 409 2113 409 
Q 2538 409 2786 701 
Q 3034 994 3034 1497 
Q 3034 2003 2786 2293 
Q 2538 2584 2113 2584 
z
M 3366 4563 
L 3366 3988 
Q 3128 4100 2886 4159 
Q 2644 4219 2406 4219 
Q 1781 4219 1451 3797 
Q 1122 3375 1075 2522 
Q 1259 2794 1537 2939 
Q 1816 3084 2150 3084 
Q 2853 3084 3261 2657 
Q 3669 2231 3669 1497 
Q 3669 778 3244 343 
Q 2819 -91 2113 -91 
Q 1303 -91 875 529 
Q 447 1150 447 2328 
Q 447 3434 972 4092 
Q 1497 4750 2381 4750 
Q 2619 4750 2861 4703 
Q 3103 4656 3366 4563 
z
" transform="scale(0.015625)"/>
       </defs>
       <use xlink:href="#DejaVuSans-30"/>
       <use xlink:href="#DejaVuSans-2e" x="63.623047"/>
       <use xlink:href="#DejaVuSans-36" x="95.410156"/>
      </g>
     </g>
    </g>
    <g id="ytick_5">
     <g id="line2d_23">
      <path d="M 42.190937 86.628525 
L 611.350937 86.628525 
" clip-path="url(#p59f39162ea)" style="fill: none; stroke: #b0b0b0; stroke-opacity: 0.16; stroke-width: 0.6; stroke-linecap: square"/>
     </g>
     <g id="line2d_24">
      <g>
       <use xlink:href="#mcd92e2349f" x="42.190937" y="86.628525" style="stroke: #000000; stroke-width: 0.8"/>
      </g>
     </g>
     <g id="text_13">
      <!-- 0.8 -->
      <g transform="translate(20.878125 90.047822) scale(0.09 -0.09)">
       <defs>
        <path id="DejaVuSans-38" d="M 2034 2216 
Q 1584 2216 1326 1975 
Q 1069 1734 1069 1313 
Q 1069 891 1326 650 
Q 1584 409 2034 409 
Q 2484 409 2743 651 
Q 3003 894 3003 1313 
Q 3003 1734 2745 1975 
Q 2488 2216 2034 2216 
z
M 1403 2484 
Q 997 2584 770 2862 
Q 544 3141 544 3541 
Q 544 4100 942 4425 
Q 1341 4750 2034 4750 
Q 2731 4750 3128 4425 
Q 3525 4100 3525 3541 
Q 3525 3141 3298 2862 
Q 3072 2584 2669 2484 
Q 3125 2378 3379 2068 
Q 3634 1759 3634 1313 
Q 3634 634 3220 271 
Q 2806 -91 2034 -91 
Q 1263 -91 848 271 
Q 434 634 434 1313 
Q 434 1759 690 2068 
Q 947 2378 1403 2484 
z
M 1172 3481 
Q 1172 3119 1398 2916 
Q 1625 2713 2034 2713 
Q 2441 2713 2670 2916 
Q 2900 3119 2900 3481 
Q 2900 3844 2670 4047 
Q 2441 4250 2034 4250 
Q 1625 4250 1398 4047 
Q 1172 3844 1172 3481 
z
" transform="scale(0.015625)"/>
       </defs>
       <use xlink:href="#DejaVuSans-30"/>
       <use xlink:href="#DejaVuSans-2e" x="63.623047"/>
       <use xlink:href="#DejaVuSans-38" x="95.410156"/>
      </g>
     </g>
    </g>
    <g id="ytick_6">
     <g id="line2d_25">
      <path d="M 42.190937 22.318125 
L 611.350937 22.318125 
" clip-path="url(#p59f39162ea)" style="fill: none; stroke: #b0b0b0; stroke-opacity: 0.16; stroke-width: 0.6; stroke-linecap: square"/>
     </g>
     <g id="line2d_26">
      <g>
       <use xlink:href="#mcd92e2349f" x="42.190937" y="22.318125" style="stroke: #000000; stroke-width: 0.8"/>
      </g>
     </g>
     <g id="text_14">
      <!-- 1.0 -->
      <g transform="translate(20.878125 25.737422) scale(0.09 -0.09)">
       <use xlink:href="#DejaVuSans-31"/>
       <use xlink:href="#DejaVuSans-2e" x="63.623047"/>
       <use xlink:href="#DejaVuSans-30" x="95.410156"/>
      </g>
     </g>
    </g>
    <g id="text_15">
     <!-- Scale-free index -->
     <g transform="translate(14.798437 223.476938) rotate(-90) scale(0.1 -0.1)">
      <defs>
       <path id="DejaVuSans-53" d="M 3425 4513 
L 3425 3897 
Q 3066 4069 2747 4153 
Q 2428 4238 2131 4238 
Q 1616 4238 1336 4038 
Q 1056 3838 1056 3469 
Q 1056 3159 1242 3001 
Q 1428 2844 1947 2747 
L 2328 2669 
Q 3034 2534 3370 2195 
Q 3706 1856 3706 1288 
Q 3706 609 3251 259 
Q 2797 -91 1919 -91 
Q 1588 -91 1214 -16 
Q 841 59 441 206 
L 441 856 
Q 825 641 1194 531 
Q 1563 422 1919 422 
Q 2459 422 2753 634 
Q 3047 847 3047 1241 
Q 3047 1584 2836 1778 
Q 2625 1972 2144 2069 
L 1759 2144 
Q 1053 2284 737 2584 
Q 422 2884 422 3419 
Q 422 4038 858 4394 
Q 1294 4750 2059 4750 
Q 2388 4750 2728 4690 
Q 3069 4631 3425 4513 
z
" transform="scale(0.015625)"/>
       <path id="DejaVuSans-2d" d="M 313 2009 
L 1997 2009 
L 1997 1497 
L 313 1497 
L 313 2009 
z
" transform="scale(0.015625)"/>
       <path id="DejaVuSans-66" d="M 2375 4863 
L 2375 4384 
L 1825 4384 
Q 1516 4384 1395 4259 
Q 1275 4134 1275 3809 
L 1275 3500 
L 2222 3500 
L 2222 3053 
L 1275 3053 
L 1275 0 
L 697 0 
L 697 3053 
L 147 3053 
L 147 3500 
L 697 3500 
L 697 3744 
Q 697 4328 969 4595 
Q 1241 4863 1831 4863 
L 2375 4863 
z
" transform="scale(0.015625)"/>
       <path id="DejaVuSans-64" d="M 2906 2969 
L 2906 4863 
L 3481 4863 
L 3481 0 
L 2906 0 
L 2906 525 
Q 2725 213 2448 61 
Q 2172 -91 1784 -91 
Q 1150 -91 751 415 
Q 353 922 353 1747 
Q 353 2572 751 3078 
Q 1150 3584 1784 3584 
Q 2172 3584 2448 3432 
Q 2725 3281 2906 2969 
z
M 947 1747 
Q 947 1113 1208 752 
Q 1469 391 1925 391 
Q 2381 391 2643 752 
Q 2906 1113 2906 1747 
Q 2906 2381 2643 2742 
Q 2381 3103 1925 3103 
Q 1469 3103 1208 2742 
Q 947 2381 947 1747 
z
" transform="scale(0.015625)"/>
       <path id="DejaVuSans-78" d="M 3513 3500 
L 2247 1797 
L 3578 0 
L 2900 0 
L 1881 1375 
L 863 0 
L 184 0 
L 1544 1831 
L 300 3500 
L 978 3500 
L 1906 2253 
L 2834 3500 
L 3513 3500 
z
" transform="scale(0.015625)"/>
      </defs>
      <use xlink:href="#DejaVuSans-53"/>
      <use xlink:href="#DejaVuSans-63" x="63.476562"/>
      <use xlink:href="#DejaVuSans-61" x="118.457031"/>
      <use xlink:href="#DejaVuSans-6c" x="179.736328"/>
      <use xlink:href="#DejaVuSans-65" x="207.519531"/>
      <use xlink:href="#DejaVuSans-2d" x="269.042969"/>
      <use xlink:href="#DejaVuSans-66" x="305.126953"/>
      <use xlink:href="#DejaVuSans-72" x="340.332031"/>
      <use xlink:href="#DejaVuSans-65" x="379.195312"/>
      <use xlink:href="#DejaVuSans-65" x="440.71875"/>
      <use xlink:href="#DejaVuSans-20" x="502.242188"/>
      <use xlink:href="#DejaVuSans-69" x="534.029297"/>
      <use xlink:href="#DejaVuSans-6e" x="561.8125"/>
      <use xlink:href="#DejaVuSans-64" x="625.191406"/>
      <use xlink:href="#DejaVuSans-65" x="688.667969"/>
      <use xlink:href="#DejaVuSans-78" x="748.441406"/>
     </g>
    </g>
   </g>
   <g id="line2d_27">
    <path d="M 68.061847 128.451007 
L 68.493028 118.990945 
L 68.92421 112.774333 
L 69.355392 110.071459 
L 70.217756 109.260596 
L 70.648937 106.467626 
L 71.511301 98.088714 
L 71.942483 96.827372 
L 72.373665 93.764114 
L 72.804847 86.556448 
L 73.236028 83.403094 
L 73.66721 82.952615 
L 76.254301 72.411404 
L 77.116665 70.879775 
L 77.547847 68.627379 
L 77.979028 65.654217 
L 78.841392 62.410767 
L 79.272574 61.690001 
L 79.703756 60.248467 
L 80.134937 58.086168 
L 80.566119 57.275305 
L 80.997301 56.104059 
L 81.859665 54.662526 
L 82.722028 51.148789 
L 84.015574 49.076585 
L 84.446756 47.995435 
L 84.877938 46.553902 
L 85.309119 45.562848 
L 87.465028 43.220356 
L 88.758574 41.508536 
L 89.620937 40.607578 
L 92.208028 39.436332 
L 96.088665 37.09384 
L 96.951028 37.364128 
L 97.38221 36.913649 
L 101.262847 35.201828 
L 102.987574 34.210774 
L 103.418756 33.490007 
L 104.281119 29.255504 
L 104.712301 28.354545 
L 105.574665 27.1833 
L 107.299392 26.10215 
L 107.730574 26.012054 
L 108.161756 26.192245 
L 108.592937 26.552629 
L 109.455301 27.003108 
L 110.317665 27.543683 
L 111.61121 27.904066 
L 112.473574 28.174354 
L 112.904756 28.264449 
L 113.335938 28.624833 
L 113.767119 28.805024 
L 114.198301 29.435695 
L 114.629483 30.606941 
L 115.060665 31.147516 
L 115.923028 33.039528 
L 116.35421 33.309816 
L 116.785392 33.129624 
L 117.647756 32.318762 
L 118.078937 31.868282 
L 118.510119 31.688091 
L 119.372483 32.13857 
L 119.803665 32.048474 
L 120.234847 31.597995 
L 120.666028 31.327708 
L 121.09721 30.877228 
L 121.959574 28.534737 
L 122.821937 26.462533 
L 123.253119 25.741766 
L 123.684301 25.291287 
L 124.115483 24.570521 
L 125.409028 23.849754 
L 128.427301 22.678508 
L 129.720847 22.318125 
L 130.58321 22.768604 
L 131.445574 23.219083 
L 134.463847 24.390329 
L 137.913301 25.201191 
L 138.775665 25.471479 
L 140.500392 25.921958 
L 140.931574 26.282341 
L 141.362756 26.822916 
L 142.225119 27.453587 
L 143.087483 28.444641 
L 143.518665 28.714929 
L 144.381028 30.697037 
L 145.674574 32.408857 
L 146.105756 32.589049 
L 146.536937 32.498953 
L 147.399301 32.859337 
L 147.830483 33.399911 
L 149.124028 33.940486 
L 149.986392 33.670199 
L 150.417574 32.949432 
L 150.848756 31.417803 
L 151.711119 30.156462 
L 152.142301 29.886174 
L 152.573483 29.796078 
L 153.004665 29.97627 
L 153.435847 30.336653 
L 153.867028 30.516845 
L 154.29821 30.426749 
L 155.160574 29.615887 
L 155.591756 29.165408 
L 156.454119 28.89512 
L 157.316483 29.345599 
L 158.178847 30.967324 
L 158.610028 31.507899 
L 159.04121 33.21972 
L 159.472392 34.030582 
L 160.765938 34.390966 
L 162.490665 35.021636 
L 163.353028 35.291924 
L 167.664847 37.003745 
L 168.096028 37.454224 
L 169.389574 37.904703 
L 170.683119 38.265086 
L 171.976665 38.715565 
L 173.27021 39.075948 
L 174.994937 39.706619 
L 175.857301 39.976907 
L 178.01321 40.787769 
L 180.600301 41.41844 
L 181.462665 41.688727 
L 184.912119 42.49959 
L 185.774483 42.769877 
L 189.655119 43.670836 
L 190.517483 43.941123 
L 192.673392 44.481698 
L 193.535756 44.751985 
L 196.554028 45.472752 
L 197.416392 45.74304 
L 203.021756 47.004381 
L 203.452937 47.45486 
L 204.315301 47.725148 
L 206.040028 47.094477 
L 206.47121 47.274669 
L 206.902392 47.815244 
L 208.195937 48.175627 
L 209.058301 48.53601 
L 209.920665 48.265723 
L 210.351847 48.626106 
L 215.526028 49.797352 
L 216.388392 50.067639 
L 220.70021 51.058693 
L 221.562574 51.328981 
L 230.617392 53.311089 
L 231.048574 53.491281 
L 231.479756 53.851664 
L 232.342119 53.671472 
L 232.773301 53.401185 
L 233.204483 53.581376 
L 233.635665 53.94176 
L 239.67221 55.293197 
L 240.534574 55.563484 
L 247.864665 57.185209 
L 248.727028 57.455497 
L 254.763574 58.806934 
L 255.194756 59.077222 
L 256.057119 60.068276 
L 256.488301 60.518755 
L 256.919483 60.428659 
L 257.781847 59.797988 
L 258.213028 59.437605 
L 258.64421 59.257413 
L 259.075392 58.89703 
L 259.937756 59.167317 
L 262.524847 60.338563 
L 262.956028 60.608851 
L 263.38721 60.698947 
L 263.818392 60.969234 
L 264.249574 61.05933 
L 264.680756 60.789042 
L 265.111937 60.879138 
L 265.543119 61.149426 
L 270.717301 62.320671 
L 271.579665 62.590959 
L 273.735574 63.131534 
L 276.322665 64.753259 
L 276.753847 64.663163 
L 277.185028 64.392875 
L 277.61621 63.8523 
L 278.909756 63.041438 
L 279.772119 63.491917 
L 281.928028 64.843354 
L 286.671028 65.924504 
L 288.395756 67.366038 
L 289.689301 67.996708 
L 290.120483 67.906613 
L 290.982847 67.275942 
L 291.414028 66.465079 
L 291.84521 66.104696 
L 292.276392 66.0146 
L 294.432301 66.825463 
L 295.725847 67.185846 
L 297.450574 68.1769 
L 302.624756 69.348146 
L 303.055938 69.618433 
L 303.918301 69.888721 
L 304.780665 70.3392 
L 305.643028 70.699583 
L 306.505392 70.429296 
L 307.798937 69.438242 
L 308.230119 69.528337 
L 308.661301 69.978817 
L 309.092483 70.249104 
L 309.523665 70.789679 
L 310.386028 71.059966 
L 315.991392 72.321308 
L 316.853756 72.591595 
L 319.440847 73.13217 
L 319.872028 73.492554 
L 320.30321 73.672745 
L 321.165574 73.402458 
L 321.596756 73.222266 
L 322.027938 73.312362 
L 322.459119 73.762841 
L 329.78921 75.384566 
L 330.220392 75.564758 
L 330.651574 76.015237 
L 331.513937 76.555812 
L 332.376301 76.736003 
L 332.807483 77.006291 
L 333.238665 77.096387 
L 335.825756 78.628016 
L 337.550483 79.078495 
L 340.137574 80.069549 
L 340.999937 79.709166 
L 341.862301 78.898303 
L 342.293483 78.447824 
L 344.01821 77.276578 
L 344.880574 76.37562 
L 346.174119 75.654853 
L 347.036483 75.925141 
L 347.898847 76.465716 
L 348.330028 76.916195 
L 350.054756 78.087441 
L 350.485937 78.53792 
L 350.917119 79.168591 
L 351.348301 80.159645 
L 351.779483 80.249741 
L 352.210665 80.790316 
L 352.641847 80.970507 
L 353.073028 80.880411 
L 353.50421 80.610124 
L 354.797756 80.429932 
L 355.660119 81.060603 
L 356.091301 81.511082 
L 356.953665 82.051657 
L 357.384847 82.141753 
L 358.678392 81.420986 
L 359.109574 81.240795 
L 359.540756 81.33089 
L 361.265483 82.321945 
L 361.696665 82.41204 
L 362.127847 82.772424 
L 362.559028 82.86252 
L 363.421392 82.502136 
L 363.852574 82.592232 
L 364.283756 83.042711 
L 367.302028 83.763478 
L 367.73321 84.213957 
L 368.164392 84.484244 
L 368.595574 85.024819 
L 369.889119 87.277215 
L 371.182665 88.268269 
L 371.613847 88.89894 
L 372.045028 90.160281 
L 372.907392 91.69191 
L 373.338574 92.052294 
L 373.769756 91.782006 
L 374.200938 91.331527 
L 374.632119 90.340473 
L 375.494483 87.367311 
L 375.925665 86.196065 
L 376.356847 86.015873 
L 376.788028 86.105969 
L 377.650392 87.997982 
L 378.081574 88.448461 
L 378.512756 88.088077 
L 379.806301 84.844628 
L 380.237483 84.394149 
L 380.668665 84.57434 
L 381.099847 85.114915 
L 382.393392 88.358365 
L 382.824574 88.538556 
L 383.686937 87.187119 
L 384.118119 86.646544 
L 384.549301 86.826736 
L 384.980483 87.457407 
L 385.842847 89.529611 
L 386.274028 90.250377 
L 386.70521 90.070186 
L 387.567574 89.349419 
L 387.998756 89.439515 
L 389.723483 93.133444 
L 391.44821 94.214593 
L 392.310574 94.484881 
L 392.741756 94.665073 
L 393.172937 95.205648 
L 394.466483 96.286797 
L 394.897665 96.466989 
L 395.760028 95.746223 
L 396.19121 95.115552 
L 397.053574 92.863156 
L 398.347119 87.727694 
L 400.93421 84.123861 
L 401.796574 83.853574 
L 402.658937 84.304053 
L 403.090119 84.754532 
L 403.521301 84.934723 
L 403.952483 85.295107 
L 404.383665 85.475298 
L 404.814847 85.385203 
L 405.67721 85.835682 
L 406.108392 86.73664 
L 407.833119 92.232485 
L 408.264301 92.592869 
L 408.695483 92.502773 
L 409.126665 92.142389 
L 410.851392 89.259323 
L 411.282574 89.619706 
L 412.576119 92.682964 
L 413.007301 93.223539 
L 413.438483 93.583923 
L 414.300847 94.574977 
L 415.16321 95.385839 
L 416.025574 96.376893 
L 416.887938 97.007564 
L 418.181483 97.818426 
L 418.612665 98.719385 
L 419.043847 99.89063 
L 419.90621 100.97178 
L 420.337392 101.151972 
L 421.630937 100.070822 
L 422.062119 99.440151 
L 422.493301 98.539193 
L 422.924483 97.998618 
L 423.786847 97.548139 
L 425.080392 96.917468 
L 425.511574 96.647181 
L 426.373938 95.836318 
L 426.805119 95.475935 
L 427.667483 95.025456 
L 428.529847 94.394785 
L 428.961028 93.493827 
L 429.39221 92.953252 
L 430.254574 90.520665 
L 430.685756 89.169227 
L 431.116937 88.808844 
L 431.548119 88.989036 
L 432.410483 90.700856 
L 432.841665 90.971144 
L 433.704028 91.962198 
L 435.859938 93.85421 
L 437.153483 96.557085 
L 438.015847 97.638235 
L 438.447028 98.17881 
L 438.87821 99.079768 
L 439.309392 99.530247 
L 439.740574 99.350056 
L 440.602937 98.359001 
L 441.034119 97.908522 
L 441.465301 98.268906 
L 442.758847 100.251014 
L 443.62121 101.061876 
L 445.777119 101.872739 
L 446.208301 102.323218 
L 446.639483 103.224176 
L 447.070665 103.584559 
L 447.933028 104.755805 
L 448.36421 104.575613 
L 449.657756 102.863793 
L 450.088937 101.962834 
L 451.382483 100.431205 
L 453.10721 99.25996 
L 453.969574 98.449097 
L 454.400756 98.629289 
L 454.831937 99.169864 
L 456.987847 103.404368 
L 457.85021 105.206284 
L 458.281392 105.566667 
L 460.868483 106.737913 
L 461.299665 107.008201 
L 461.730847 106.828009 
L 462.162028 106.287434 
L 463.455574 103.674655 
L 464.749119 102.143026 
L 465.180301 102.05293 
L 468.198574 103.314272 
L 468.629756 103.854847 
L 469.060938 105.026092 
L 469.923301 106.647817 
L 470.354483 106.918105 
L 471.216847 105.29638 
L 472.07921 104.485518 
L 472.510392 104.935997 
L 472.941574 105.656763 
L 473.372756 107.188392 
L 474.666301 107.999255 
L 475.528665 108.900213 
L 475.959847 109.080405 
L 478.115756 108.53983 
L 478.978119 108.269542 
L 479.840483 108.089351 
L 480.271665 107.819063 
L 481.134028 107.548776 
L 481.996392 107.098296 
L 482.427574 105.476572 
L 483.289937 103.944943 
L 483.721119 103.764751 
L 484.152301 104.125134 
L 484.583483 105.116188 
L 485.014665 106.557722 
L 485.445847 107.368584 
L 485.877028 107.909159 
L 486.30821 109.1705 
L 487.170574 109.440788 
L 489.326483 109.981363 
L 489.757665 110.161555 
L 490.188847 111.152609 
L 490.620028 111.603088 
L 491.482392 110.521938 
L 491.913574 110.25165 
L 492.344756 110.341746 
L 493.207119 112.233759 
L 494.069483 112.684238 
L 496.225392 116.197975 
L 496.656574 116.558358 
L 497.950119 118.45037 
L 498.381301 118.810754 
L 498.812483 119.621616 
L 499.674847 124.306599 
L 500.106028 125.928324 
L 500.53721 127.009474 
L 500.968392 127.550049 
L 501.399574 127.910432 
L 502.261937 127.279761 
L 503.124301 126.558995 
L 503.986665 124.93727 
L 504.417847 124.036312 
L 504.849028 123.85612 
L 506.142574 126.01842 
L 506.573756 126.468899 
L 507.004937 126.378803 
L 507.436119 125.748132 
L 507.867301 124.757078 
L 508.729665 121.513629 
L 509.160847 120.432479 
L 509.592028 120.072095 
L 510.454392 121.423533 
L 510.885574 122.324491 
L 511.316756 123.766024 
L 511.747937 124.486791 
L 512.179119 124.666982 
L 512.610301 124.126407 
L 513.041483 123.225449 
L 513.472665 121.69382 
L 514.335028 119.981999 
L 514.76621 120.522574 
L 516.059756 123.585832 
L 516.490937 123.675928 
L 516.922119 122.504683 
L 517.784483 118.90085 
L 518.215665 118.360275 
L 518.646847 117.999891 
L 519.078028 118.540466 
L 519.50921 119.351329 
L 519.940392 121.243341 
L 520.371574 122.054203 
L 520.802756 121.333437 
L 521.233938 119.081041 
L 522.527483 115.026729 
L 522.958665 114.305962 
L 523.389847 114.486154 
L 523.821028 115.297017 
L 524.25221 115.477208 
L 524.683392 115.116825 
L 525.114574 113.765388 
L 525.545756 112.954525 
L 526.839301 111.873375 
L 527.701665 110.702129 
L 528.132847 110.431842 
L 528.99521 110.792225 
L 529.426392 111.512992 
L 530.288756 112.143663 
L 530.719938 112.053567 
L 532.013483 110.882321 
L 532.444665 111.062513 
L 532.875847 111.963471 
L 533.73821 112.864429 
L 534.169392 115.387112 
L 534.600574 116.73855 
L 535.031756 117.369221 
L 535.462937 117.279125 
L 536.756483 114.666346 
L 537.187665 114.846537 
L 538.050028 116.828646 
L 538.912392 118.089987 
L 539.343574 118.180083 
L 540.637119 116.107879 
L 541.068301 114.125771 
L 541.499483 113.134717 
L 541.930665 113.044621 
L 542.361847 113.314908 
L 543.655392 117.909795 
L 544.517756 119.441425 
L 545.380119 120.252287 
L 546.242483 121.783916 
L 547.104847 124.396695 
L 547.536028 125.117462 
L 547.96721 125.027366 
L 548.398392 124.216503 
L 549.691937 118.630562 
L 550.985483 116.378166 
L 552.279028 115.206921 
L 552.71021 114.57625 
L 553.572574 114.215867 
L 554.003756 113.855483 
L 555.297301 113.224813 
L 556.159665 114.035675 
L 556.590847 115.747496 
L 557.884392 119.171137 
L 558.315574 121.153245 
L 559.177937 123.405641 
L 559.609119 123.495737 
L 560.040301 122.865066 
L 561.333847 119.711712 
L 561.765028 120.342383 
L 562.19621 122.144299 
L 562.627392 125.207557 
L 563.489756 128.18072 
L 563.920937 128.541103 
L 564.352119 128.360911 
L 565.214483 126.288707 
L 565.645665 125.387749 
L 566.076847 125.567941 
L 566.508028 126.649091 
L 567.370392 129.442061 
L 567.801574 130.433115 
L 568.663937 131.153882 
L 569.526301 130.703403 
L 569.957483 130.072732 
L 570.819847 127.73024 
L 571.251028 127.459953 
L 571.68221 128.000528 
L 572.113392 128.81139 
L 572.975756 129.802444 
L 573.406938 129.89254 
L 574.700483 129.171774 
L 575.562847 130.252924 
L 576.42521 131.694457 
L 576.856392 132.144936 
L 577.287574 132.325128 
L 577.718756 132.685511 
L 578.581119 134.21714 
L 580.305847 138.181356 
L 580.737028 139.712985 
L 581.599392 144.307872 
L 582.030574 145.65931 
L 582.461756 144.758351 
L 582.892938 142.956435 
L 583.755301 138.631835 
L 584.186483 137.550685 
L 584.617665 137.01011 
L 585.048847 135.748769 
L 585.480028 134.847811 
L 585.480028 134.847811 
" clip-path="url(#p59f39162ea)" style="fill: none; stroke: #1f77b4; stroke-width: 1.35; stroke-linecap: square"/>
   </g>
   <g id="line2d_28">
    <path d="M 68.061847 281.984782 
L 68.92421 274.19447 
L 69.786574 268.074947 
L 70.217756 264.173548 
L 70.648937 258.53342 
L 71.080119 249.8258 
L 73.236028 228.174906 
L 74.960756 216.456347 
L 75.823119 207.629334 
L 76.685483 199.392929 
L 77.116665 193.40734 
L 77.547847 185.366389 
L 79.272574 170.505703 
L 79.703756 167.349253 
L 80.134937 165.883159 
L 80.566119 163.90182 
L 81.859665 156.388336 
L 87.033847 111.941997 
L 87.465028 110.339179 
L 87.89621 111.574103 
L 88.327392 113.215089 
L 88.758574 115.568681 
L 90.052119 123.918987 
L 90.483301 126.302484 
L 91.345665 128.544566 
L 91.776847 129.550574 
L 92.208028 127.807209 
L 93.070392 121.444512 
L 93.932756 110.882708 
L 94.795119 100.533927 
L 95.657483 92.714542 
L 96.088665 90.974302 
L 96.519847 92.20486 
L 97.813392 102.446696 
L 98.244574 105.323991 
L 98.675756 106.234739 
L 99.106937 105.294625 
L 99.538119 101.623796 
L 101.262847 76.016402 
L 102.556392 64.439339 
L 102.987574 63.369995 
L 104.281119 69.156713 
L 105.143483 77.430077 
L 106.005847 94.071053 
L 106.437028 99.65654 
L 107.730574 111.049418 
L 108.161756 112.961739 
L 108.592937 113.841973 
L 109.455301 114.837823 
L 109.886483 114.868938 
L 110.748847 112.427229 
L 111.180028 111.406867 
L 111.61121 109.900637 
L 113.335938 96.890706 
L 113.767119 91.535512 
L 114.198301 83.648922 
L 114.629483 78.070755 
L 115.060665 74.503475 
L 115.491847 71.946508 
L 116.35421 68.455568 
L 116.785392 65.766613 
L 117.647756 64.992287 
L 118.078937 64.945581 
L 118.510119 64.507827 
L 118.941301 63.890969 
L 119.372483 61.376924 
L 120.234847 54.179569 
L 120.666028 46.554319 
L 121.09721 42.465174 
L 121.959574 38.198585 
L 122.390756 37.03572 
L 122.821937 37.406822 
L 123.253119 38.588488 
L 123.684301 42.544988 
L 124.115483 48.53439 
L 124.977847 56.470752 
L 125.409028 58.6202 
L 125.84021 57.697816 
L 127.133756 45.79126 
L 127.564937 39.466076 
L 127.996119 36.057973 
L 128.858483 32.655454 
L 129.289665 31.993169 
L 130.152028 31.190376 
L 130.58321 31.301688 
L 131.014392 31.152012 
L 131.445574 31.943847 
L 131.876756 34.921968 
L 134.895028 79.342012 
L 135.32621 81.282901 
L 135.757392 79.948293 
L 136.188574 75.710068 
L 136.619756 68.781032 
L 137.482119 60.225774 
L 138.344483 52.367911 
L 139.206847 42.197589 
L 139.638028 39.712649 
L 140.06921 35.863645 
L 140.500392 34.161951 
L 140.931574 33.142898 
L 141.362756 33.40031 
L 141.793937 34.808563 
L 142.656301 38.724218 
L 143.518665 43.625166 
L 143.949847 45.30898 
L 144.381028 46.323537 
L 145.674574 51.215985 
L 146.105756 53.222787 
L 146.536937 57.062691 
L 146.968119 59.878748 
L 147.399301 61.775007 
L 148.261665 63.993096 
L 148.692847 63.300807 
L 149.55521 58.472135 
L 151.711119 33.100034 
L 152.142301 31.142344 
L 153.004665 30.328433 
L 153.435847 30.694689 
L 154.29821 29.495246 
L 154.729392 29.505245 
L 155.160574 29.866807 
L 155.591756 31.31851 
L 156.022937 35.259047 
L 157.316483 66.417352 
L 158.178847 81.987492 
L 158.610028 89.282774 
L 159.04121 90.923528 
L 159.472392 89.959851 
L 160.334756 82.265719 
L 160.765938 79.993974 
L 161.197119 76.874418 
L 161.628301 75.209531 
L 162.490665 72.620191 
L 163.353028 69.914306 
L 163.78421 69.835525 
L 164.215392 68.924427 
L 164.646574 68.476674 
L 165.077756 68.910982 
L 165.508938 70.046171 
L 165.940119 72.646476 
L 166.371301 74.49392 
L 166.802483 77.610479 
L 167.233665 79.313551 
L 167.664847 81.791306 
L 168.096028 83.267388 
L 168.52721 82.388912 
L 168.958392 80.079149 
L 170.683119 57.607217 
L 171.114301 56.486761 
L 171.545483 56.630275 
L 171.976665 58.013446 
L 172.407847 62.532694 
L 173.27021 75.053487 
L 174.132574 84.733693 
L 174.563756 86.305327 
L 174.994937 84.31265 
L 176.719665 64.613982 
L 177.150847 61.072654 
L 177.582028 59.089535 
L 178.01321 59.325253 
L 178.444392 61.113178 
L 178.875574 64.777935 
L 179.306756 66.828086 
L 179.737937 69.485956 
L 180.169119 71.287774 
L 180.600301 71.663101 
L 181.031483 70.240475 
L 181.893847 64.845268 
L 182.75621 57.147231 
L 183.187392 55.190621 
L 183.618574 54.4299 
L 184.049756 54.884145 
L 184.480937 55.519571 
L 184.912119 56.893613 
L 185.343301 58.966329 
L 185.774483 59.814559 
L 186.205665 61.22495 
L 186.636847 61.933182 
L 187.068028 61.044189 
L 187.49921 59.847021 
L 187.930392 57.859677 
L 188.792756 55.797468 
L 189.223937 55.383155 
L 189.655119 55.24884 
L 190.086301 55.635962 
L 190.517483 55.713671 
L 190.948665 56.450189 
L 191.811028 60.355784 
L 193.535756 68.922862 
L 195.260483 84.29012 
L 195.691665 90.229529 
L 196.554028 97.570161 
L 196.98521 101.879793 
L 198.278756 122.124118 
L 199.141119 128.432352 
L 199.572301 130.127464 
L 200.003483 130.956967 
L 200.434665 130.932586 
L 200.865847 128.999359 
L 201.72821 124.346285 
L 202.159392 122.283616 
L 202.590574 120.821734 
L 203.884119 115.482625 
L 204.315301 112.523612 
L 204.746483 111.705767 
L 205.177665 111.715795 
L 205.608847 112.443155 
L 206.040028 112.75915 
L 206.47121 111.747848 
L 206.902392 109.482515 
L 207.764756 102.780987 
L 208.627119 96.304488 
L 209.920665 82.717254 
L 211.21421 74.274891 
L 211.645392 72.292593 
L 212.076574 71.103987 
L 212.938937 68.031468 
L 213.370119 66.908277 
L 213.801301 66.988325 
L 214.663665 69.879247 
L 215.094847 71.489437 
L 215.526028 75.117736 
L 216.388392 84.478323 
L 217.681937 95.6994 
L 218.113119 101.356364 
L 218.975483 114.990532 
L 219.837847 123.534557 
L 220.269028 125.014027 
L 220.70021 124.133314 
L 221.131392 121.59237 
L 222.856119 106.255661 
L 223.287301 106.022811 
L 224.149665 112.279632 
L 225.012028 122.840488 
L 225.44321 127.284762 
L 225.874392 130.236631 
L 226.305574 132.239637 
L 226.736756 133.164228 
L 227.167937 132.31425 
L 228.030301 127.487425 
L 228.461483 123.963086 
L 229.323847 111.97957 
L 230.617392 103.740859 
L 231.048574 102.504138 
L 231.479756 102.135614 
L 231.910937 102.42471 
L 232.342119 102.881982 
L 232.773301 104.903158 
L 233.204483 107.960196 
L 234.066847 118.345819 
L 234.92921 125.738081 
L 237.085119 138.416655 
L 237.947483 142.411937 
L 239.241028 149.142946 
L 239.67221 150.51532 
L 240.965756 152.057636 
L 241.828119 152.945839 
L 242.259301 153.23063 
L 242.690483 153.350691 
L 243.984028 153.128668 
L 245.708756 154.066254 
L 246.139937 154.491931 
L 246.571119 155.316428 
L 247.002301 155.848313 
L 247.433483 156.726997 
L 248.295847 157.704916 
L 249.589392 158.000075 
L 250.020574 158.035604 
L 250.451756 158.788573 
L 250.882937 159.045295 
L 251.314119 159.148125 
L 251.745301 159.066288 
L 252.176483 158.188133 
L 252.607665 156.879534 
L 253.038847 154.908962 
L 254.763574 139.411406 
L 255.194756 133.798349 
L 255.625937 126.686092 
L 256.057119 122.203499 
L 256.488301 120.02818 
L 256.919483 119.123921 
L 257.350665 118.786129 
L 257.781847 117.625119 
L 258.213028 115.725774 
L 258.64421 113.127527 
L 259.075392 111.935846 
L 259.937756 106.674549 
L 260.368938 104.524035 
L 260.800119 101.144271 
L 261.662483 96.882865 
L 262.093665 96.039779 
L 262.524847 96.273319 
L 262.956028 98.122743 
L 263.38721 101.087898 
L 263.818392 106.36675 
L 264.249574 108.767858 
L 265.111937 114.988553 
L 265.543119 117.944958 
L 265.974301 118.237031 
L 266.405483 117.014244 
L 267.267847 112.191646 
L 267.699028 110.507681 
L 268.13021 109.727023 
L 268.561392 109.497728 
L 268.992574 110.274041 
L 269.854938 115.053738 
L 270.286119 119.98509 
L 271.148483 132.255796 
L 271.579665 136.845075 
L 273.304392 148.929055 
L 273.735574 151.154384 
L 274.166756 152.60137 
L 275.029119 153.780471 
L 275.460301 153.944129 
L 275.891483 154.674002 
L 276.322665 154.676915 
L 276.753847 152.466547 
L 277.61621 144.849924 
L 278.047392 140.00663 
L 278.909756 136.158397 
L 279.772119 132.22797 
L 280.203301 131.459779 
L 280.634483 131.713296 
L 281.065665 132.202141 
L 281.928028 134.443831 
L 282.35921 137.350963 
L 283.221574 147.48144 
L 284.083937 155.613424 
L 284.515119 158.190208 
L 284.946301 160.086398 
L 285.808665 161.135691 
L 286.239847 160.083528 
L 286.671028 157.646055 
L 288.395756 142.641494 
L 289.258119 135.808168 
L 290.120483 130.952036 
L 290.551665 130.601629 
L 290.982847 131.782464 
L 291.84521 138.182999 
L 293.569937 151.839543 
L 294.432301 158.193081 
L 294.863483 162.39982 
L 295.294665 165.189236 
L 296.157028 168.542431 
L 296.58821 169.996201 
L 297.450574 169.627918 
L 297.881756 169.017924 
L 298.312937 167.848327 
L 298.744119 167.16208 
L 299.175301 167.542241 
L 299.606483 169.286603 
L 300.468847 174.765558 
L 300.900028 176.806018 
L 301.33121 180.831902 
L 301.762392 186.717496 
L 302.193574 190.563479 
L 302.624756 198.573217 
L 303.055938 203.09282 
L 303.487119 205.753184 
L 303.918301 207.21794 
L 304.349483 208.150342 
L 304.780665 207.050953 
L 305.211847 204.772448 
L 306.07421 197.902342 
L 306.936574 185.49485 
L 307.367756 182.137023 
L 307.798937 177.269772 
L 308.230119 175.400074 
L 308.661301 174.329242 
L 309.092483 171.509713 
L 309.954847 167.818761 
L 310.81721 166.73021 
L 311.248392 166.561994 
L 311.679574 166.614863 
L 312.110756 167.040541 
L 312.973119 170.312987 
L 313.835483 174.726383 
L 314.266665 176.322507 
L 314.697847 177.060304 
L 315.129028 177.407952 
L 315.56021 176.110472 
L 316.422574 172.070644 
L 316.853756 170.541243 
L 317.716119 168.527172 
L 318.147301 168.02733 
L 318.578483 168.054189 
L 319.440847 169.228501 
L 319.872028 170.70796 
L 320.30321 172.723259 
L 320.734392 174.170296 
L 321.165574 174.803674 
L 321.596756 175.14444 
L 322.027938 175.054254 
L 322.459119 174.596823 
L 322.890301 174.311563 
L 323.321483 173.666499 
L 323.752665 173.519958 
L 324.183847 173.692039 
L 325.04621 176.221884 
L 325.908574 179.769601 
L 326.770937 182.454656 
L 327.633301 189.179919 
L 328.064483 191.437129 
L 328.926847 192.459716 
L 329.358028 192.666477 
L 329.78921 192.066931 
L 330.651574 190.356219 
L 331.945119 184.163131 
L 332.376301 183.00437 
L 332.807483 182.460709 
L 333.238665 182.591608 
L 335.394574 186.923309 
L 335.825756 187.517582 
L 337.119301 188.700094 
L 337.550483 189.728335 
L 337.981665 190.421463 
L 338.412847 191.823362 
L 338.844028 191.839384 
L 339.27521 191.222028 
L 339.706392 189.918895 
L 340.137574 187.886635 
L 340.568756 187.451438 
L 340.999937 186.699787 
L 341.862301 184.68288 
L 342.293483 182.79725 
L 343.155847 179.930215 
L 343.587028 177.588943 
L 344.449392 176.062738 
L 344.880574 176.218887 
L 347.036483 180.413077 
L 347.467665 180.992177 
L 348.330028 181.126852 
L 348.76121 180.858462 
L 349.192392 180.050366 
L 349.623574 178.520496 
L 350.054756 176.499453 
L 350.917119 174.964218 
L 351.348301 175.045085 
L 351.779483 175.468595 
L 352.641847 178.059039 
L 353.50421 183.985906 
L 353.935392 185.346242 
L 354.366574 186.200704 
L 354.797756 186.734757 
L 356.091301 187.507903 
L 356.522483 188.784936 
L 357.384847 190.281735 
L 357.816028 190.45909 
L 358.678392 192.472781 
L 359.109574 192.885075 
L 359.540756 192.974791 
L 359.971937 192.860293 
L 360.403119 192.185264 
L 360.834301 191.79116 
L 361.265483 191.135258 
L 361.696665 191.02123 
L 362.127847 191.653199 
L 362.99021 194.413737 
L 363.421392 195.005932 
L 363.852574 195.401265 
L 364.283756 195.208268 
L 364.714938 194.580544 
L 365.577301 191.749328 
L 366.008483 191.115951 
L 366.439665 191.194829 
L 366.870847 192.145041 
L 367.302028 193.413873 
L 368.164392 195.044118 
L 368.595574 195.027537 
L 369.457937 193.783975 
L 369.889119 193.941174 
L 370.320301 194.60999 
L 370.751483 195.715791 
L 371.182665 197.398995 
L 371.613847 198.55371 
L 372.045028 200.477325 
L 372.907392 203.068908 
L 373.338574 203.328069 
L 373.769756 200.223839 
L 374.200938 198.836733 
L 375.063301 195.136042 
L 375.925665 189.695703 
L 376.356847 188.250454 
L 376.788028 187.67475 
L 377.21921 187.440481 
L 377.650392 187.907161 
L 378.512756 189.668015 
L 378.943937 191.206736 
L 379.806301 192.509379 
L 380.237483 193.031835 
L 380.668665 194.331862 
L 381.531028 198.930074 
L 384.118119 213.095873 
L 384.549301 214.226835 
L 384.980483 214.371498 
L 386.274028 213.550328 
L 386.70521 214.28341 
L 387.567574 215.093763 
L 387.998756 216.330083 
L 388.861119 220.338738 
L 389.723483 225.823835 
L 390.585847 231.434067 
L 391.44821 237.854942 
L 391.879392 239.147617 
L 392.310574 239.043108 
L 392.741756 237.687955 
L 393.172937 235.573241 
L 394.035301 229.355841 
L 394.897665 222.291889 
L 396.622392 212.831699 
L 397.053574 211.067159 
L 397.484756 211.973531 
L 397.915937 213.446088 
L 399.209483 220.011966 
L 400.503028 227.98955 
L 400.93421 229.545051 
L 401.365392 230.570745 
L 401.796574 230.97305 
L 402.658937 229.42537 
L 403.090119 227.74764 
L 403.952483 222.353508 
L 406.108392 212.047655 
L 406.539574 210.949316 
L 406.970756 209.067572 
L 407.401938 205.745853 
L 407.833119 203.865138 
L 408.695483 204.535273 
L 409.126665 204.17424 
L 409.557847 203.365476 
L 409.989028 202.195588 
L 411.713756 191.950316 
L 412.144937 191.480639 
L 412.576119 191.516837 
L 413.007301 192.12016 
L 413.438483 193.783856 
L 414.300847 199.723457 
L 416.025574 213.532199 
L 417.319119 218.068583 
L 417.750301 217.177274 
L 419.043847 211.499689 
L 419.475028 210.376368 
L 419.90621 210.727413 
L 420.768574 215.392328 
L 422.062119 224.281489 
L 422.493301 227.801678 
L 422.924483 229.758165 
L 423.355665 229.861826 
L 423.786847 228.581306 
L 424.218028 225.852901 
L 424.64921 220.308073 
L 425.080392 212.774335 
L 425.511574 208.03148 
L 426.373938 203.034269 
L 426.805119 200.137269 
L 427.236301 198.61399 
L 427.667483 197.718436 
L 428.961028 195.900648 
L 430.685756 192.710527 
L 431.116937 192.217277 
L 431.548119 192.082423 
L 432.410483 192.501708 
L 432.841665 192.556275 
L 433.704028 192.903743 
L 434.13521 193.823989 
L 434.566392 195.016021 
L 435.428756 199.522999 
L 436.291119 204.971339 
L 436.722301 207.638494 
L 437.584665 216.2297 
L 438.015847 217.315524 
L 438.447028 217.426825 
L 438.87821 216.353736 
L 439.309392 214.903593 
L 439.740574 212.990166 
L 440.171756 210.529302 
L 440.602937 208.717367 
L 441.034119 208.372825 
L 441.465301 210.43534 
L 442.327665 213.199474 
L 442.758847 214.22329 
L 443.190028 214.669704 
L 443.62121 214.328468 
L 444.483574 212.269729 
L 445.345937 209.572428 
L 445.777119 209.125455 
L 446.208301 209.923003 
L 447.501847 214.210794 
L 448.36421 216.572424 
L 448.795392 216.773241 
L 449.226574 216.674945 
L 450.088937 217.10268 
L 450.520119 216.958867 
L 450.951301 217.010127 
L 451.382483 216.780463 
L 451.813665 215.546779 
L 452.244847 213.475595 
L 452.676028 212.270938 
L 453.10721 211.532761 
L 453.538392 211.887002 
L 453.969574 213.421677 
L 457.419028 240.678907 
L 457.85021 242.326022 
L 458.281392 245.082135 
L 458.712574 244.851911 
L 459.143756 242.707791 
L 459.574938 239.004393 
L 460.437301 229.442641 
L 461.299665 223.85645 
L 461.730847 223.794063 
L 462.162028 225.132814 
L 462.59321 227.083738 
L 463.886756 236.218006 
L 464.317937 240.645436 
L 464.749119 248.281605 
L 465.611483 256.956763 
L 466.042665 259.53646 
L 466.473847 261.022891 
L 466.905028 261.056253 
L 467.767392 258.55968 
L 468.198574 256.79572 
L 469.060938 252.036863 
L 469.492119 251.251201 
L 469.923301 251.289187 
L 470.785665 251.195226 
L 472.941574 249.105852 
L 473.372756 249.118118 
L 473.803937 248.897413 
L 474.235119 248.818914 
L 474.666301 248.950192 
L 475.097483 249.392271 
L 475.528665 249.999079 
L 475.959847 250.867775 
L 476.391028 252.204269 
L 477.684574 262.327403 
L 478.546938 267.819452 
L 479.409301 272.098554 
L 480.702847 277.133731 
L 481.996392 281.835584 
L 482.858756 284.069021 
L 483.289937 283.888829 
L 483.721119 283.843781 
L 484.152301 283.933877 
L 486.30821 285.195219 
L 488.895301 285.375411 
L 489.757665 285.442982 
L 490.188847 285.690746 
L 490.620028 285.803366 
L 491.482392 285.533078 
L 492.344756 285.48803 
L 493.207119 285.961033 
L 494.500665 286.253845 
L 495.363028 286.591704 
L 496.225392 286.952087 
L 497.518937 287.312471 
L 498.812483 287.807998 
L 499.674847 288.979244 
L 500.968392 284.683491 
L 501.399574 283.208657 
L 502.693119 277.277725 
L 503.555483 271.900823 
L 504.417847 263.708057 
L 504.849028 256.909099 
L 505.28021 253.794701 
L 506.142574 250.407488 
L 506.573756 249.820007 
L 507.004937 249.756301 
L 507.436119 250.257551 
L 507.867301 251.368806 
L 508.298483 252.99997 
L 508.729665 255.788105 
L 509.160847 261.818722 
L 510.02321 269.463851 
L 510.454392 271.703161 
L 510.885574 272.463772 
L 511.316756 271.835778 
L 511.747937 269.792121 
L 512.179119 266.254302 
L 512.610301 261.300821 
L 513.041483 254.362854 
L 513.903847 247.599874 
L 514.76621 242.69144 
L 515.197392 242.055715 
L 515.628574 241.625902 
L 516.059756 241.521683 
L 516.922119 241.869131 
L 517.784483 242.368374 
L 518.215665 244.086437 
L 519.078028 248.084993 
L 520.371574 253.86413 
L 520.802756 254.837045 
L 521.233938 254.768135 
L 521.665119 253.977269 
L 522.958665 249.867951 
L 523.821028 248.509602 
L 524.25221 248.38992 
L 524.683392 248.423372 
L 525.114574 248.74443 
L 525.545756 249.406545 
L 526.839301 252.3073 
L 527.270483 252.666345 
L 527.701665 252.838136 
L 528.564028 252.733248 
L 528.99521 253.066572 
L 529.426392 253.905682 
L 530.288756 259.828882 
L 531.151119 264.740513 
L 531.582301 266.73206 
L 532.013483 267.914752 
L 532.444665 268.371624 
L 532.875847 267.896763 
L 533.73821 264.250859 
L 534.169392 262.575317 
L 535.462937 255.182486 
L 536.325301 254.204367 
L 537.618847 253.197331 
L 538.050028 252.228282 
L 539.774756 246.642941 
L 541.068301 244.139735 
L 542.361847 242.948643 
L 542.793028 243.024615 
L 543.22421 242.958381 
L 544.948937 243.499626 
L 545.811301 244.185602 
L 546.673665 244.99193 
L 547.536028 245.734551 
L 548.398392 246.250595 
L 548.829574 246.006027 
L 549.260756 245.401746 
L 550.123119 243.457105 
L 550.985483 241.00509 
L 553.141392 232.851809 
L 554.866119 228.603701 
L 555.297301 227.994256 
L 555.728483 228.641397 
L 556.159665 228.749682 
L 556.590847 228.373497 
L 557.022028 228.497244 
L 557.45321 227.690667 
L 557.884392 229.181723 
L 558.746756 235.394448 
L 559.177937 239.224609 
L 559.609119 241.624874 
L 560.040301 245.054408 
L 560.471483 245.801524 
L 560.902665 245.382149 
L 561.765028 243.610927 
L 562.19621 242.279726 
L 563.058574 238.389875 
L 564.352119 231.115027 
L 564.783301 229.454527 
L 565.214483 227.233026 
L 565.645665 223.015264 
L 566.076847 222.522773 
L 566.508028 222.630499 
L 566.93921 222.886842 
L 567.370392 222.823715 
L 568.232756 222.220883 
L 568.663937 222.497383 
L 569.095119 223.178445 
L 569.526301 225.482111 
L 569.957483 230.812537 
L 571.251028 241.163707 
L 572.544574 250.521266 
L 572.975756 252.211821 
L 574.269301 255.791761 
L 575.994028 267.647591 
L 576.42521 269.123095 
L 576.856392 269.771086 
L 577.287574 269.321945 
L 577.718756 268.135387 
L 579.443483 260.904759 
L 579.874665 261.171181 
L 581.16821 269.489502 
L 582.030574 275.744169 
L 582.892938 279.680877 
L 585.480028 287.784585 
L 585.480028 287.784585 
" clip-path="url(#p59f39162ea)" style="fill: none; stroke: #ff7f0e; stroke-width: 1.65; stroke-linecap: square"/>
   </g>
   <g id="line2d_29">
    <path d="M 68.061847 84.203468 
L 68.92421 91.99378 
L 69.786574 98.113303 
L 70.217756 102.014702 
L 70.648937 107.65483 
L 71.080119 116.36245 
L 73.236028 138.013344 
L 74.960756 149.731903 
L 75.823119 158.558916 
L 76.685483 166.795321 
L 77.116665 172.78091 
L 77.547847 180.821861 
L 79.272574 195.682547 
L 79.703756 198.838997 
L 80.134937 200.305091 
L 80.566119 202.28643 
L 81.859665 209.799914 
L 87.033847 254.246253 
L 87.465028 255.849071 
L 87.89621 254.614147 
L 88.327392 252.973161 
L 88.758574 250.619569 
L 90.052119 242.269263 
L 90.483301 239.885766 
L 91.345665 237.643684 
L 91.776847 236.637676 
L 92.208028 238.381041 
L 93.070392 244.743738 
L 93.932756 255.305542 
L 94.795119 265.654323 
L 95.657483 273.473708 
L 96.088665 275.213948 
L 96.519847 273.98339 
L 97.813392 263.741554 
L 98.244574 260.864259 
L 98.675756 259.953511 
L 99.106937 260.893625 
L 99.538119 264.564454 
L 101.262847 290.171848 
L 102.556392 301.748911 
L 102.987574 302.818255 
L 104.281119 297.031537 
L 105.143483 288.758173 
L 106.005847 272.117197 
L 106.437028 266.53171 
L 107.730574 255.138832 
L 108.161756 253.226511 
L 108.592937 252.346277 
L 109.455301 251.350427 
L 109.886483 251.319312 
L 110.748847 253.761021 
L 111.180028 254.781383 
L 111.61121 256.287613 
L 113.335938 269.297544 
L 113.767119 274.652738 
L 114.198301 282.539328 
L 114.629483 288.117495 
L 115.060665 291.684775 
L 115.491847 294.241742 
L 116.35421 297.732682 
L 116.785392 300.421637 
L 117.647756 301.195963 
L 118.078937 301.242669 
L 118.510119 301.680423 
L 118.941301 302.297281 
L 119.372483 304.811326 
L 120.234847 312.008681 
L 120.666028 319.633931 
L 121.09721 323.723076 
L 121.959574 327.989665 
L 122.390756 329.15253 
L 122.821937 328.781428 
L 123.253119 327.599762 
L 123.684301 323.643262 
L 124.115483 317.65386 
L 124.977847 309.717498 
L 125.409028 307.56805 
L 125.84021 308.490434 
L 127.133756 320.39699 
L 127.564937 326.722174 
L 127.996119 330.130277 
L 128.858483 333.532796 
L 129.289665 334.195081 
L 130.152028 334.997874 
L 130.58321 334.886562 
L 131.014392 335.036238 
L 131.445574 334.244403 
L 131.876756 331.266282 
L 134.895028 286.846238 
L 135.32621 284.905349 
L 135.757392 286.239957 
L 136.188574 290.478182 
L 136.619756 297.407218 
L 137.482119 305.962476 
L 138.344483 313.820339 
L 139.206847 323.990661 
L 139.638028 326.475601 
L 140.06921 330.324605 
L 140.500392 332.026299 
L 140.931574 333.045352 
L 141.362756 332.78794 
L 141.793937 331.379687 
L 142.656301 327.464032 
L 143.518665 322.563084 
L 143.949847 320.87927 
L 144.381028 319.864713 
L 145.674574 314.972265 
L 146.105756 312.965463 
L 146.536937 309.125559 
L 146.968119 306.309502 
L 147.399301 304.413243 
L 148.261665 302.195154 
L 148.692847 302.887443 
L 149.55521 307.716115 
L 151.711119 333.088216 
L 152.142301 335.045906 
L 153.004665 335.859817 
L 153.435847 335.493561 
L 154.29821 336.693004 
L 154.729392 336.683005 
L 155.160574 336.321443 
L 155.591756 334.86974 
L 156.022937 330.929203 
L 157.316483 299.770898 
L 158.178847 284.200758 
L 158.610028 276.905476 
L 159.04121 275.264722 
L 159.472392 276.228399 
L 160.334756 283.922531 
L 160.765938 286.194276 
L 161.197119 289.313832 
L 161.628301 290.978719 
L 162.490665 293.568059 
L 163.353028 296.273944 
L 163.78421 296.352725 
L 164.215392 297.263823 
L 164.646574 297.711576 
L 165.077756 297.277268 
L 165.508938 296.142079 
L 165.940119 293.541774 
L 166.371301 291.69433 
L 166.802483 288.577771 
L 167.233665 286.874699 
L 167.664847 284.396944 
L 168.096028 282.920862 
L 168.52721 283.799338 
L 168.958392 286.109101 
L 170.683119 308.581033 
L 171.114301 309.701489 
L 171.545483 309.557975 
L 171.976665 308.174804 
L 172.407847 303.655556 
L 173.27021 291.134763 
L 174.132574 281.454557 
L 174.563756 279.882923 
L 174.994937 281.8756 
L 176.719665 301.574268 
L 177.150847 305.115596 
L 177.582028 307.098715 
L 178.01321 306.862997 
L 178.444392 305.075072 
L 178.875574 301.410315 
L 179.306756 299.360164 
L 179.737937 296.702294 
L 180.169119 294.900476 
L 180.600301 294.525149 
L 181.031483 295.947775 
L 181.893847 301.342982 
L 182.75621 309.041019 
L 183.187392 310.997629 
L 183.618574 311.75835 
L 184.049756 311.304105 
L 184.480937 310.668679 
L 184.912119 309.294637 
L 185.343301 307.221921 
L 185.774483 306.373691 
L 186.205665 304.9633 
L 186.636847 304.255068 
L 187.068028 305.144061 
L 187.49921 306.341229 
L 187.930392 308.328573 
L 188.792756 310.390782 
L 189.223937 310.805095 
L 189.655119 310.93941 
L 190.086301 310.552288 
L 190.517483 310.474579 
L 190.948665 309.738061 
L 191.811028 305.832466 
L 193.535756 297.265388 
L 195.260483 281.89813 
L 195.691665 275.958721 
L 196.554028 268.618089 
L 196.98521 264.308457 
L 198.278756 244.064132 
L 199.141119 237.755898 
L 199.572301 236.060786 
L 200.003483 235.231283 
L 200.434665 235.255664 
L 200.865847 237.188891 
L 201.72821 241.841965 
L 202.159392 243.904634 
L 202.590574 245.366516 
L 203.884119 250.705625 
L 204.315301 253.664638 
L 204.746483 254.482483 
L 205.177665 254.472455 
L 205.608847 253.745095 
L 206.040028 253.4291 
L 206.47121 254.440402 
L 206.902392 256.705735 
L 207.764756 263.407263 
L 208.627119 269.883762 
L 209.920665 283.470996 
L 211.21421 291.913359 
L 211.645392 293.895657 
L 212.076574 295.084263 
L 212.938937 298.156782 
L 213.370119 299.279973 
L 213.801301 299.199925 
L 214.663665 296.309003 
L 215.094847 294.698813 
L 215.526028 291.070514 
L 216.388392 281.709927 
L 217.681937 270.48885 
L 218.113119 264.831886 
L 218.975483 251.197718 
L 219.837847 242.653693 
L 220.269028 241.174223 
L 220.70021 242.054936 
L 221.131392 244.59588 
L 222.856119 259.932589 
L 223.287301 260.165439 
L 224.149665 253.908618 
L 225.012028 243.347762 
L 225.44321 238.903488 
L 225.874392 235.951619 
L 226.305574 233.948613 
L 226.736756 233.024022 
L 227.167937 233.874 
L 228.030301 238.700825 
L 228.461483 242.225164 
L 229.323847 254.20868 
L 230.617392 262.447391 
L 231.048574 263.684112 
L 231.479756 264.052636 
L 231.910937 263.76354 
L 232.342119 263.306268 
L 232.773301 261.285092 
L 233.204483 258.228054 
L 234.066847 247.842431 
L 234.92921 240.450169 
L 237.085119 227.771595 
L 237.947483 223.776313 
L 239.241028 217.045304 
L 239.67221 215.67293 
L 240.965756 214.130614 
L 241.828119 213.242411 
L 242.259301 212.95762 
L 242.690483 212.837559 
L 243.984028 213.059582 
L 245.708756 212.121996 
L 246.139937 211.696319 
L 246.571119 210.871822 
L 247.002301 210.339937 
L 247.433483 209.461253 
L 248.295847 208.483334 
L 249.589392 208.188175 
L 250.020574 208.152646 
L 250.451756 207.399677 
L 250.882937 207.142955 
L 251.314119 207.040125 
L 251.745301 207.121962 
L 252.176483 208.000117 
L 252.607665 209.308716 
L 253.038847 211.279288 
L 254.763574 226.776844 
L 255.194756 232.389901 
L 255.625937 239.502158 
L 256.057119 243.984751 
L 256.488301 246.16007 
L 256.919483 247.064329 
L 257.350665 247.402121 
L 257.781847 248.563131 
L 258.213028 250.462476 
L 258.64421 253.060723 
L 259.075392 254.252404 
L 259.937756 259.513701 
L 260.368938 261.664215 
L 260.800119 265.043979 
L 261.662483 269.305385 
L 262.093665 270.148471 
L 262.524847 269.914931 
L 262.956028 268.065507 
L 263.38721 265.100352 
L 263.818392 259.8215 
L 264.249574 257.420392 
L 265.111937 251.199697 
L 265.543119 248.243292 
L 265.974301 247.951219 
L 266.405483 249.174006 
L 267.267847 253.996604 
L 267.699028 255.680569 
L 268.13021 256.461227 
L 268.561392 256.690522 
L 268.992574 255.914209 
L 269.854938 251.134512 
L 270.286119 246.20316 
L 271.148483 233.932454 
L 271.579665 229.343175 
L 273.304392 217.259195 
L 273.735574 215.033866 
L 274.166756 213.58688 
L 275.029119 212.407779 
L 275.460301 212.244121 
L 275.891483 211.514248 
L 276.322665 211.511335 
L 276.753847 213.721703 
L 277.61621 221.338326 
L 278.047392 226.18162 
L 278.909756 230.029853 
L 279.772119 233.96028 
L 280.203301 234.728471 
L 280.634483 234.474954 
L 281.065665 233.986109 
L 281.928028 231.744419 
L 282.35921 228.837287 
L 283.221574 218.70681 
L 284.083937 210.574826 
L 284.515119 207.998042 
L 284.946301 206.101852 
L 285.808665 205.052559 
L 286.239847 206.104722 
L 286.671028 208.542195 
L 288.395756 223.546756 
L 289.258119 230.380082 
L 290.120483 235.236214 
L 290.551665 235.586621 
L 290.982847 234.405786 
L 291.84521 228.005251 
L 293.569937 214.348707 
L 294.432301 207.995169 
L 294.863483 203.78843 
L 295.294665 200.999014 
L 296.157028 197.645819 
L 296.58821 196.192049 
L 297.450574 196.560332 
L 297.881756 197.170326 
L 298.312937 198.339923 
L 298.744119 199.02617 
L 299.175301 198.646009 
L 299.606483 196.901647 
L 300.468847 191.422692 
L 300.900028 189.382232 
L 301.33121 185.356348 
L 301.762392 179.470754 
L 302.193574 175.624771 
L 302.624756 167.615033 
L 303.055938 163.09543 
L 303.487119 160.435066 
L 303.918301 158.97031 
L 304.349483 158.037908 
L 304.780665 159.137297 
L 305.211847 161.415802 
L 306.07421 168.285908 
L 306.936574 180.6934 
L 307.367756 184.051227 
L 307.798937 188.918478 
L 308.230119 190.788176 
L 308.661301 191.859008 
L 309.092483 194.678537 
L 309.954847 198.369489 
L 310.81721 199.45804 
L 311.248392 199.626256 
L 311.679574 199.573387 
L 312.110756 199.147709 
L 312.973119 195.875263 
L 313.835483 191.461867 
L 314.266665 189.865743 
L 314.697847 189.127946 
L 315.129028 188.780298 
L 315.56021 190.077778 
L 316.422574 194.117606 
L 316.853756 195.647007 
L 317.716119 197.661078 
L 318.147301 198.16092 
L 318.578483 198.134061 
L 319.440847 196.959749 
L 319.872028 195.48029 
L 320.30321 193.464991 
L 320.734392 192.017954 
L 321.165574 191.384576 
L 321.596756 191.04381 
L 322.027938 191.133996 
L 322.459119 191.591427 
L 322.890301 191.876687 
L 323.321483 192.521751 
L 323.752665 192.668292 
L 324.183847 192.496211 
L 325.04621 189.966366 
L 325.908574 186.418649 
L 326.770937 183.733594 
L 327.633301 177.008331 
L 328.064483 174.751121 
L 328.926847 173.728534 
L 329.358028 173.521773 
L 329.78921 174.121319 
L 330.651574 175.832031 
L 331.945119 182.025119 
L 332.376301 183.18388 
L 332.807483 183.727541 
L 333.238665 183.596642 
L 335.394574 179.264941 
L 335.825756 178.670668 
L 337.119301 177.488156 
L 337.550483 176.459915 
L 337.981665 175.766787 
L 338.412847 174.364888 
L 338.844028 174.348866 
L 339.27521 174.966222 
L 339.706392 176.269355 
L 340.137574 178.301615 
L 340.568756 178.736812 
L 340.999937 179.488463 
L 341.862301 181.50537 
L 342.293483 183.391 
L 343.155847 186.258035 
L 343.587028 188.599307 
L 344.449392 190.125512 
L 344.880574 189.969363 
L 347.036483 185.775173 
L 347.467665 185.196073 
L 348.330028 185.061398 
L 348.76121 185.329788 
L 349.192392 186.137884 
L 349.623574 187.667754 
L 350.054756 189.688797 
L 350.917119 191.224032 
L 351.348301 191.143165 
L 351.779483 190.719655 
L 352.641847 188.129211 
L 353.50421 182.202344 
L 353.935392 180.842008 
L 354.366574 179.987546 
L 354.797756 179.453493 
L 356.091301 178.680347 
L 356.522483 177.403314 
L 357.384847 175.906515 
L 357.816028 175.72916 
L 358.678392 173.715469 
L 359.109574 173.303175 
L 359.540756 173.213459 
L 359.971937 173.327957 
L 360.403119 174.002986 
L 360.834301 174.39709 
L 361.265483 175.052992 
L 361.696665 175.16702 
L 362.127847 174.535051 
L 362.99021 171.774513 
L 363.421392 171.182318 
L 363.852574 170.786985 
L 364.283756 170.979982 
L 364.714938 171.607706 
L 365.577301 174.438922 
L 366.008483 175.072299 
L 366.439665 174.993421 
L 366.870847 174.043209 
L 367.302028 172.774377 
L 368.164392 171.144132 
L 368.595574 171.160713 
L 369.457937 172.404275 
L 369.889119 172.247076 
L 370.320301 171.57826 
L 370.751483 170.472459 
L 371.182665 168.789255 
L 371.613847 167.63454 
L 372.045028 165.710925 
L 372.907392 163.119342 
L 373.338574 162.860181 
L 373.769756 165.964411 
L 374.200938 167.351517 
L 375.063301 171.052208 
L 375.925665 176.492547 
L 376.356847 177.937796 
L 376.788028 178.5135 
L 377.21921 178.747769 
L 377.650392 178.281089 
L 378.512756 176.520235 
L 378.943937 174.981514 
L 379.806301 173.678871 
L 380.237483 173.156415 
L 380.668665 171.856388 
L 381.531028 167.258176 
L 384.118119 153.092377 
L 384.549301 151.961415 
L 384.980483 151.816752 
L 386.274028 152.637922 
L 386.70521 151.90484 
L 387.567574 151.094487 
L 387.998756 149.858167 
L 388.861119 145.849512 
L 389.723483 140.364415 
L 390.585847 134.754183 
L 391.44821 128.333308 
L 391.879392 127.040633 
L 392.310574 127.145142 
L 392.741756 128.500295 
L 393.172937 130.615009 
L 394.035301 136.832409 
L 394.897665 143.896361 
L 396.622392 153.356551 
L 397.053574 155.121091 
L 397.484756 154.214719 
L 397.915937 152.742162 
L 399.209483 146.176284 
L 400.503028 138.1987 
L 400.93421 136.643199 
L 401.365392 135.617505 
L 401.796574 135.2152 
L 402.658937 136.76288 
L 403.090119 138.44061 
L 403.952483 143.834742 
L 406.108392 154.140595 
L 406.539574 155.238934 
L 406.970756 157.120678 
L 407.401938 160.442397 
L 407.833119 162.323112 
L 408.695483 161.652977 
L 409.126665 162.01401 
L 409.557847 162.822774 
L 409.989028 163.992662 
L 411.713756 174.237934 
L 412.144937 174.707611 
L 412.576119 174.671413 
L 413.007301 174.06809 
L 413.438483 172.404394 
L 414.300847 166.464793 
L 416.025574 152.656051 
L 417.319119 148.119667 
L 417.750301 149.010976 
L 419.043847 154.688561 
L 419.475028 155.811882 
L 419.90621 155.460837 
L 420.768574 150.795922 
L 422.062119 141.906761 
L 422.493301 138.386572 
L 422.924483 136.430085 
L 423.355665 136.326424 
L 423.786847 137.606944 
L 424.218028 140.335349 
L 424.64921 145.880177 
L 425.080392 153.413915 
L 425.511574 158.15677 
L 426.373938 163.153981 
L 426.805119 166.050981 
L 427.236301 167.57426 
L 427.667483 168.469814 
L 428.961028 170.287602 
L 430.685756 173.477723 
L 431.116937 173.970973 
L 431.548119 174.105827 
L 432.410483 173.686542 
L 432.841665 173.631975 
L 433.704028 173.284507 
L 434.13521 172.364261 
L 434.566392 171.172229 
L 435.428756 166.665251 
L 436.291119 161.216911 
L 436.722301 158.549756 
L 437.584665 149.95855 
L 438.015847 148.872726 
L 438.447028 148.761425 
L 438.87821 149.834514 
L 439.309392 151.284657 
L 439.740574 153.198084 
L 440.171756 155.658948 
L 440.602937 157.470883 
L 441.034119 157.815425 
L 441.465301 155.75291 
L 442.327665 152.988776 
L 442.758847 151.96496 
L 443.190028 151.518546 
L 443.62121 151.859782 
L 444.483574 153.918521 
L 445.345937 156.615822 
L 445.777119 157.062795 
L 446.208301 156.265247 
L 447.501847 151.977456 
L 448.36421 149.615826 
L 448.795392 149.415009 
L 449.226574 149.513305 
L 450.088937 149.08557 
L 450.520119 149.229383 
L 450.951301 149.178123 
L 451.382483 149.407787 
L 451.813665 150.641471 
L 452.244847 152.712655 
L 452.676028 153.917312 
L 453.10721 154.655489 
L 453.538392 154.301248 
L 453.969574 152.766573 
L 457.419028 125.509343 
L 457.85021 123.862228 
L 458.281392 121.106115 
L 458.712574 121.336339 
L 459.143756 123.480459 
L 459.574938 127.183857 
L 460.437301 136.745609 
L 461.299665 142.3318 
L 461.730847 142.394187 
L 462.162028 141.055436 
L 462.59321 139.104512 
L 463.886756 129.970244 
L 464.317937 125.542814 
L 464.749119 117.906645 
L 465.611483 109.231487 
L 466.042665 106.65179 
L 466.473847 105.165359 
L 466.905028 105.131997 
L 467.767392 107.62857 
L 468.198574 109.39253 
L 469.060938 114.151387 
L 469.492119 114.937049 
L 469.923301 114.899063 
L 470.785665 114.993024 
L 472.941574 117.082398 
L 473.372756 117.070132 
L 473.803937 117.290837 
L 474.235119 117.369336 
L 474.666301 117.238058 
L 475.097483 116.795979 
L 475.528665 116.189171 
L 475.959847 115.320475 
L 476.391028 113.983981 
L 477.684574 103.860847 
L 478.546938 98.368798 
L 479.409301 94.089696 
L 480.702847 89.054519 
L 481.996392 84.352666 
L 482.858756 82.119229 
L 483.289937 82.299421 
L 483.721119 82.344469 
L 484.152301 82.254373 
L 486.30821 80.993031 
L 488.895301 80.812839 
L 489.757665 80.745268 
L 490.188847 80.497504 
L 490.620028 80.384884 
L 491.482392 80.655172 
L 492.344756 80.70022 
L 493.207119 80.227217 
L 494.500665 79.934405 
L 495.363028 79.596546 
L 496.225392 79.236163 
L 497.518937 78.875779 
L 498.812483 78.380252 
L 499.674847 77.209006 
L 500.968392 81.504759 
L 501.399574 82.979593 
L 502.693119 88.910525 
L 503.555483 94.287427 
L 504.417847 102.480193 
L 504.849028 109.279151 
L 505.28021 112.393549 
L 506.142574 115.780762 
L 506.573756 116.368243 
L 507.004937 116.431949 
L 507.436119 115.930699 
L 507.867301 114.819444 
L 508.298483 113.18828 
L 508.729665 110.400145 
L 509.160847 104.369528 
L 510.02321 96.724399 
L 510.454392 94.485089 
L 510.885574 93.724478 
L 511.316756 94.352472 
L 511.747937 96.396129 
L 512.179119 99.933948 
L 512.610301 104.887429 
L 513.041483 111.825396 
L 513.903847 118.588376 
L 514.76621 123.49681 
L 515.197392 124.132535 
L 515.628574 124.562348 
L 516.059756 124.666567 
L 516.922119 124.319119 
L 517.784483 123.819876 
L 518.215665 122.101813 
L 519.078028 118.103257 
L 520.371574 112.32412 
L 520.802756 111.351205 
L 521.233938 111.420115 
L 521.665119 112.210981 
L 522.958665 116.320299 
L 523.821028 117.678648 
L 524.25221 117.79833 
L 524.683392 117.764878 
L 525.114574 117.44382 
L 525.545756 116.781705 
L 526.839301 113.88095 
L 527.270483 113.521905 
L 527.701665 113.350114 
L 528.564028 113.455002 
L 528.99521 113.121678 
L 529.426392 112.282568 
L 530.288756 106.359368 
L 531.151119 101.447737 
L 531.582301 99.45619 
L 532.013483 98.273498 
L 532.444665 97.816626 
L 532.875847 98.291487 
L 533.73821 101.937391 
L 534.169392 103.612933 
L 535.462937 111.005764 
L 536.325301 111.983883 
L 537.618847 112.990919 
L 538.050028 113.959968 
L 539.774756 119.545309 
L 541.068301 122.048515 
L 542.361847 123.239607 
L 542.793028 123.163635 
L 543.22421 123.229869 
L 544.948937 122.688624 
L 545.811301 122.002648 
L 546.673665 121.19632 
L 547.536028 120.453699 
L 548.398392 119.937655 
L 548.829574 120.182223 
L 549.260756 120.786504 
L 550.123119 122.731145 
L 550.985483 125.18316 
L 553.141392 133.336441 
L 554.866119 137.584549 
L 555.297301 138.193994 
L 555.728483 137.546853 
L 556.159665 137.438568 
L 556.590847 137.814753 
L 557.022028 137.691006 
L 557.45321 138.497583 
L 557.884392 137.006527 
L 558.746756 130.793802 
L 559.177937 126.963641 
L 559.609119 124.563376 
L 560.040301 121.133842 
L 560.471483 120.386726 
L 560.902665 120.806101 
L 561.765028 122.577323 
L 562.19621 123.908524 
L 563.058574 127.798375 
L 564.352119 135.073223 
L 564.783301 136.733723 
L 565.214483 138.955224 
L 565.645665 143.172986 
L 566.076847 143.665477 
L 566.508028 143.557751 
L 566.93921 143.301408 
L 567.370392 143.364535 
L 568.232756 143.967367 
L 568.663937 143.690867 
L 569.095119 143.009805 
L 569.526301 140.706139 
L 569.957483 135.375713 
L 571.251028 125.024543 
L 572.544574 115.666984 
L 572.975756 113.976429 
L 574.269301 110.396489 
L 575.994028 98.540659 
L 576.42521 97.065155 
L 576.856392 96.417164 
L 577.287574 96.866305 
L 577.718756 98.052863 
L 579.443483 105.283491 
L 579.874665 105.017069 
L 581.16821 96.698748 
L 582.030574 90.444081 
L 582.892938 86.507373 
L 585.480028 78.403665 
L 585.480028 78.403665 
" clip-path="url(#p59f39162ea)" style="fill: none; stroke: #2ca02c; stroke-opacity: 0.75; stroke-width: 1.15; stroke-linecap: square"/>
   </g>
   <g id="patch_3">
    <path d="M 42.190937 343.870125 
L 42.190937 22.318125 
" style="fill: none; stroke: #000000; stroke-width: 0.8; stroke-linejoin: miter; stroke-linecap: square"/>
   </g>
   <g id="patch_4">
    <path d="M 42.190937 343.870125 
L 611.350937 343.870125 
" style="fill: none; stroke: #000000; stroke-width: 0.8; stroke-linejoin: miter; stroke-linecap: square"/>
   </g>
   <g id="text_16">
    <!-- Identity ambiguity and annotation-aware audit context -->
    <g transform="translate(161.926563 16.318125) scale(0.12 -0.12)">
     <defs>
      <path id="DejaVuSans-49" d="M 628 4666 
L 1259 4666 
L 1259 0 
L 628 0 
L 628 4666 
z
" transform="scale(0.015625)"/>
      <path id="DejaVuSans-79" d="M 2059 -325 
Q 1816 -950 1584 -1140 
Q 1353 -1331 966 -1331 
L 506 -1331 
L 506 -850 
L 844 -850 
Q 1081 -850 1212 -737 
Q 1344 -625 1503 -206 
L 1606 56 
L 191 3500 
L 800 3500 
L 1894 763 
L 2988 3500 
L 3597 3500 
L 2059 -325 
z
" transform="scale(0.015625)"/>
      <path id="DejaVuSans-62" d="M 3116 1747 
Q 3116 2381 2855 2742 
Q 2594 3103 2138 3103 
Q 1681 3103 1420 2742 
Q 1159 2381 1159 1747 
Q 1159 1113 1420 752 
Q 1681 391 2138 391 
Q 2594 391 2855 752 
Q 3116 1113 3116 1747 
z
M 1159 2969 
Q 1341 3281 1617 3432 
Q 1894 3584 2278 3584 
Q 2916 3584 3314 3078 
Q 3713 2572 3713 1747 
Q 3713 922 3314 415 
Q 2916 -91 2278 -91 
Q 1894 -91 1617 61 
Q 1341 213 1159 525 
L 1159 0 
L 581 0 
L 581 4863 
L 1159 4863 
L 1159 2969 
z
" transform="scale(0.015625)"/>
     </defs>
     <use xlink:href="#DejaVuSans-49"/>
     <use xlink:href="#DejaVuSans-64" x="29.492188"/>
     <use xlink:href="#DejaVuSans-65" x="92.96875"/>
     <use xlink:href="#DejaVuSans-6e" x="154.492188"/>
     <use xlink:href="#DejaVuSans-74" x="217.871094"/>
     <use xlink:href="#DejaVuSans-69" x="257.080078"/>
     <use xlink:href="#DejaVuSans-74" x="284.863281"/>
     <use xlink:href="#DejaVuSans-79" x="324.072266"/>
     <use xlink:href="#DejaVuSans-20" x="383.251953"/>
     <use xlink:href="#DejaVuSans-61" x="415.039062"/>
     <use xlink:href="#DejaVuSans-6d" x="476.318359"/>
     <use xlink:href="#DejaVuSans-62" x="573.730469"/>
     <use xlink:href="#DejaVuSans-69" x="637.207031"/>
     <use xlink:href="#DejaVuSans-67" x="664.990234"/>
     <use xlink:href="#DejaVuSans-75" x="728.466797"/>
     <use xlink:href="#DejaVuSans-69" x="791.845703"/>
     <use xlink:href="#DejaVuSans-74" x="819.628906"/>
     <use xlink:href="#DejaVuSans-79" x="858.837891"/>
     <use xlink:href="#DejaVuSans-20" x="918.017578"/>
     <use xlink:href="#DejaVuSans-61" x="949.804688"/>
     <use xlink:href="#DejaVuSans-6e" x="1011.083984"/>
     <use xlink:href="#DejaVuSans-64" x="1074.462891"/>
     <use xlink:href="#DejaVuSans-20" x="1137.939453"/>
     <use xlink:href="#DejaVuSans-61" x="1169.726562"/>
     <use xlink:href="#DejaVuSans-6e" x="1231.005859"/>
     <use xlink:href="#DejaVuSans-6e" x="1294.384766"/>
     <use xlink:href="#DejaVuSans-6f" x="1357.763672"/>
     <use xlink:href="#DejaVuSans-74" x="1418.945312"/>
     <use xlink:href="#DejaVuSans-61" x="1458.154297"/>
     <use xlink:href="#DejaVuSans-74" x="1519.433594"/>
     <use xlink:href="#DejaVuSans-69" x="1558.642578"/>
     <use xlink:href="#DejaVuSans-6f" x="1586.425781"/>
     <use xlink:href="#DejaVuSans-6e" x="1647.607422"/>
     <use xlink:href="#DejaVuSans-2d" x="1710.986328"/>
     <use xlink:href="#DejaVuSans-61" x="1747.070312"/>
     <use xlink:href="#DejaVuSans-77" x="1808.349609"/>
     <use xlink:href="#DejaVuSans-61" x="1890.136719"/>
     <use xlink:href="#DejaVuSans-72" x="1951.416016"/>
     <use xlink:href="#DejaVuSans-65" x="1990.279297"/>
     <use xlink:href="#DejaVuSans-20" x="2051.802734"/>
     <use xlink:href="#DejaVuSans-61" x="2083.589844"/>
     <use xlink:href="#DejaVuSans-75" x="2144.869141"/>
     <use xlink:href="#DejaVuSans-64" x="2208.248047"/>
     <use xlink:href="#DejaVuSans-69" x="2271.724609"/>
     <use xlink:href="#DejaVuSans-74" x="2299.507812"/>
     <use xlink:href="#DejaVuSans-20" x="2338.716797"/>
     <use xlink:href="#DejaVuSans-63" x="2370.503906"/>
     <use xlink:href="#DejaVuSans-6f" x="2425.484375"/>
     <use xlink:href="#DejaVuSans-6e" x="2486.666016"/>
     <use xlink:href="#DejaVuSans-74" x="2550.044922"/>
     <use xlink:href="#DejaVuSans-65" x="2589.253906"/>
     <use xlink:href="#DejaVuSans-78" x="2649.027344"/>
     <use xlink:href="#DejaVuSans-74" x="2708.207031"/>
    </g>
   </g>
   <g id="legend_1">
    <g id="line2d_30">
     <path d="M 191.625937 32.796875 
L 199.625937 32.796875 
L 207.625937 32.796875 
" style="fill: none; stroke: #1f77b4; stroke-width: 1.35; stroke-linecap: square"/>
    </g>
    <g id="text_17">
     <!-- MW ambiguity percentile -->
     <g transform="translate(214.025937 35.596875) scale(0.08 -0.08)">
      <defs>
       <path id="DejaVuSans-4d" d="M 628 4666 
L 1569 4666 
L 2759 1491 
L 3956 4666 
L 4897 4666 
L 4897 0 
L 4281 0 
L 4281 4097 
L 3078 897 
L 2444 897 
L 1241 4097 
L 1241 0 
L 628 0 
L 628 4666 
z
" transform="scale(0.015625)"/>
       <path id="DejaVuSans-57" d="M 213 4666 
L 850 4666 
L 1831 722 
L 2809 4666 
L 3519 4666 
L 4500 722 
L 5478 4666 
L 6119 4666 
L 4947 0 
L 4153 0 
L 3169 4050 
L 2175 0 
L 1381 0 
L 213 4666 
z
" transform="scale(0.015625)"/>
      </defs>
      <use xlink:href="#DejaVuSans-4d"/>
      <use xlink:href="#DejaVuSans-57" x="86.279297"/>
      <use xlink:href="#DejaVuSans-20" x="185.15625"/>
      <use xlink:href="#DejaVuSans-61" x="216.943359"/>
      <use xlink:href="#DejaVuSans-6d" x="278.222656"/>
      <use xlink:href="#DejaVuSans-62" x="375.634766"/>
      <use xlink:href="#DejaVuSans-69" x="439.111328"/>
      <use xlink:href="#DejaVuSans-67" x="466.894531"/>
      <use xlink:href="#DejaVuSans-75" x="530.371094"/>
      <use xlink:href="#DejaVuSans-69" x="593.75"/>
      <use xlink:href="#DejaVuSans-74" x="621.533203"/>
      <use xlink:href="#DejaVuSans-79" x="660.742188"/>
      <use xlink:href="#DejaVuSans-20" x="719.921875"/>
      <use xlink:href="#DejaVuSans-70" x="751.708984"/>
      <use xlink:href="#DejaVuSans-65" x="815.185547"/>
      <use xlink:href="#DejaVuSans-72" x="876.708984"/>
      <use xlink:href="#DejaVuSans-63" x="915.572266"/>
      <use xlink:href="#DejaVuSans-65" x="970.552734"/>
      <use xlink:href="#DejaVuSans-6e" x="1032.076172"/>
      <use xlink:href="#DejaVuSans-74" x="1095.455078"/>
      <use xlink:href="#DejaVuSans-69" x="1134.664062"/>
      <use xlink:href="#DejaVuSans-6c" x="1162.447266"/>
      <use xlink:href="#DejaVuSans-65" x="1190.230469"/>
     </g>
    </g>
    <g id="line2d_31">
     <path d="M 330.167187 32.796875 
L 338.167187 32.796875 
L 346.167187 32.796875 
" style="fill: none; stroke: #ff7f0e; stroke-width: 1.65; stroke-linecap: square"/>
    </g>
    <g id="text_18">
     <!-- Contextual audit-burden index -->
     <g transform="translate(352.567187 35.596875) scale(0.08 -0.08)">
      <defs>
       <path id="DejaVuSans-43" d="M 4122 4306 
L 4122 3641 
Q 3803 3938 3442 4084 
Q 3081 4231 2675 4231 
Q 1875 4231 1450 3742 
Q 1025 3253 1025 2328 
Q 1025 1406 1450 917 
Q 1875 428 2675 428 
Q 3081 428 3442 575 
Q 3803 722 4122 1019 
L 4122 359 
Q 3791 134 3420 21 
Q 3050 -91 2638 -91 
Q 1578 -91 968 557 
Q 359 1206 359 2328 
Q 359 3453 968 4101 
Q 1578 4750 2638 4750 
Q 3056 4750 3426 4639 
Q 3797 4528 4122 4306 
z
" transform="scale(0.015625)"/>
      </defs>
      <use xlink:href="#DejaVuSans-43"/>
      <use xlink:href="#DejaVuSans-6f" x="69.824219"/>
      <use xlink:href="#DejaVuSans-6e" x="131.005859"/>
      <use xlink:href="#DejaVuSans-74" x="194.384766"/>
      <use xlink:href="#DejaVuSans-65" x="233.59375"/>
      <use xlink:href="#DejaVuSans-78" x="293.367188"/>
      <use xlink:href="#DejaVuSans-74" x="352.546875"/>
      <use xlink:href="#DejaVuSans-75" x="391.755859"/>
      <use xlink:href="#DejaVuSans-61" x="455.134766"/>
      <use xlink:href="#DejaVuSans-6c" x="516.414062"/>
      <use xlink:href="#DejaVuSans-20" x="544.197266"/>
      <use xlink:href="#DejaVuSans-61" x="575.984375"/>
      <use xlink:href="#DejaVuSans-75" x="637.263672"/>
      <use xlink:href="#DejaVuSans-64" x="700.642578"/>
      <use xlink:href="#DejaVuSans-69" x="764.119141"/>
      <use xlink:href="#DejaVuSans-74" x="791.902344"/>
      <use xlink:href="#DejaVuSans-2d" x="831.111328"/>
      <use xlink:href="#DejaVuSans-62" x="867.195312"/>
      <use xlink:href="#DejaVuSans-75" x="930.671875"/>
      <use xlink:href="#DejaVuSans-72" x="994.050781"/>
      <use xlink:href="#DejaVuSans-64" x="1033.414062"/>
      <use xlink:href="#DejaVuSans-65" x="1096.890625"/>
      <use xlink:href="#DejaVuSans-6e" x="1158.414062"/>
      <use xlink:href="#DejaVuSans-20" x="1221.792969"/>
      <use xlink:href="#DejaVuSans-69" x="1253.580078"/>
      <use xlink:href="#DejaVuSans-6e" x="1281.363281"/>
      <use xlink:href="#DejaVuSans-64" x="1344.742188"/>
      <use xlink:href="#DejaVuSans-65" x="1408.21875"/>
      <use xlink:href="#DejaVuSans-78" x="1467.992188"/>
     </g>
    </g>
    <g id="line2d_32">
     <path d="M 490.742188 32.796875 
L 498.742188 32.796875 
L 506.742188 32.796875 
" style="fill: none; stroke: #2ca02c; stroke-opacity: 0.75; stroke-width: 1.15; stroke-linecap: square"/>
    </g>
    <g id="text_19">
     <!-- Contextual auditability -->
     <g transform="translate(513.142187 35.596875) scale(0.08 -0.08)">
      <use xlink:href="#DejaVuSans-43"/>
      <use xlink:href="#DejaVuSans-6f" x="69.824219"/>
      <use xlink:href="#DejaVuSans-6e" x="131.005859"/>
      <use xlink:href="#DejaVuSans-74" x="194.384766"/>
      <use xlink:href="#DejaVuSans-65" x="233.59375"/>
      <use xlink:href="#DejaVuSans-78" x="293.367188"/>
      <use xlink:href="#DejaVuSans-74" x="352.546875"/>
      <use xlink:href="#DejaVuSans-75" x="391.755859"/>
      <use xlink:href="#DejaVuSans-61" x="455.134766"/>
      <use xlink:href="#DejaVuSans-6c" x="516.414062"/>
      <use xlink:href="#DejaVuSans-20" x="544.197266"/>
      <use xlink:href="#DejaVuSans-61" x="575.984375"/>
      <use xlink:href="#DejaVuSans-75" x="637.263672"/>
      <use xlink:href="#DejaVuSans-64" x="700.642578"/>
      <use xlink:href="#DejaVuSans-69" x="764.119141"/>
      <use xlink:href="#DejaVuSans-74" x="791.902344"/>
      <use xlink:href="#DejaVuSans-61" x="831.111328"/>
      <use xlink:href="#DejaVuSans-62" x="892.390625"/>
      <use xlink:href="#DejaVuSans-69" x="955.867188"/>
      <use xlink:href="#DejaVuSans-6c" x="983.650391"/>
      <use xlink:href="#DejaVuSans-69" x="1011.433594"/>
      <use xlink:href="#DejaVuSans-74" x="1039.216797"/>
      <use xlink:href="#DejaVuSans-79" x="1078.425781"/>
     </g>
    </g>
   </g>
  </g>
 </g>
 <defs>
  <clipPath id="p59f39162ea">
   <rect x="42.190937" y="22.318125" width="569.16" height="321.552"/>
  </clipPath>
 </defs>
</svg>
