<?xml version="1.0" encoding="utf-8" standalone="no"?>
<!DOCTYPE svg PUBLIC "-//W3C//DTD SVG 1.1//EN"
  "http://www.w3.org/Graphics/SVG/1.1/DTD/svg11.dtd">
<svg xmlns:xlink="http://www.w3.org/1999/xlink" width="581.08125pt" height="364.794375pt" viewBox="0 0 581.08125 364.794375" xmlns="http://www.w3.org/2000/svg" version="1.1">
 <metadata>
  <rdf:RDF xmlns:dc="http://purl.org/dc/elements/1.1/" xmlns:cc="http://creativecommons.org/ns#" xmlns:rdf="http://www.w3.org/1999/02/22-rdf-syntax-ns#">
   <cc:Work>
    <dc:type rdf:resource="http://purl.org/dc/dcmitype/StillImage"/>
    <dc:date>2026-08-17T10:40:20.748026</dc:date>
    <dc:format>image/svg+xml</dc:format>
    <dc:creator>
     <cc:Agent>
      <dc:title>Matplotlib v3.9.0, https://matplotlib.org/</dc:title>
     </cc:Agent>
    </dc:creator>
   </cc:Work>
  </rdf:RDF>
 </metadata>
 <defs>
  <style type="text/css">*{stroke-linejoin: round; stroke-linecap: butt}</style>
 </defs>
 <g id="figure_1">
  <g id="patch_1">
   <path d="M 0 364.794375 
L 581.08125 364.794375 
L 581.08125 0 
L 0 0 
z
" style="fill: #ffffff"/>
  </g>
  <g id="axes_1">
   <g id="patch_2">
    <path d="M 43.78125 327.238125 
L 573.88125 327.238125 
L 573.88125 22.318125 
L 43.78125 22.318125 
z
" style="fill: #ffffff"/>
   </g>
   <g id="matplotlib.axis_1">
    <g id="xtick_1">
     <g id="line2d_1">
      <path d="M 67.876705 327.238125 
L 67.876705 22.318125 
" clip-path="url(#pf516033b51)" style="fill: none; stroke: #b0b0b0; stroke-opacity: 0.2; stroke-width: 0.8; stroke-linecap: square"/>
     </g>
     <g id="line2d_2">
      <defs>
       <path id="m57ac8455aa" d="M 0 0 
L 0 3.5 
" style="stroke: #000000; stroke-width: 0.8"/>
      </defs>
      <g>
       <use xlink:href="#m57ac8455aa" x="67.876705" y="327.238125" style="stroke: #000000; stroke-width: 0.8"/>
      </g>
     </g>
     <g id="text_1">
      <!-- 0 -->
      <g transform="translate(64.695455 341.836563) scale(0.1 -0.1)">
       <defs>
        <path id="DejaVuSans-30" d="M 2034 4250 
Q 1547 4250 1301 3770 
Q 1056 3291 1056 2328 
Q 1056 1369 1301 889 
Q 1547 409 2034 409 
Q 2525 409 2770 889 
Q 3016 1369 3016 2328 
Q 3016 3291 2770 3770 
Q 2525 4250 2034 4250 
z
M 2034 4750 
Q 2819 4750 3233 4129 
Q 3647 3509 3647 2328 
Q 3647 1150 3233 529 
Q 2819 -91 2034 -91 
Q 1250 -91 836 529 
Q 422 1150 422 2328 
Q 422 3509 836 4129 
Q 1250 4750 2034 4750 
z
" transform="scale(0.015625)"/>
       </defs>
       <use xlink:href="#DejaVuSans-30"/>
      </g>
     </g>
    </g>
    <g id="xtick_2">
     <g id="line2d_3">
      <path d="M 148.194886 327.238125 
L 148.194886 22.318125 
" clip-path="url(#pf516033b51)" style="fill: none; stroke: #b0b0b0; stroke-opacity: 0.2; stroke-width: 0.8; stroke-linecap: square"/>
     </g>
     <g id="line2d_4">
      <g>
       <use xlink:href="#m57ac8455aa" x="148.194886" y="327.238125" style="stroke: #000000; stroke-width: 0.8"/>
      </g>
     </g>
     <g id="text_2">
      <!-- 50 -->
      <g transform="translate(141.832386 341.836563) scale(0.1 -0.1)">
       <defs>
        <path id="DejaVuSans-35" d="M 691 4666 
L 3169 4666 
L 3169 4134 
L 1269 4134 
L 1269 2991 
Q 1406 3038 1543 3061 
Q 1681 3084 1819 3084 
Q 2600 3084 3056 2656 
Q 3513 2228 3513 1497 
Q 3513 744 3044 326 
Q 2575 -91 1722 -91 
Q 1428 -91 1123 -41 
Q 819 9 494 109 
L 494 744 
Q 775 591 1075 516 
Q 1375 441 1709 441 
Q 2250 441 2565 725 
Q 2881 1009 2881 1497 
Q 2881 1984 2565 2268 
Q 2250 2553 1709 2553 
Q 1456 2553 1204 2497 
Q 953 2441 691 2322 
L 691 4666 
z
" transform="scale(0.015625)"/>
       </defs>
       <use xlink:href="#DejaVuSans-35"/>
       <use xlink:href="#DejaVuSans-30" x="63.623047"/>
      </g>
     </g>
    </g>
    <g id="xtick_3">
     <g id="line2d_5">
      <path d="M 228.513068 327.238125 
L 228.513068 22.318125 
" clip-path="url(#pf516033b51)" style="fill: none; stroke: #b0b0b0; stroke-opacity: 0.2; stroke-width: 0.8; stroke-linecap: square"/>
     </g>
     <g id="line2d_6">
      <g>
       <use xlink:href="#m57ac8455aa" x="228.513068" y="327.238125" style="stroke: #000000; stroke-width: 0.8"/>
      </g>
     </g>
     <g id="text_3">
      <!-- 100 -->
      <g transform="translate(218.969318 341.836563) scale(0.1 -0.1)">
       <defs>
        <path id="DejaVuSans-31" d="M 794 531 
L 1825 531 
L 1825 4091 
L 703 3866 
L 703 4441 
L 1819 4666 
L 2450 4666 
L 2450 531 
L 3481 531 
L 3481 0 
L 794 0 
L 794 531 
z
" transform="scale(0.015625)"/>
       </defs>
       <use xlink:href="#DejaVuSans-31"/>
       <use xlink:href="#DejaVuSans-30" x="63.623047"/>
       <use xlink:href="#DejaVuSans-30" x="127.246094"/>
      </g>
     </g>
    </g>
    <g id="xtick_4">
     <g id="line2d_7">
      <path d="M 308.83125 327.238125 
L 308.83125 22.318125 
" clip-path="url(#pf516033b51)" style="fill: none; stroke: #b0b0b0; stroke-opacity: 0.2; stroke-width: 0.8; stroke-linecap: square"/>
     </g>
     <g id="line2d_8">
      <g>
       <use xlink:href="#m57ac8455aa" x="308.83125" y="327.238125" style="stroke: #000000; stroke-width: 0.8"/>
      </g>
     </g>
     <g id="text_4">
      <!-- 150 -->
      <g transform="translate(299.2875 341.836563) scale(0.1 -0.1)">
       <use xlink:href="#DejaVuSans-31"/>
       <use xlink:href="#DejaVuSans-35" x="63.623047"/>
       <use xlink:href="#DejaVuSans-30" x="127.246094"/>
      </g>
     </g>
    </g>
    <g id="xtick_5">
     <g id="line2d_9">
      <path d="M 389.149432 327.238125 
L 389.149432 22.318125 
" clip-path="url(#pf516033b51)" style="fill: none; stroke: #b0b0b0; stroke-opacity: 0.2; stroke-width: 0.8; stroke-linecap: square"/>
     </g>
     <g id="line2d_10">
      <g>
       <use xlink:href="#m57ac8455aa" x="389.149432" y="327.238125" style="stroke: #000000; stroke-width: 0.8"/>
      </g>
     </g>
     <g id="text_5">
      <!-- 200 -->
      <g transform="translate(379.605682 341.836563) scale(0.1 -0.1)">
       <defs>
        <path id="DejaVuSans-32" d="M 1228 531 
L 3431 531 
L 3431 0 
L 469 0 
L 469 531 
Q 828 903 1448 1529 
Q 2069 2156 2228 2338 
Q 2531 2678 2651 2914 
Q 2772 3150 2772 3378 
Q 2772 3750 2511 3984 
Q 2250 4219 1831 4219 
Q 1534 4219 1204 4116 
Q 875 4013 500 3803 
L 500 4441 
Q 881 4594 1212 4672 
Q 1544 4750 1819 4750 
Q 2544 4750 2975 4387 
Q 3406 4025 3406 3419 
Q 3406 3131 3298 2873 
Q 3191 2616 2906 2266 
Q 2828 2175 2409 1742 
Q 1991 1309 1228 531 
z
" transform="scale(0.015625)"/>
       </defs>
       <use xlink:href="#DejaVuSans-32"/>
       <use xlink:href="#DejaVuSans-30" x="63.623047"/>
       <use xlink:href="#DejaVuSans-30" x="127.246094"/>
      </g>
     </g>
    </g>
    <g id="xtick_6">
     <g id="line2d_11">
      <path d="M 469.467614 327.238125 
L 469.467614 22.318125 
" clip-path="url(#pf516033b51)" style="fill: none; stroke: #b0b0b0; stroke-opacity: 0.2; stroke-width: 0.8; stroke-linecap: square"/>
     </g>
     <g id="line2d_12">
      <g>
       <use xlink:href="#m57ac8455aa" x="469.467614" y="327.238125" style="stroke: #000000; stroke-width: 0.8"/>
      </g>
     </g>
     <g id="text_6">
      <!-- 250 -->
      <g transform="translate(459.923864 341.836563) scale(0.1 -0.1)">
       <use xlink:href="#DejaVuSans-32"/>
       <use xlink:href="#DejaVuSans-35" x="63.623047"/>
       <use xlink:href="#DejaVuSans-30" x="127.246094"/>
      </g>
     </g>
    </g>
    <g id="xtick_7">
     <g id="line2d_13">
      <path d="M 549.785795 327.238125 
L 549.785795 22.318125 
" clip-path="url(#pf516033b51)" style="fill: none; stroke: #b0b0b0; stroke-opacity: 0.2; stroke-width: 0.8; stroke-linecap: square"/>
     </g>
     <g id="line2d_14">
      <g>
       <use xlink:href="#m57ac8455aa" x="549.785795" y="327.238125" style="stroke: #000000; stroke-width: 0.8"/>
      </g>
     </g>
     <g id="text_7">
      <!-- 300 -->
      <g transform="translate(540.242045 341.836563) scale(0.1 -0.1)">
       <defs>
        <path id="DejaVuSans-33" d="M 2597 2516 
Q 3050 2419 3304 2112 
Q 3559 1806 3559 1356 
Q 3559 666 3084 287 
Q 2609 -91 1734 -91 
Q 1441 -91 1130 -33 
Q 819 25 488 141 
L 488 750 
Q 750 597 1062 519 
Q 1375 441 1716 441 
Q 2309 441 2620 675 
Q 2931 909 2931 1356 
Q 2931 1769 2642 2001 
Q 2353 2234 1838 2234 
L 1294 2234 
L 1294 2753 
L 1863 2753 
Q 2328 2753 2575 2939 
Q 2822 3125 2822 3475 
Q 2822 3834 2567 4026 
Q 2313 4219 1838 4219 
Q 1578 4219 1281 4162 
Q 984 4106 628 3988 
L 628 4550 
Q 988 4650 1302 4700 
Q 1616 4750 1894 4750 
Q 2613 4750 3031 4423 
Q 3450 4097 3450 3541 
Q 3450 3153 3228 2886 
Q 3006 2619 2597 2516 
z
" transform="scale(0.015625)"/>
       </defs>
       <use xlink:href="#DejaVuSans-33"/>
       <use xlink:href="#DejaVuSans-30" x="63.623047"/>
       <use xlink:href="#DejaVuSans-30" x="127.246094"/>
      </g>
     </g>
    </g>
    <g id="text_8">
     <!-- Apparent molecular weight (kDa) -->
     <g transform="translate(225.692187 355.514687) scale(0.1 -0.1)">
      <defs>
       <path id="DejaVuSans-41" d="M 2188 4044 
L 1331 1722 
L 3047 1722 
L 2188 4044 
z
M 1831 4666 
L 2547 4666 
L 4325 0 
L 3669 0 
L 3244 1197 
L 1141 1197 
L 716 0 
L 50 0 
L 1831 4666 
z
" transform="scale(0.015625)"/>
       <path id="DejaVuSans-70" d="M 1159 525 
L 1159 -1331 
L 581 -1331 
L 581 3500 
L 1159 3500 
L 1159 2969 
Q 1341 3281 1617 3432 
Q 1894 3584 2278 3584 
Q 2916 3584 3314 3078 
Q 3713 2572 3713 1747 
Q 3713 922 3314 415 
Q 2916 -91 2278 -91 
Q 1894 -91 1617 61 
Q 1341 213 1159 525 
z
M 3116 1747 
Q 3116 2381 2855 2742 
Q 2594 3103 2138 3103 
Q 1681 3103 1420 2742 
Q 1159 2381 1159 1747 
Q 1159 1113 1420 752 
Q 1681 391 2138 391 
Q 2594 391 2855 752 
Q 3116 1113 3116 1747 
z
" transform="scale(0.015625)"/>
       <path id="DejaVuSans-61" d="M 2194 1759 
Q 1497 1759 1228 1600 
Q 959 1441 959 1056 
Q 959 750 1161 570 
Q 1363 391 1709 391 
Q 2188 391 2477 730 
Q 2766 1069 2766 1631 
L 2766 1759 
L 2194 1759 
z
M 3341 1997 
L 3341 0 
L 2766 0 
L 2766 531 
Q 2569 213 2275 61 
Q 1981 -91 1556 -91 
Q 1019 -91 701 211 
Q 384 513 384 1019 
Q 384 1609 779 1909 
Q 1175 2209 1959 2209 
L 2766 2209 
L 2766 2266 
Q 2766 2663 2505 2880 
Q 2244 3097 1772 3097 
Q 1472 3097 1187 3025 
Q 903 2953 641 2809 
L 641 3341 
Q 956 3463 1253 3523 
Q 1550 3584 1831 3584 
Q 2591 3584 2966 3190 
Q 3341 2797 3341 1997 
z
" transform="scale(0.015625)"/>
       <path id="DejaVuSans-72" d="M 2631 2963 
Q 2534 3019 2420 3045 
Q 2306 3072 2169 3072 
Q 1681 3072 1420 2755 
Q 1159 2438 1159 1844 
L 1159 0 
L 581 0 
L 581 3500 
L 1159 3500 
L 1159 2956 
Q 1341 3275 1631 3429 
Q 1922 3584 2338 3584 
Q 2397 3584 2469 3576 
Q 2541 3569 2628 3553 
L 2631 2963 
z
" transform="scale(0.015625)"/>
       <path id="DejaVuSans-65" d="M 3597 1894 
L 3597 1613 
L 953 1613 
Q 991 1019 1311 708 
Q 1631 397 2203 397 
Q 2534 397 2845 478 
Q 3156 559 3463 722 
L 3463 178 
Q 3153 47 2828 -22 
Q 2503 -91 2169 -91 
Q 1331 -91 842 396 
Q 353 884 353 1716 
Q 353 2575 817 3079 
Q 1281 3584 2069 3584 
Q 2775 3584 3186 3129 
Q 3597 2675 3597 1894 
z
M 3022 2063 
Q 3016 2534 2758 2815 
Q 2500 3097 2075 3097 
Q 1594 3097 1305 2825 
Q 1016 2553 972 2059 
L 3022 2063 
z
" transform="scale(0.015625)"/>
       <path id="DejaVuSans-6e" d="M 3513 2113 
L 3513 0 
L 2938 0 
L 2938 2094 
Q 2938 2591 2744 2837 
Q 2550 3084 2163 3084 
Q 1697 3084 1428 2787 
Q 1159 2491 1159 1978 
L 1159 0 
L 581 0 
L 581 3500 
L 1159 3500 
L 1159 2956 
Q 1366 3272 1645 3428 
Q 1925 3584 2291 3584 
Q 2894 3584 3203 3211 
Q 3513 2838 3513 2113 
z
" transform="scale(0.015625)"/>
       <path id="DejaVuSans-74" d="M 1172 4494 
L 1172 3500 
L 2356 3500 
L 2356 3053 
L 1172 3053 
L 1172 1153 
Q 1172 725 1289 603 
Q 1406 481 1766 481 
L 2356 481 
L 2356 0 
L 1766 0 
Q 1100 0 847 248 
Q 594 497 594 1153 
L 594 3053 
L 172 3053 
L 172 3500 
L 594 3500 
L 594 4494 
L 1172 4494 
z
" transform="scale(0.015625)"/>
       <path id="DejaVuSans-20" transform="scale(0.015625)"/>
       <path id="DejaVuSans-6d" d="M 3328 2828 
Q 3544 3216 3844 3400 
Q 4144 3584 4550 3584 
Q 5097 3584 5394 3201 
Q 5691 2819 5691 2113 
L 5691 0 
L 5113 0 
L 5113 2094 
Q 5113 2597 4934 2840 
Q 4756 3084 4391 3084 
Q 3944 3084 3684 2787 
Q 3425 2491 3425 1978 
L 3425 0 
L 2847 0 
L 2847 2094 
Q 2847 2600 2669 2842 
Q 2491 3084 2119 3084 
Q 1678 3084 1418 2786 
Q 1159 2488 1159 1978 
L 1159 0 
L 581 0 
L 581 3500 
L 1159 3500 
L 1159 2956 
Q 1356 3278 1631 3431 
Q 1906 3584 2284 3584 
Q 2666 3584 2933 3390 
Q 3200 3197 3328 2828 
z
" transform="scale(0.015625)"/>
       <path id="DejaVuSans-6f" d="M 1959 3097 
Q 1497 3097 1228 2736 
Q 959 2375 959 1747 
Q 959 1119 1226 758 
Q 1494 397 1959 397 
Q 2419 397 2687 759 
Q 2956 1122 2956 1747 
Q 2956 2369 2687 2733 
Q 2419 3097 1959 3097 
z
M 1959 3584 
Q 2709 3584 3137 3096 
Q 3566 2609 3566 1747 
Q 3566 888 3137 398 
Q 2709 -91 1959 -91 
Q 1206 -91 779 398 
Q 353 888 353 1747 
Q 353 2609 779 3096 
Q 1206 3584 1959 3584 
z
" transform="scale(0.015625)"/>
       <path id="DejaVuSans-6c" d="M 603 4863 
L 1178 4863 
L 1178 0 
L 603 0 
L 603 4863 
z
" transform="scale(0.015625)"/>
       <path id="DejaVuSans-63" d="M 3122 3366 
L 3122 2828 
Q 2878 2963 2633 3030 
Q 2388 3097 2138 3097 
Q 1578 3097 1268 2742 
Q 959 2388 959 1747 
Q 959 1106 1268 751 
Q 1578 397 2138 397 
Q 2388 397 2633 464 
Q 2878 531 3122 666 
L 3122 134 
Q 2881 22 2623 -34 
Q 2366 -91 2075 -91 
Q 1284 -91 818 406 
Q 353 903 353 1747 
Q 353 2603 823 3093 
Q 1294 3584 2113 3584 
Q 2378 3584 2631 3529 
Q 2884 3475 3122 3366 
z
" transform="scale(0.015625)"/>
       <path id="DejaVuSans-75" d="M 544 1381 
L 544 3500 
L 1119 3500 
L 1119 1403 
Q 1119 906 1312 657 
Q 1506 409 1894 409 
Q 2359 409 2629 706 
Q 2900 1003 2900 1516 
L 2900 3500 
L 3475 3500 
L 3475 0 
L 2900 0 
L 2900 538 
Q 2691 219 2414 64 
Q 2138 -91 1772 -91 
Q 1169 -91 856 284 
Q 544 659 544 1381 
z
M 1991 3584 
L 1991 3584 
z
" transform="scale(0.015625)"/>
       <path id="DejaVuSans-77" d="M 269 3500 
L 844 3500 
L 1563 769 
L 2278 3500 
L 2956 3500 
L 3675 769 
L 4391 3500 
L 4966 3500 
L 4050 0 
L 3372 0 
L 2619 2869 
L 1863 0 
L 1184 0 
L 269 3500 
z
" transform="scale(0.015625)"/>
       <path id="DejaVuSans-69" d="M 603 3500 
L 1178 3500 
L 1178 0 
L 603 0 
L 603 3500 
z
M 603 4863 
L 1178 4863 
L 1178 4134 
L 603 4134 
L 603 4863 
z
" transform="scale(0.015625)"/>
       <path id="DejaVuSans-67" d="M 2906 1791 
Q 2906 2416 2648 2759 
Q 2391 3103 1925 3103 
Q 1463 3103 1205 2759 
Q 947 2416 947 1791 
Q 947 1169 1205 825 
Q 1463 481 1925 481 
Q 2391 481 2648 825 
Q 2906 1169 2906 1791 
z
M 3481 434 
Q 3481 -459 3084 -895 
Q 2688 -1331 1869 -1331 
Q 1566 -1331 1297 -1286 
Q 1028 -1241 775 -1147 
L 775 -588 
Q 1028 -725 1275 -790 
Q 1522 -856 1778 -856 
Q 2344 -856 2625 -561 
Q 2906 -266 2906 331 
L 2906 616 
Q 2728 306 2450 153 
Q 2172 0 1784 0 
Q 1141 0 747 490 
Q 353 981 353 1791 
Q 353 2603 747 3093 
Q 1141 3584 1784 3584 
Q 2172 3584 2450 3431 
Q 2728 3278 2906 2969 
L 2906 3500 
L 3481 3500 
L 3481 434 
z
" transform="scale(0.015625)"/>
       <path id="DejaVuSans-68" d="M 3513 2113 
L 3513 0 
L 2938 0 
L 2938 2094 
Q 2938 2591 2744 2837 
Q 2550 3084 2163 3084 
Q 1697 3084 1428 2787 
Q 1159 2491 1159 1978 
L 1159 0 
L 581 0 
L 581 4863 
L 1159 4863 
L 1159 2956 
Q 1366 3272 1645 3428 
Q 1925 3584 2291 3584 
Q 2894 3584 3203 3211 
Q 3513 2838 3513 2113 
z
" transform="scale(0.015625)"/>
       <path id="DejaVuSans-28" d="M 1984 4856 
Q 1566 4138 1362 3434 
Q 1159 2731 1159 2009 
Q 1159 1288 1364 580 
Q 1569 -128 1984 -844 
L 1484 -844 
Q 1016 -109 783 600 
Q 550 1309 550 2009 
Q 550 2706 781 3412 
Q 1013 4119 1484 4856 
L 1984 4856 
z
" transform="scale(0.015625)"/>
       <path id="DejaVuSans-6b" d="M 581 4863 
L 1159 4863 
L 1159 1991 
L 2875 3500 
L 3609 3500 
L 1753 1863 
L 3688 0 
L 2938 0 
L 1159 1709 
L 1159 0 
L 581 0 
L 581 4863 
z
" transform="scale(0.015625)"/>
       <path id="DejaVuSans-44" d="M 1259 4147 
L 1259 519 
L 2022 519 
Q 2988 519 3436 956 
Q 3884 1394 3884 2338 
Q 3884 3275 3436 3711 
Q 2988 4147 2022 4147 
L 1259 4147 
z
M 628 4666 
L 1925 4666 
Q 3281 4666 3915 4102 
Q 4550 3538 4550 2338 
Q 4550 1131 3912 565 
Q 3275 0 1925 0 
L 628 0 
L 628 4666 
z
" transform="scale(0.015625)"/>
       <path id="DejaVuSans-29" d="M 513 4856 
L 1013 4856 
Q 1481 4119 1714 3412 
Q 1947 2706 1947 2009 
Q 1947 1309 1714 600 
Q 1481 -109 1013 -844 
L 513 -844 
Q 928 -128 1133 580 
Q 1338 1288 1338 2009 
Q 1338 2731 1133 3434 
Q 928 4138 513 4856 
z
" transform="scale(0.015625)"/>
      </defs>
      <use xlink:href="#DejaVuSans-41"/>
      <use xlink:href="#DejaVuSans-70" x="68.408203"/>
      <use xlink:href="#DejaVuSans-70" x="131.884766"/>
      <use xlink:href="#DejaVuSans-61" x="195.361328"/>
      <use xlink:href="#DejaVuSans-72" x="256.640625"/>
      <use xlink:href="#DejaVuSans-65" x="295.503906"/>
      <use xlink:href="#DejaVuSans-6e" x="357.027344"/>
      <use xlink:href="#DejaVuSans-74" x="420.40625"/>
      <use xlink:href="#DejaVuSans-20" x="459.615234"/>
      <use xlink:href="#DejaVuSans-6d" x="491.402344"/>
      <use xlink:href="#DejaVuSans-6f" x="588.814453"/>
      <use xlink:href="#DejaVuSans-6c" x="649.996094"/>
      <use xlink:href="#DejaVuSans-65" x="677.779297"/>
      <use xlink:href="#DejaVuSans-63" x="739.302734"/>
      <use xlink:href="#DejaVuSans-75" x="794.283203"/>
      <use xlink:href="#DejaVuSans-6c" x="857.662109"/>
      <use xlink:href="#DejaVuSans-61" x="885.445312"/>
      <use xlink:href="#DejaVuSans-72" x="946.724609"/>
      <use xlink:href="#DejaVuSans-20" x="987.837891"/>
      <use xlink:href="#DejaVuSans-77" x="1019.625"/>
      <use xlink:href="#DejaVuSans-65" x="1101.412109"/>
      <use xlink:href="#DejaVuSans-69" x="1162.935547"/>
      <use xlink:href="#DejaVuSans-67" x="1190.71875"/>
      <use xlink:href="#DejaVuSans-68" x="1254.195312"/>
      <use xlink:href="#DejaVuSans-74" x="1317.574219"/>
      <use xlink:href="#DejaVuSans-20" x="1356.783203"/>
      <use xlink:href="#DejaVuSans-28" x="1388.570312"/>
      <use xlink:href="#DejaVuSans-6b" x="1427.583984"/>
      <use xlink:href="#DejaVuSans-44" x="1485.494141"/>
      <use xlink:href="#DejaVuSans-61" x="1562.496094"/>
      <use xlink:href="#DejaVuSans-29" x="1623.775391"/>
     </g>
    </g>
   </g>
   <g id="matplotlib.axis_2">
    <g id="ytick_1">
     <g id="line2d_15">
      <path d="M 43.78125 327.238125 
L 573.88125 327.238125 
" clip-path="url(#pf516033b51)" style="fill: none; stroke: #b0b0b0; stroke-opacity: 0.2; stroke-width: 0.8; stroke-linecap: square"/>
     </g>
     <g id="line2d_16">
      <defs>
       <path id="m8d2994ffe5" d="M 0 0 
L -3.5 0 
" style="stroke: #000000; stroke-width: 0.8"/>
      </defs>
      <g>
       <use xlink:href="#m8d2994ffe5" x="43.78125" y="327.238125" style="stroke: #000000; stroke-width: 0.8"/>
      </g>
     </g>
     <g id="text_9">
      <!-- 0.0 -->
      <g transform="translate(20.878125 331.037344) scale(0.1 -0.1)">
       <defs>
        <path id="DejaVuSans-2e" d="M 684 794 
L 1344 794 
L 1344 0 
L 684 0 
L 684 794 
z
" transform="scale(0.015625)"/>
       </defs>
       <use xlink:href="#DejaVuSans-30"/>
       <use xlink:href="#DejaVuSans-2e" x="63.623047"/>
       <use xlink:href="#DejaVuSans-30" x="95.410156"/>
      </g>
     </g>
    </g>
    <g id="ytick_2">
     <g id="line2d_17">
      <path d="M 43.78125 266.254125 
L 573.88125 266.254125 
" clip-path="url(#pf516033b51)" style="fill: none; stroke: #b0b0b0; stroke-opacity: 0.2; stroke-width: 0.8; stroke-linecap: square"/>
     </g>
     <g id="line2d_18">
      <g>
       <use xlink:href="#m8d2994ffe5" x="43.78125" y="266.254125" style="stroke: #000000; stroke-width: 0.8"/>
      </g>
     </g>
     <g id="text_10">
      <!-- 0.2 -->
      <g transform="translate(20.878125 270.053344) scale(0.1 -0.1)">
       <use xlink:href="#DejaVuSans-30"/>
       <use xlink:href="#DejaVuSans-2e" x="63.623047"/>
       <use xlink:href="#DejaVuSans-32" x="95.410156"/>
      </g>
     </g>
    </g>
    <g id="ytick_3">
     <g id="line2d_19">
      <path d="M 43.78125 205.270125 
L 573.88125 205.270125 
" clip-path="url(#pf516033b51)" style="fill: none; stroke: #b0b0b0; stroke-opacity: 0.2; stroke-width: 0.8; stroke-linecap: square"/>
     </g>
     <g id="line2d_20">
      <g>
       <use xlink:href="#m8d2994ffe5" x="43.78125" y="205.270125" style="stroke: #000000; stroke-width: 0.8"/>
      </g>
     </g>
     <g id="text_11">
      <!-- 0.4 -->
      <g transform="translate(20.878125 209.069344) scale(0.1 -0.1)">
       <defs>
        <path id="DejaVuSans-34" d="M 2419 4116 
L 825 1625 
L 2419 1625 
L 2419 4116 
z
M 2253 4666 
L 3047 4666 
L 3047 1625 
L 3713 1625 
L 3713 1100 
L 3047 1100 
L 3047 0 
L 2419 0 
L 2419 1100 
L 313 1100 
L 313 1709 
L 2253 4666 
z
" transform="scale(0.015625)"/>
       </defs>
       <use xlink:href="#DejaVuSans-30"/>
       <use xlink:href="#DejaVuSans-2e" x="63.623047"/>
       <use xlink:href="#DejaVuSans-34" x="95.410156"/>
      </g>
     </g>
    </g>
    <g id="ytick_4">
     <g id="line2d_21">
      <path d="M 43.78125 144.286125 
L 573.88125 144.286125 
" clip-path="url(#pf516033b51)" style="fill: none; stroke: #b0b0b0; stroke-opacity: 0.2; stroke-width: 0.8; stroke-linecap: square"/>
     </g>
     <g id="line2d_22">
      <g>
       <use xlink:href="#m8d2994ffe5" x="43.78125" y="144.286125" style="stroke: #000000; stroke-width: 0.8"/>
      </g>
     </g>
     <g id="text_12">
      <!-- 0.6 -->
      <g transform="translate(20.878125 148.085344) scale(0.1 -0.1)">
       <defs>
        <path id="DejaVuSans-36" d="M 2113 2584 
Q 1688 2584 1439 2293 
Q 1191 2003 1191 1497 
Q 1191 994 1439 701 
Q 1688 409 2113 409 
Q 2538 409 2786 701 
Q 3034 994 3034 1497 
Q 3034 2003 2786 2293 
Q 2538 2584 2113 2584 
z
M 3366 4563 
L 3366 3988 
Q 3128 4100 2886 4159 
Q 2644 4219 2406 4219 
Q 1781 4219 1451 3797 
Q 1122 3375 1075 2522 
Q 1259 2794 1537 2939 
Q 1816 3084 2150 3084 
Q 2853 3084 3261 2657 
Q 3669 2231 3669 1497 
Q 3669 778 3244 343 
Q 2819 -91 2113 -91 
Q 1303 -91 875 529 
Q 447 1150 447 2328 
Q 447 3434 972 4092 
Q 1497 4750 2381 4750 
Q 2619 4750 2861 4703 
Q 3103 4656 3366 4563 
z
" transform="scale(0.015625)"/>
       </defs>
       <use xlink:href="#DejaVuSans-30"/>
       <use xlink:href="#DejaVuSans-2e" x="63.623047"/>
       <use xlink:href="#DejaVuSans-36" x="95.410156"/>
      </g>
     </g>
    </g>
    <g id="ytick_5">
     <g id="line2d_23">
      <path d="M 43.78125 83.302125 
L 573.88125 83.302125 
" clip-path="url(#pf516033b51)" style="fill: none; stroke: #b0b0b0; stroke-opacity: 0.2; stroke-width: 0.8; stroke-linecap: square"/>
     </g>
     <g id="line2d_24">
      <g>
       <use xlink:href="#m8d2994ffe5" x="43.78125" y="83.302125" style="stroke: #000000; stroke-width: 0.8"/>
      </g>
     </g>
     <g id="text_13">
      <!-- 0.8 -->
      <g transform="translate(20.878125 87.101344) scale(0.1 -0.1)">
       <defs>
        <path id="DejaVuSans-38" d="M 2034 2216 
Q 1584 2216 1326 1975 
Q 1069 1734 1069 1313 
Q 1069 891 1326 650 
Q 1584 409 2034 409 
Q 2484 409 2743 651 
Q 3003 894 3003 1313 
Q 3003 1734 2745 1975 
Q 2488 2216 2034 2216 
z
M 1403 2484 
Q 997 2584 770 2862 
Q 544 3141 544 3541 
Q 544 4100 942 4425 
Q 1341 4750 2034 4750 
Q 2731 4750 3128 4425 
Q 3525 4100 3525 3541 
Q 3525 3141 3298 2862 
Q 3072 2584 2669 2484 
Q 3125 2378 3379 2068 
Q 3634 1759 3634 1313 
Q 3634 634 3220 271 
Q 2806 -91 2034 -91 
Q 1263 -91 848 271 
Q 434 634 434 1313 
Q 434 1759 690 2068 
Q 947 2378 1403 2484 
z
M 1172 3481 
Q 1172 3119 1398 2916 
Q 1625 2713 2034 2713 
Q 2441 2713 2670 2916 
Q 2900 3119 2900 3481 
Q 2900 3844 2670 4047 
Q 2441 4250 2034 4250 
Q 1625 4250 1398 4047 
Q 1172 3844 1172 3481 
z
" transform="scale(0.015625)"/>
       </defs>
       <use xlink:href="#DejaVuSans-30"/>
       <use xlink:href="#DejaVuSans-2e" x="63.623047"/>
       <use xlink:href="#DejaVuSans-38" x="95.410156"/>
      </g>
     </g>
    </g>
    <g id="ytick_6">
     <g id="line2d_25">
      <path d="M 43.78125 22.318125 
L 573.88125 22.318125 
" clip-path="url(#pf516033b51)" style="fill: none; stroke: #b0b0b0; stroke-opacity: 0.2; stroke-width: 0.8; stroke-linecap: square"/>
     </g>
     <g id="line2d_26">
      <g>
       <use xlink:href="#m8d2994ffe5" x="43.78125" y="22.318125" style="stroke: #000000; stroke-width: 0.8"/>
      </g>
     </g>
     <g id="text_14">
      <!-- 1.0 -->
      <g transform="translate(20.878125 26.117344) scale(0.1 -0.1)">
       <use xlink:href="#DejaVuSans-31"/>
       <use xlink:href="#DejaVuSans-2e" x="63.623047"/>
       <use xlink:href="#DejaVuSans-30" x="95.410156"/>
      </g>
     </g>
    </g>
    <g id="text_15">
     <!-- MW auditability percentile -->
     <g transform="translate(14.798438 240.298437) rotate(-90) scale(0.1 -0.1)">
      <defs>
       <path id="DejaVuSans-4d" d="M 628 4666 
L 1569 4666 
L 2759 1491 
L 3956 4666 
L 4897 4666 
L 4897 0 
L 4281 0 
L 4281 4097 
L 3078 897 
L 2444 897 
L 1241 4097 
L 1241 0 
L 628 0 
L 628 4666 
z
" transform="scale(0.015625)"/>
       <path id="DejaVuSans-57" d="M 213 4666 
L 850 4666 
L 1831 722 
L 2809 4666 
L 3519 4666 
L 4500 722 
L 5478 4666 
L 6119 4666 
L 4947 0 
L 4153 0 
L 3169 4050 
L 2175 0 
L 1381 0 
L 213 4666 
z
" transform="scale(0.015625)"/>
       <path id="DejaVuSans-64" d="M 2906 2969 
L 2906 4863 
L 3481 4863 
L 3481 0 
L 2906 0 
L 2906 525 
Q 2725 213 2448 61 
Q 2172 -91 1784 -91 
Q 1150 -91 751 415 
Q 353 922 353 1747 
Q 353 2572 751 3078 
Q 1150 3584 1784 3584 
Q 2172 3584 2448 3432 
Q 2725 3281 2906 2969 
z
M 947 1747 
Q 947 1113 1208 752 
Q 1469 391 1925 391 
Q 2381 391 2643 752 
Q 2906 1113 2906 1747 
Q 2906 2381 2643 2742 
Q 2381 3103 1925 3103 
Q 1469 3103 1208 2742 
Q 947 2381 947 1747 
z
" transform="scale(0.015625)"/>
       <path id="DejaVuSans-62" d="M 3116 1747 
Q 3116 2381 2855 2742 
Q 2594 3103 2138 3103 
Q 1681 3103 1420 2742 
Q 1159 2381 1159 1747 
Q 1159 1113 1420 752 
Q 1681 391 2138 391 
Q 2594 391 2855 752 
Q 3116 1113 3116 1747 
z
M 1159 2969 
Q 1341 3281 1617 3432 
Q 1894 3584 2278 3584 
Q 2916 3584 3314 3078 
Q 3713 2572 3713 1747 
Q 3713 922 3314 415 
Q 2916 -91 2278 -91 
Q 1894 -91 1617 61 
Q 1341 213 1159 525 
L 1159 0 
L 581 0 
L 581 4863 
L 1159 4863 
L 1159 2969 
z
" transform="scale(0.015625)"/>
       <path id="DejaVuSans-79" d="M 2059 -325 
Q 1816 -950 1584 -1140 
Q 1353 -1331 966 -1331 
L 506 -1331 
L 506 -850 
L 844 -850 
Q 1081 -850 1212 -737 
Q 1344 -625 1503 -206 
L 1606 56 
L 191 3500 
L 800 3500 
L 1894 763 
L 2988 3500 
L 3597 3500 
L 2059 -325 
z
" transform="scale(0.015625)"/>
      </defs>
      <use xlink:href="#DejaVuSans-4d"/>
      <use xlink:href="#DejaVuSans-57" x="86.279297"/>
      <use xlink:href="#DejaVuSans-20" x="185.15625"/>
      <use xlink:href="#DejaVuSans-61" x="216.943359"/>
      <use xlink:href="#DejaVuSans-75" x="278.222656"/>
      <use xlink:href="#DejaVuSans-64" x="341.601562"/>
      <use xlink:href="#DejaVuSans-69" x="405.078125"/>
      <use xlink:href="#DejaVuSans-74" x="432.861328"/>
      <use xlink:href="#DejaVuSans-61" x="472.070312"/>
      <use xlink:href="#DejaVuSans-62" x="533.349609"/>
      <use xlink:href="#DejaVuSans-69" x="596.826172"/>
      <use xlink:href="#DejaVuSans-6c" x="624.609375"/>
      <use xlink:href="#DejaVuSans-69" x="652.392578"/>
      <use xlink:href="#DejaVuSans-74" x="680.175781"/>
      <use xlink:href="#DejaVuSans-79" x="719.384766"/>
      <use xlink:href="#DejaVuSans-20" x="778.564453"/>
      <use xlink:href="#DejaVuSans-70" x="810.351562"/>
      <use xlink:href="#DejaVuSans-65" x="873.828125"/>
      <use xlink:href="#DejaVuSans-72" x="935.351562"/>
      <use xlink:href="#DejaVuSans-63" x="974.214844"/>
      <use xlink:href="#DejaVuSans-65" x="1029.195312"/>
      <use xlink:href="#DejaVuSans-6e" x="1090.71875"/>
      <use xlink:href="#DejaVuSans-74" x="1154.097656"/>
      <use xlink:href="#DejaVuSans-69" x="1193.306641"/>
      <use xlink:href="#DejaVuSans-6c" x="1221.089844"/>
      <use xlink:href="#DejaVuSans-65" x="1248.873047"/>
     </g>
    </g>
   </g>
   <g id="line2d_27">
    <path d="M 67.876705 226.594875 
L 68.278295 235.565623 
L 68.679886 241.460686 
L 69.081477 244.023757 
L 69.884659 244.792678 
L 70.28625 247.441185 
L 71.089432 255.386704 
L 71.491023 256.582804 
L 71.892614 259.487618 
L 72.294205 266.322474 
L 72.695795 269.312723 
L 73.097386 269.739901 
L 75.506932 279.735878 
L 76.310114 281.188285 
L 76.711705 283.324177 
L 77.113295 286.143555 
L 77.916477 289.21924 
L 78.318068 289.902726 
L 78.719659 291.269697 
L 79.12125 293.320154 
L 79.522841 294.089075 
L 79.924432 295.199739 
L 80.727614 296.56671 
L 81.530795 299.898702 
L 82.735568 301.863723 
L 83.137159 302.888952 
L 83.53875 304.255923 
L 83.940341 305.195715 
L 85.948295 307.417043 
L 87.153068 309.040322 
L 87.95625 309.894679 
L 90.365795 311.005343 
L 93.980114 313.226671 
L 94.783295 312.970364 
L 95.184886 313.397542 
L 98.799205 315.02082 
L 100.405568 315.960613 
L 100.807159 316.644099 
L 101.610341 320.659576 
L 102.413523 322.111983 
L 102.815114 322.624597 
L 104.421477 323.649826 
L 104.823068 323.735261 
L 105.224659 323.56439 
L 105.62625 323.222647 
L 106.429432 322.795469 
L 107.232614 322.282855 
L 108.437386 321.941112 
L 109.240568 321.684805 
L 109.642159 321.599369 
L 110.04375 321.257626 
L 110.445341 321.086755 
L 110.846932 320.488705 
L 111.248523 319.378041 
L 111.650114 318.865427 
L 112.453295 317.071277 
L 112.854886 316.81497 
L 113.256477 316.985841 
L 114.059659 317.754763 
L 114.46125 318.181941 
L 114.862841 318.352813 
L 115.666023 317.925634 
L 116.067614 318.01107 
L 116.469205 318.438248 
L 116.870795 318.694555 
L 117.272386 319.121734 
L 118.075568 321.343062 
L 118.87875 323.308083 
L 119.280341 323.991569 
L 119.681932 324.418747 
L 120.083523 325.102233 
L 121.288295 325.785718 
L 124.099432 326.896382 
L 125.304205 327.238125 
L 126.107386 326.810947 
L 126.910568 326.383768 
L 129.721705 325.273104 
L 132.934432 324.504183 
L 133.737614 324.247876 
L 135.343977 323.820697 
L 135.745568 323.478954 
L 136.147159 322.96634 
L 136.950341 322.36829 
L 137.753523 321.428498 
L 138.155114 321.172191 
L 138.958295 319.292605 
L 140.163068 317.669327 
L 140.564659 317.498456 
L 140.96625 317.583891 
L 141.769432 317.242149 
L 142.171023 316.729534 
L 143.375795 316.21692 
L 144.178977 316.473227 
L 144.580568 317.156713 
L 144.982159 318.60912 
L 145.785341 319.805219 
L 146.186932 320.061527 
L 146.588523 320.146962 
L 146.990114 319.976091 
L 147.391705 319.634348 
L 147.793295 319.463477 
L 148.194886 319.548912 
L 148.998068 320.317834 
L 149.399659 320.745012 
L 150.202841 321.001319 
L 151.006023 320.574141 
L 151.809205 319.036298 
L 152.210795 318.523684 
L 152.612386 316.900406 
L 153.013977 316.131484 
L 154.21875 315.789742 
L 155.825114 315.191692 
L 156.628295 314.935385 
L 160.644205 313.312107 
L 161.045795 312.884928 
L 162.250568 312.45775 
L 163.455341 312.116007 
L 164.660114 311.688828 
L 165.864886 311.347085 
L 167.47125 310.749036 
L 168.274432 310.492729 
L 170.282386 309.723807 
L 172.691932 309.125757 
L 173.495114 308.86945 
L 176.707841 308.100529 
L 177.511023 307.844222 
L 181.125341 306.989865 
L 181.928523 306.733558 
L 183.936477 306.220944 
L 184.739659 305.964637 
L 187.550795 305.281151 
L 188.353977 305.024844 
L 193.574659 303.828744 
L 193.97625 303.401566 
L 194.779432 303.145259 
L 196.385795 303.743309 
L 196.787386 303.572437 
L 197.188977 303.059823 
L 198.39375 302.71808 
L 199.196932 302.376337 
L 200.000114 302.632644 
L 200.401705 302.290902 
L 205.220795 301.180238 
L 206.023977 300.923931 
L 210.039886 299.984138 
L 210.843068 299.727831 
L 219.276477 297.848245 
L 219.678068 297.677374 
L 220.079659 297.335631 
L 220.882841 297.506503 
L 221.284432 297.76281 
L 221.686023 297.591938 
L 222.087614 297.250196 
L 227.709886 295.96866 
L 228.513068 295.712353 
L 235.340114 294.174511 
L 236.143295 293.918203 
L 241.765568 292.636668 
L 242.167159 292.380361 
L 243.371932 291.01339 
L 243.773523 291.098825 
L 244.576705 291.696875 
L 244.978295 292.038618 
L 245.379886 292.20949 
L 245.781477 292.551232 
L 246.584659 292.294925 
L 248.994205 291.184261 
L 249.395795 290.927954 
L 249.797386 290.842518 
L 250.198977 290.586211 
L 250.600568 290.500776 
L 251.002159 290.757083 
L 251.40375 290.671647 
L 251.805341 290.41534 
L 256.624432 289.304676 
L 257.427614 289.048369 
L 259.435568 288.535755 
L 261.845114 286.997912 
L 262.246705 287.083348 
L 262.648295 287.339655 
L 263.049886 287.852269 
L 264.254659 288.62119 
L 265.057841 288.194012 
L 267.065795 286.912476 
L 271.483295 285.887248 
L 273.089659 284.520277 
L 274.294432 283.922227 
L 274.696023 284.007663 
L 275.499205 284.605713 
L 275.900795 285.374634 
L 276.302386 285.716377 
L 276.703977 285.801812 
L 278.711932 285.032891 
L 279.916705 284.691148 
L 281.523068 283.751356 
L 286.342159 282.640692 
L 286.74375 282.384384 
L 287.546932 282.128077 
L 288.350114 281.700899 
L 289.153295 281.359156 
L 289.956477 281.615463 
L 291.16125 282.555256 
L 291.562841 282.46982 
L 291.964432 282.042642 
L 292.366023 281.786335 
L 292.767614 281.27372 
L 293.570795 281.017413 
L 298.791477 279.821314 
L 299.594659 279.565006 
L 302.004205 279.052392 
L 302.405795 278.71065 
L 302.807386 278.539778 
L 303.610568 278.796085 
L 304.012159 278.966957 
L 304.41375 278.881521 
L 304.815341 278.454342 
L 311.642386 276.9165 
L 312.043977 276.745629 
L 312.445568 276.31845 
L 313.24875 275.805836 
L 314.051932 275.634964 
L 314.453523 275.378657 
L 314.855114 275.293222 
L 317.264659 273.840815 
L 318.871023 273.413636 
L 321.280568 272.473844 
L 322.08375 272.815586 
L 322.886932 273.584508 
L 323.288523 274.011686 
L 324.894886 275.12235 
L 325.698068 275.976707 
L 326.902841 276.660193 
L 327.706023 276.403886 
L 328.509205 275.891272 
L 328.910795 275.464093 
L 330.517159 274.353429 
L 330.91875 273.926251 
L 331.320341 273.328201 
L 331.721932 272.388408 
L 332.123523 272.302972 
L 332.525114 271.790358 
L 332.926705 271.619487 
L 333.328295 271.704922 
L 333.729886 271.96123 
L 334.934659 272.132101 
L 335.737841 271.534051 
L 336.139432 271.106873 
L 336.942614 270.594258 
L 337.344205 270.508823 
L 338.548977 271.192308 
L 338.950568 271.36318 
L 339.352159 271.277744 
L 340.958523 270.337951 
L 341.360114 270.252516 
L 341.761705 269.910773 
L 342.163295 269.825337 
L 342.966477 270.16708 
L 343.368068 270.081644 
L 343.769659 269.654466 
L 346.580795 268.97098 
L 346.982386 268.543802 
L 347.383977 268.287495 
L 348.187159 267.091395 
L 348.990341 265.638988 
L 350.195114 264.699195 
L 350.596705 264.101145 
L 350.998295 262.905046 
L 351.801477 261.452639 
L 352.203068 261.110896 
L 352.604659 261.367203 
L 353.00625 261.794382 
L 353.407841 262.734174 
L 354.211023 265.553552 
L 354.612614 266.664216 
L 355.014205 266.835088 
L 355.415795 266.749652 
L 356.218977 264.955502 
L 356.620568 264.528324 
L 357.022159 264.870067 
L 358.226932 267.945752 
L 358.628523 268.37293 
L 359.030114 268.202059 
L 359.431705 267.689445 
L 360.636477 264.61376 
L 361.038068 264.442888 
L 361.84125 265.724424 
L 362.242841 266.237038 
L 362.644432 266.066166 
L 363.046023 265.468117 
L 363.849205 263.503096 
L 364.250795 262.81961 
L 364.652386 262.990481 
L 365.455568 263.673967 
L 365.857159 263.588531 
L 367.463523 260.085668 
L 369.069886 259.060439 
L 369.873068 258.804132 
L 370.274659 258.633261 
L 371.077841 257.778904 
L 371.479432 257.351725 
L 372.282614 256.924547 
L 373.085795 257.608033 
L 373.487386 258.206082 
L 374.290568 260.341975 
L 375.495341 265.21181 
L 377.904886 268.629237 
L 378.708068 268.885544 
L 379.51125 268.458366 
L 379.912841 268.031187 
L 380.314432 267.860316 
L 380.716023 267.518573 
L 381.117614 267.347702 
L 381.519205 267.433138 
L 382.322386 267.005959 
L 382.723977 266.151602 
L 384.330341 260.940025 
L 384.731932 260.598282 
L 385.133523 260.683718 
L 385.535114 261.02546 
L 387.141477 263.759403 
L 387.543068 263.41766 
L 388.747841 260.512846 
L 389.952614 259.145875 
L 392.362159 256.66824 
L 393.968523 255.643012 
L 395.173295 253.079941 
L 395.574886 252.652762 
L 395.976477 252.481891 
L 397.18125 253.507119 
L 397.582841 254.105169 
L 397.984432 254.959526 
L 398.386023 255.47214 
L 399.189205 255.899319 
L 400.393977 256.497368 
L 400.795568 256.753676 
L 401.59875 257.522597 
L 402.000341 257.86434 
L 402.803523 258.291518 
L 403.606705 258.889568 
L 404.008295 259.743925 
L 404.409886 260.256539 
L 405.213068 262.563303 
L 405.614659 263.844838 
L 406.01625 264.186581 
L 406.417841 264.01571 
L 407.221023 262.392432 
L 407.622614 262.136124 
L 408.425795 261.196332 
L 410.43375 259.402182 
L 411.638523 256.839111 
L 412.441705 255.813883 
L 412.843295 255.301269 
L 413.244886 254.446912 
L 413.646477 254.019733 
L 414.048068 254.190605 
L 415.252841 255.557576 
L 415.654432 255.215833 
L 416.859205 253.336248 
L 417.662386 252.567326 
L 419.670341 251.798405 
L 420.071932 251.371227 
L 420.473523 250.51687 
L 420.875114 250.175127 
L 421.678295 249.064463 
L 422.079886 249.235334 
L 423.284659 250.858613 
L 423.68625 251.712969 
L 424.891023 253.165376 
L 426.497386 254.27604 
L 427.300568 255.044962 
L 427.702159 254.87409 
L 428.10375 254.361476 
L 430.111705 250.345998 
L 430.914886 248.637284 
L 431.316477 248.295542 
L 433.726023 247.184878 
L 434.127614 246.928571 
L 434.529205 247.099442 
L 434.930795 247.612056 
L 436.135568 250.089691 
L 437.340341 251.542098 
L 437.741932 251.627534 
L 440.553068 250.431434 
L 440.954659 249.91882 
L 441.35625 248.808156 
L 442.159432 247.270313 
L 442.561023 247.014006 
L 443.364205 248.551849 
L 444.167386 249.32077 
L 444.568977 248.893592 
L 444.970568 248.210106 
L 445.372159 246.757699 
L 446.576932 245.988778 
L 447.380114 245.134421 
L 447.781705 244.963549 
L 449.789659 245.476164 
L 450.592841 245.732471 
L 451.396023 245.903342 
L 451.797614 246.159649 
L 452.600795 246.415956 
L 453.403977 246.843135 
L 453.805568 248.380977 
L 454.60875 249.833384 
L 455.010341 250.004256 
L 455.411932 249.662513 
L 455.813523 248.72272 
L 456.215114 247.355749 
L 456.616705 246.586828 
L 457.018295 246.074214 
L 457.419886 244.878114 
L 458.223068 244.621807 
L 460.231023 244.109193 
L 460.632614 243.938321 
L 461.034205 242.998528 
L 461.435795 242.57135 
L 462.238977 243.596578 
L 462.640568 243.852885 
L 463.042159 243.76745 
L 463.845341 241.9733 
L 464.648523 241.546122 
L 466.656477 238.214129 
L 467.058068 237.872387 
L 468.262841 236.078237 
L 468.664432 235.736494 
L 469.066023 234.967573 
L 469.869205 230.524917 
L 470.270795 228.987074 
L 470.672386 227.961846 
L 471.475568 227.107489 
L 472.27875 227.705539 
L 473.081932 228.389024 
L 473.885114 229.926867 
L 474.286705 230.781224 
L 474.688295 230.952095 
L 475.893068 228.901639 
L 476.294659 228.47446 
L 476.69625 228.559896 
L 477.097841 229.157946 
L 477.499432 230.097738 
L 478.302614 233.173423 
L 478.704205 234.198652 
L 479.105795 234.540395 
L 479.908977 233.258859 
L 480.310568 232.404502 
L 480.712159 231.037531 
L 481.11375 230.354045 
L 481.515341 230.183174 
L 481.916932 230.695788 
L 482.318523 231.550145 
L 482.720114 233.002552 
L 483.523295 234.62583 
L 483.924886 234.113216 
L 485.129659 231.208402 
L 485.53125 231.122967 
L 485.932841 232.233631 
L 486.736023 235.651059 
L 487.539205 236.505416 
L 487.940795 235.992801 
L 488.342386 235.22388 
L 488.743977 233.42973 
L 489.145568 232.660809 
L 489.547159 233.344295 
L 489.94875 235.480187 
L 491.153523 239.324794 
L 491.555114 240.008279 
L 491.956705 239.837408 
L 492.358295 239.068486 
L 492.759886 238.897615 
L 493.161477 239.239358 
L 493.563068 240.520893 
L 493.964659 241.289815 
L 495.169432 242.315043 
L 496.374205 243.682014 
L 497.177386 243.340271 
L 497.578977 242.656786 
L 498.382159 242.058736 
L 498.78375 242.144172 
L 499.988523 243.254836 
L 500.390114 243.083964 
L 500.791705 242.229607 
L 501.594886 241.37525 
L 501.996477 238.983051 
L 502.398068 237.701515 
L 502.799659 237.103465 
L 503.20125 237.188901 
L 504.406023 239.666536 
L 504.807614 239.495665 
L 505.610795 237.61608 
L 506.413977 236.41998 
L 506.815568 236.334544 
L 508.020341 238.299565 
L 508.421932 240.17915 
L 508.823523 241.118943 
L 509.225114 241.204379 
L 509.626705 240.948072 
L 510.831477 236.590851 
L 511.634659 235.138444 
L 512.437841 234.369523 
L 513.241023 232.917116 
L 514.044205 230.439481 
L 514.445795 229.755996 
L 514.847386 229.841431 
L 515.248977 230.610353 
L 516.45375 235.907366 
L 517.658523 238.043258 
L 518.863295 239.153922 
L 519.264886 239.751972 
L 520.068068 240.093715 
L 520.469659 240.435458 
L 521.674432 241.033507 
L 522.477614 240.264586 
L 522.879205 238.641308 
L 524.083977 235.394752 
L 524.485568 233.515166 
L 525.28875 231.379274 
L 525.690341 231.293838 
L 526.091932 231.891888 
L 527.296705 234.882137 
L 527.698295 234.284087 
L 528.099886 232.575374 
L 528.501477 229.67056 
L 529.304659 226.851182 
L 529.70625 226.509439 
L 530.107841 226.68031 
L 530.911023 228.645332 
L 531.312614 229.499688 
L 531.714205 229.328817 
L 532.115795 228.303589 
L 532.918977 225.655082 
L 533.320568 224.715289 
L 534.12375 224.031804 
L 534.926932 224.458982 
L 535.328523 225.057032 
L 536.131705 227.27836 
L 536.533295 227.534667 
L 536.934886 227.022053 
L 537.336477 226.253132 
L 538.139659 225.313339 
L 538.54125 225.227904 
L 539.746023 225.911389 
L 540.549205 224.886161 
L 541.352386 223.51919 
L 541.753977 223.092011 
L 542.155568 222.92114 
L 542.557159 222.579397 
L 543.360341 221.12699 
L 544.966705 217.36782 
L 545.368295 215.915413 
L 546.171477 211.558192 
L 546.573068 210.276657 
L 546.974659 211.131014 
L 547.37625 212.839728 
L 548.179432 216.940641 
L 548.581023 217.965869 
L 548.982614 218.478484 
L 549.785795 220.52894 
L 549.785795 220.52894 
" clip-path="url(#pf516033b51)" style="fill: none; stroke: #1f77b4; stroke-width: 1.5; stroke-linecap: square"/>
   </g>
   <g id="patch_3">
    <path d="M 43.78125 327.238125 
L 43.78125 22.318125 
" style="fill: none; stroke: #000000; stroke-width: 0.8; stroke-linejoin: miter; stroke-linecap: square"/>
   </g>
   <g id="patch_4">
    <path d="M 573.88125 327.238125 
L 573.88125 22.318125 
" style="fill: none; stroke: #000000; stroke-width: 0.8; stroke-linejoin: miter; stroke-linecap: square"/>
   </g>
   <g id="patch_5">
    <path d="M 43.78125 327.238125 
L 573.88125 327.238125 
" style="fill: none; stroke: #000000; stroke-width: 0.8; stroke-linejoin: miter; stroke-linecap: square"/>
   </g>
   <g id="patch_6">
    <path d="M 43.78125 22.318125 
L 573.88125 22.318125 
" style="fill: none; stroke: #000000; stroke-width: 0.8; stroke-linejoin: miter; stroke-linecap: square"/>
   </g>
   <g id="text_16">
    <!-- Proteome-wide western-blot MW auditability landscape -->
    <g transform="translate(143.235938 16.318125) scale(0.12 -0.12)">
     <defs>
      <path id="DejaVuSans-50" d="M 1259 4147 
L 1259 2394 
L 2053 2394 
Q 2494 2394 2734 2622 
Q 2975 2850 2975 3272 
Q 2975 3691 2734 3919 
Q 2494 4147 2053 4147 
L 1259 4147 
z
M 628 4666 
L 2053 4666 
Q 2838 4666 3239 4311 
Q 3641 3956 3641 3272 
Q 3641 2581 3239 2228 
Q 2838 1875 2053 1875 
L 1259 1875 
L 1259 0 
L 628 0 
L 628 4666 
z
" transform="scale(0.015625)"/>
      <path id="DejaVuSans-2d" d="M 313 2009 
L 1997 2009 
L 1997 1497 
L 313 1497 
L 313 2009 
z
" transform="scale(0.015625)"/>
      <path id="DejaVuSans-73" d="M 2834 3397 
L 2834 2853 
Q 2591 2978 2328 3040 
Q 2066 3103 1784 3103 
Q 1356 3103 1142 2972 
Q 928 2841 928 2578 
Q 928 2378 1081 2264 
Q 1234 2150 1697 2047 
L 1894 2003 
Q 2506 1872 2764 1633 
Q 3022 1394 3022 966 
Q 3022 478 2636 193 
Q 2250 -91 1575 -91 
Q 1294 -91 989 -36 
Q 684 19 347 128 
L 347 722 
Q 666 556 975 473 
Q 1284 391 1588 391 
Q 1994 391 2212 530 
Q 2431 669 2431 922 
Q 2431 1156 2273 1281 
Q 2116 1406 1581 1522 
L 1381 1569 
Q 847 1681 609 1914 
Q 372 2147 372 2553 
Q 372 3047 722 3315 
Q 1072 3584 1716 3584 
Q 2034 3584 2315 3537 
Q 2597 3491 2834 3397 
z
" transform="scale(0.015625)"/>
     </defs>
     <use xlink:href="#DejaVuSans-50"/>
     <use xlink:href="#DejaVuSans-72" x="58.552734"/>
     <use xlink:href="#DejaVuSans-6f" x="97.416016"/>
     <use xlink:href="#DejaVuSans-74" x="158.597656"/>
     <use xlink:href="#DejaVuSans-65" x="197.806641"/>
     <use xlink:href="#DejaVuSans-6f" x="259.330078"/>
     <use xlink:href="#DejaVuSans-6d" x="320.511719"/>
     <use xlink:href="#DejaVuSans-65" x="417.923828"/>
     <use xlink:href="#DejaVuSans-2d" x="479.447266"/>
     <use xlink:href="#DejaVuSans-77" x="515.53125"/>
     <use xlink:href="#DejaVuSans-69" x="597.318359"/>
     <use xlink:href="#DejaVuSans-64" x="625.101562"/>
     <use xlink:href="#DejaVuSans-65" x="688.578125"/>
     <use xlink:href="#DejaVuSans-20" x="750.101562"/>
     <use xlink:href="#DejaVuSans-77" x="781.888672"/>
     <use xlink:href="#DejaVuSans-65" x="863.675781"/>
     <use xlink:href="#DejaVuSans-73" x="925.199219"/>
     <use xlink:href="#DejaVuSans-74" x="977.298828"/>
     <use xlink:href="#DejaVuSans-65" x="1016.507812"/>
     <use xlink:href="#DejaVuSans-72" x="1078.03125"/>
     <use xlink:href="#DejaVuSans-6e" x="1117.394531"/>
     <use xlink:href="#DejaVuSans-2d" x="1180.773438"/>
     <use xlink:href="#DejaVuSans-62" x="1216.857422"/>
     <use xlink:href="#DejaVuSans-6c" x="1280.333984"/>
     <use xlink:href="#DejaVuSans-6f" x="1308.117188"/>
     <use xlink:href="#DejaVuSans-74" x="1369.298828"/>
     <use xlink:href="#DejaVuSans-20" x="1408.507812"/>
     <use xlink:href="#DejaVuSans-4d" x="1440.294922"/>
     <use xlink:href="#DejaVuSans-57" x="1526.574219"/>
     <use xlink:href="#DejaVuSans-20" x="1625.451172"/>
     <use xlink:href="#DejaVuSans-61" x="1657.238281"/>
     <use xlink:href="#DejaVuSans-75" x="1718.517578"/>
     <use xlink:href="#DejaVuSans-64" x="1781.896484"/>
     <use xlink:href="#DejaVuSans-69" x="1845.373047"/>
     <use xlink:href="#DejaVuSans-74" x="1873.15625"/>
     <use xlink:href="#DejaVuSans-61" x="1912.365234"/>
     <use xlink:href="#DejaVuSans-62" x="1973.644531"/>
     <use xlink:href="#DejaVuSans-69" x="2037.121094"/>
     <use xlink:href="#DejaVuSans-6c" x="2064.904297"/>
     <use xlink:href="#DejaVuSans-69" x="2092.6875"/>
     <use xlink:href="#DejaVuSans-74" x="2120.470703"/>
     <use xlink:href="#DejaVuSans-79" x="2159.679688"/>
     <use xlink:href="#DejaVuSans-20" x="2218.859375"/>
     <use xlink:href="#DejaVuSans-6c" x="2250.646484"/>
     <use xlink:href="#DejaVuSans-61" x="2278.429688"/>
     <use xlink:href="#DejaVuSans-6e" x="2339.708984"/>
     <use xlink:href="#DejaVuSans-64" x="2403.087891"/>
     <use xlink:href="#DejaVuSans-73" x="2466.564453"/>
     <use xlink:href="#DejaVuSans-63" x="2518.664062"/>
     <use xlink:href="#DejaVuSans-61" x="2573.644531"/>
     <use xlink:href="#DejaVuSans-70" x="2634.923828"/>
     <use xlink:href="#DejaVuSans-65" x="2698.400391"/>
    </g>
   </g>
  </g>
 </g>
 <defs>
  <clipPath id="pf516033b51">
   <rect x="43.78125" y="22.318125" width="530.1" height="304.92"/>
  </clipPath>
 </defs>
</svg>
